<?xml version="1.0" ?><!DOCTYPE svg  PUBLIC '-//W3C//DTD SVG 1.1//EN'  'http://www.w3.org/Graphics/SVG/1.1/DTD/svg11.dtd'><svg enable-background="new 0 0 512 512" id="Layer_1" version="1.1" viewBox="0 0 512 512" xml:space="preserve" xmlns="http://www.w3.org/2000/svg" xmlns:xlink="http://www.w3.org/1999/xlink"><g><path d="M478.8,512H33.2c-5.8,0-10.5-4.7-10.5-10.5V209.1c0-5.8,4.7-10.5,10.5-10.5h445.6c5.8,0,10.5,4.7,10.5,10.5   v292.4C489.3,507.3,484.6,512,478.8,512z M43.8,490.9h424.5V219.6H43.8V490.9z" fill="#6A6E7C"/><path d="M443.6,208.7c-5.8,0-10.5-4.7-10.5-10.5c0-97.6-79.4-177.1-177.1-177.1S78.9,100.5,78.9,198.2   c0,5.8-4.7,10.5-10.5,10.5s-10.5-4.7-10.5-10.5C57.8,88.9,146.7,0,256,0s198.2,88.9,198.2,198.2C454.2,204,449.4,208.7,443.6,208.7   z" fill="#6A6E7C"/><path d="M256,437c-5.8,0-10.5-4.7-10.5-10.5v-61.8c0-5.8,4.7-10.5,10.5-10.5c5.8,0,10.5,4.7,10.5,10.5v61.8   C266.5,432.2,261.8,437,256,437z" fill="#6A6E7C"/><path d="M256,369.7c-26.5,0-48.1-21.6-48.1-48.1c0-26.5,21.6-48.1,48.1-48.1s48.1,21.6,48.1,48.1   C304.1,348.2,282.5,369.7,256,369.7z M256,294.7c-14.9,0-27,12.1-27,27s12.1,27,27,27s27-12.1,27-27S270.9,294.7,256,294.7z" fill="#6A6E7C"/></g></svg>