<?xml version="1.0" ?><!DOCTYPE svg  PUBLIC '-//W3C//DTD SVG 1.1//EN'  'http://www.w3.org/Graphics/SVG/1.1/DTD/svg11.dtd'><svg enable-background="new 0 0 512 512" id="Layer_1" version="1.1" viewBox="0 0 512 512" xml:space="preserve" xmlns="http://www.w3.org/2000/svg" xmlns:xlink="http://www.w3.org/1999/xlink"><g><path d="M185.9,272.4c-57.4,0-104.1-46.7-104.1-104.1S128.5,64.2,185.9,64.2S290,110.9,290,168.3   S243.3,272.4,185.9,272.4z M185.9,85.3c-45.8,0-83,37.2-83,83s37.2,83,83,83s83-37.2,83-83S231.7,85.3,185.9,85.3z" fill="#6A6E7C"/><path d="M361.3,447.8c-5.8,0-10.5-4.7-10.5-10.5c0-90.9-73.9-164.8-164.8-164.8S21.1,346.3,21.1,437.2   c0,5.8-4.7,10.5-10.5,10.5S0,443,0,437.2c0-102.5,83.4-185.9,185.9-185.9s185.9,83.4,185.9,185.9   C371.8,443,367.1,447.8,361.3,447.8z" fill="#6A6E7C"/><path d="M501.5,239.7H337.8c-5.8,0-10.5-4.7-10.5-10.5s4.7-10.5,10.5-10.5h163.7c5.8,0,10.5,4.7,10.5,10.5   S507.3,239.7,501.5,239.7z" fill="#6A6E7C"/><path d="M419.6,321.5c-5.8,0-10.5-4.7-10.5-10.5V147.3c0-5.8,4.7-10.5,10.5-10.5c5.8,0,10.5,4.7,10.5,10.5V311   C430.2,316.8,425.4,321.5,419.6,321.5z" fill="#6A6E7C"/></g></svg>