<?xml version="1.0" ?><!DOCTYPE svg  PUBLIC '-//W3C//DTD SVG 1.1//EN'  'http://www.w3.org/Graphics/SVG/1.1/DTD/svg11.dtd'><svg enable-background="new 0 0 512 512" id="Layer_1" version="1.1" viewBox="0 0 512 512" xml:space="preserve" xmlns="http://www.w3.org/2000/svg" xmlns:xlink="http://www.w3.org/1999/xlink"><g><path d="M257,421.3c5.1,0,9.8,1.1,14.2,3.2c17.2,8.4,24.4,29.2,16.1,46.4c-5.8,11.9-18.1,19.6-31.3,19.6   c-5.3,0-10.3-1.1-15.2-3.5c-17.2-8.4-24.4-29.2-16.1-46.4C230.3,429,243.3,421.3,257,421.3 M257,399.8c-21.1,0-42.1,11.8-51.6,31.4   c-13.5,27.9-1.9,61.6,26,75.2c7.8,3.8,16,5.7,24.6,5.7c21.4,0,41.3-12.4,50.7-31.7c13.5-27.9,1.9-61.6-26-75.2   C273.1,401.5,265,399.8,257,399.8L257,399.8z" fill="#6A6E7C"/><path d="M256,381.8c-5.9,0-10.8-4.8-10.8-10.8V10.8C245.2,4.8,250.1,0,256,0s10.8,4.8,10.8,10.8v360.3   C266.8,377,261.9,381.8,256,381.8z" fill="#6A6E7C"/></g></svg>