<?xml version="1.0" ?><!DOCTYPE svg  PUBLIC '-//W3C//DTD SVG 1.1//EN'  'http://www.w3.org/Graphics/SVG/1.1/DTD/svg11.dtd'><svg enable-background="new 0 0 512 512" id="Layer_1" version="1.1" viewBox="0 0 512 512" xml:space="preserve" xmlns="http://www.w3.org/2000/svg" xmlns:xlink="http://www.w3.org/1999/xlink"><g><path d="M478.4,122c-2.6,0-5.2-1-7.2-2.9L364.4,18.2c-4.2-4-4.4-10.7-0.4-14.9c4-4.2,10.7-4.4,14.9-0.4l106.8,100.9   c4.2,4,4.4,10.7,0.4,14.9C484,120.9,481.2,122,478.4,122z" fill="#6A6E7C"/><path d="M33.6,289.6c-5.8,0-10.5-4.7-10.5-10.5v-11.7c0-91.8,74.7-166.5,166.5-166.5h288.8c4.3,0,8.2,2.6,9.8,6.6   c1.6,4,0.6,8.6-2.6,11.6L378.8,220c-4.2,4-10.9,3.8-14.9-0.4c-4-4.2-3.8-10.9,0.4-14.9l87.5-82.7H189.6   c-80.2,0-145.4,65.2-145.4,145.4v11.7C44.2,284.9,39.5,289.6,33.6,289.6z" fill="#6A6E7C"/><path d="M140.4,512c-2.6,0-5.2-1-7.2-2.9L26.4,408.2c-4.2-4-4.4-10.7-0.4-14.9c4-4.2,10.7-4.4,14.9-0.4l106.8,100.9   c4.2,4,4.4,10.7,0.4,14.9C146,510.9,143.2,512,140.4,512z" fill="#6A6E7C"/><path d="M322.4,411.1H33.6c-4.3,0-8.2-2.6-9.8-6.6c-1.6-4-0.6-8.6,2.6-11.6L133.2,292c4.2-4,10.9-3.8,14.9,0.4   c4,4.2,3.8,10.9-0.4,14.9L60.1,390h262.3c80.2,0,145.4-65.2,145.4-145.4v-11.7c0-5.8,4.7-10.5,10.5-10.5c5.8,0,10.5,4.7,10.5,10.5   v11.7C488.9,336.4,414.2,411.1,322.4,411.1z" fill="#6A6E7C"/></g></svg>