<?xml version="1.0" ?><!DOCTYPE svg  PUBLIC '-//W3C//DTD SVG 1.1//EN'  'http://www.w3.org/Graphics/SVG/1.1/DTD/svg11.dtd'><svg enable-background="new 0 0 512 512" id="Layer_1" version="1.1" viewBox="0 0 512 512" xml:space="preserve" xmlns="http://www.w3.org/2000/svg" xmlns:xlink="http://www.w3.org/1999/xlink"><g><g><path d="M426.1,512c-2.7,0-5.3-1-7.3-3l-254-245.5c-2.1-2-3.2-4.7-3.2-7.6c0-2.9,1.2-5.6,3.2-7.6L418.8,3    c3-2.9,7.6-3.8,11.4-2.1c3.9,1.7,6.4,5.5,6.4,9.7v490.9c0,4.2-2.5,8.1-6.4,9.7C428.9,511.7,427.5,512,426.1,512z M187.3,256    l228.3,220.6V35.4L187.3,256z" fill="#6A6E7C"/></g><path d="M85.9,512c-5.8,0-10.5-4.7-10.5-10.5V10.5C75.3,4.7,80.1,0,85.9,0s10.5,4.7,10.5,10.5v490.9   C96.4,507.3,91.7,512,85.9,512z" fill="#6A6E7C"/></g></svg>