<?xml version="1.0" ?><!DOCTYPE svg  PUBLIC '-//W3C//DTD SVG 1.1//EN'  'http://www.w3.org/Graphics/SVG/1.1/DTD/svg11.dtd'><svg enable-background="new 0 0 512 512" id="Layer_1" version="1.1" viewBox="0 0 512 512" xml:space="preserve" xmlns="http://www.w3.org/2000/svg" xmlns:xlink="http://www.w3.org/1999/xlink"><g><g><path d="M10.5,496.5c-1.4,0-2.8-0.3-4.1-0.8C2.5,494,0,490.2,0,485.9V26.1c0-4.2,2.5-8.1,6.4-9.7    c3.9-1.7,8.4-0.8,11.4,2.1l238,229.9c2.1,2,3.2,4.7,3.2,7.6s-1.2,5.6-3.2,7.6l-238,229.9C15.9,495.5,13.2,496.5,10.5,496.5z     M21.1,50.9v410.2L233.3,256L21.1,50.9z" fill="#6A6E7C"/></g><g><path d="M263.5,496.5c-1.4,0-2.8-0.3-4.1-0.8c-3.9-1.7-6.4-5.5-6.4-9.7V26.1c0-4.2,2.5-8.1,6.4-9.7    c3.9-1.7,8.4-0.8,11.4,2.1l238,229.9c2.1,2,3.2,4.7,3.2,7.6s-1.2,5.6-3.2,7.6l-238,229.9C268.8,495.5,266.2,496.5,263.5,496.5z     M274,50.9v410.2L486.3,256L274,50.9z" fill="#6A6E7C"/></g></g></svg>