<?xml version="1.0" ?><!DOCTYPE svg  PUBLIC '-//W3C//DTD SVG 1.1//EN'  'http://www.w3.org/Graphics/SVG/1.1/DTD/svg11.dtd'><svg enable-background="new 0 0 512 512" id="Layer_1" version="1.1" viewBox="0 0 512 512" xml:space="preserve" xmlns="http://www.w3.org/2000/svg" xmlns:xlink="http://www.w3.org/1999/xlink"><g><path d="M10.5,266.5c-2.8,0-5.5-1.1-7.6-3.2c-4-4.2-3.9-10.9,0.3-14.9L209,49.6c4.2-4,10.9-3.9,14.9,0.3   c4,4.2,3.9,10.9-0.3,14.9L17.9,263.6C15.8,265.6,13.2,266.5,10.5,266.5z" fill="#6A6E7C"/><path d="M216.3,465.4c-2.6,0-5.3-1-7.3-3L3.2,263.6c-3.1-3-4.1-7.6-2.4-11.5c1.6-4,5.5-6.6,9.8-6.6h490.9   c5.8,0,10.5,4.7,10.5,10.5c0,5.8-4.7,10.5-10.5,10.5H36.6l187,180.7c4.2,4,4.3,10.7,0.3,14.9C221.8,464.3,219.1,465.4,216.3,465.4z   " fill="#6A6E7C"/></g></svg>