<?xml version="1.0" ?><!DOCTYPE svg  PUBLIC '-//W3C//DTD SVG 1.1//EN'  'http://www.w3.org/Graphics/SVG/1.1/DTD/svg11.dtd'><svg enable-background="new 0 0 512 512" id="Layer_1" version="1.1" viewBox="0 0 512 512" xml:space="preserve" xmlns="http://www.w3.org/2000/svg" xmlns:xlink="http://www.w3.org/1999/xlink"><g><path d="M501.5,266.5c-2.6,0-5.3-1-7.3-3l-191.5-185c-4.2-4-4.3-10.7-0.3-14.9c4-4.2,10.7-4.3,14.9-0.3l191.5,185   c4.2,4,4.3,10.7,0.3,14.9C507,265.5,504.2,266.5,501.5,266.5z" fill="#6A6E7C"/><path d="M310,451.6c-2.8,0-5.5-1.1-7.6-3.2c-4-4.2-3.9-10.9,0.3-14.9l172.7-166.9H182.7   c-89.1,0-161.6,72.5-161.6,161.6V441c0,5.8-4.7,10.5-10.5,10.5S0,446.9,0,441v-12.9c0-100.7,81.9-182.7,182.7-182.7h318.8   c4.3,0,8.2,2.6,9.8,6.6c1.6,4,0.6,8.5-2.4,11.5l-191.5,185C315.2,450.6,312.6,451.6,310,451.6z" fill="#6A6E7C"/></g></svg>