<?xml version="1.0" ?><!DOCTYPE svg  PUBLIC '-//W3C//DTD SVG 1.1//EN'  'http://www.w3.org/Graphics/SVG/1.1/DTD/svg11.dtd'><svg enable-background="new 0 0 512 512" id="Layer_1" version="1.1" viewBox="0 0 512 512" xml:space="preserve" xmlns="http://www.w3.org/2000/svg" xmlns:xlink="http://www.w3.org/1999/xlink"><g><path d="M268.8,266.5c-2.6,0-5.3-1-7.3-3L7.5,18.1c-4.2-4-4.3-10.7-0.3-14.9C11.3-1,18-1.1,22.2,3l254,245.5   c4.2,4,4.3,10.7,0.3,14.9C274.4,265.5,271.6,266.5,268.8,266.5z" fill="#6A6E7C"/><path d="M14.8,512c-2.8,0-5.5-1.1-7.6-3.2c-4-4.2-3.9-10.9,0.3-14.9l254-245.5c4.2-4,10.9-3.9,14.9,0.3   c4,4.2,3.9,10.9-0.3,14.9L22.2,509C20.1,511,17.5,512,14.8,512z" fill="#6A6E7C"/><path d="M497.2,266.5c-2.6,0-5.3-1-7.3-3l-254-245.5c-4.2-4-4.3-10.7-0.3-14.9c4-4.2,10.7-4.3,14.9-0.3l254,245.5   c4.2,4,4.3,10.7,0.3,14.9C502.7,265.5,499.9,266.5,497.2,266.5z" fill="#6A6E7C"/><path d="M243.2,512c-2.8,0-5.5-1.1-7.6-3.2c-4-4.2-3.9-10.9,0.3-14.9l254-245.5c4.2-4,10.9-3.9,14.9,0.3   c4,4.2,3.9,10.9-0.3,14.9L250.5,509C248.4,511,245.8,512,243.2,512z" fill="#6A6E7C"/></g></svg>