<?xml version="1.0" ?><!DOCTYPE svg  PUBLIC '-//W3C//DTD SVG 1.1//EN'  'http://www.w3.org/Graphics/SVG/1.1/DTD/svg11.dtd'><svg enable-background="new 0 0 512 512" id="Layer_1" version="1.1" viewBox="0 0 512 512" xml:space="preserve" xmlns="http://www.w3.org/2000/svg" xmlns:xlink="http://www.w3.org/1999/xlink"><g><g><path d="M204.3,512c-1.4,0-2.8-0.3-4.1-0.8c-3.9-1.7-6.4-5.5-6.4-9.7V10.5c0-4.2,2.5-8.1,6.4-9.7    c3.9-1.7,8.4-0.8,11.4,2.1l254,245.5c2.1,2,3.2,4.7,3.2,7.6c0,2.9-1.2,5.6-3.2,7.6L211.7,509C209.6,511,207,512,204.3,512z     M214.9,35.4v441.2L443.2,256L214.9,35.4z" fill="#6A6E7C"/></g><path d="M53.7,512c-5.8,0-10.5-4.7-10.5-10.5V10.5C43.1,4.7,47.8,0,53.7,0s10.5,4.7,10.5,10.5v490.9   C64.2,507.3,59.5,512,53.7,512z" fill="#6A6E7C"/></g></svg>