<?xml version="1.0" ?><!DOCTYPE svg  PUBLIC '-//W3C//DTD SVG 1.1//EN'  'http://www.w3.org/Graphics/SVG/1.1/DTD/svg11.dtd'><svg enable-background="new 0 0 512 512" id="Layer_1" version="1.1" viewBox="0 0 512 512" xml:space="preserve" xmlns="http://www.w3.org/2000/svg" xmlns:xlink="http://www.w3.org/1999/xlink"><g><path d="M256,512c-2.8,0-5.5-1.1-7.6-3.2L49.6,303c-4-4.2-3.9-10.9,0.3-14.9c4.2-4,10.9-3.9,14.9,0.3l198.8,205.8   c4,4.2,3.9,10.9-0.3,14.9C261.3,511,258.6,512,256,512z" fill="#6A6E7C"/><path d="M256,512c-1.3,0-2.7-0.3-3.9-0.8c-4-1.6-6.6-5.5-6.6-9.8V10.5C245.5,4.7,250.2,0,256,0   c5.8,0,10.5,4.7,10.5,10.5v464.8l180.7-187c4-4.2,10.7-4.3,14.9-0.3c4.2,4,4.3,10.7,0.3,14.9L263.6,508.8   C261.6,510.9,258.8,512,256,512z" fill="#6A6E7C"/></g></svg>