<?xml version="1.0" ?><!DOCTYPE svg  PUBLIC '-//W3C//DTD SVG 1.1//EN'  'http://www.w3.org/Graphics/SVG/1.1/DTD/svg11.dtd'><svg enable-background="new 0 0 512 512" id="Layer_1" version="1.1" viewBox="0 0 512 512" xml:space="preserve" xmlns="http://www.w3.org/2000/svg" xmlns:xlink="http://www.w3.org/1999/xlink"><g><path d="M501.5,416.5h-85.2c-30.7,0-60.7-8.5-86.9-24.5c-26.2-16-47.4-38.9-61.3-66.2L159.3,112.8H10.5   c-5.8,0-10.5-4.7-10.5-10.5c0-5.8,4.7-10.5,10.5-10.5h155.2c4,0,7.6,2.2,9.4,5.7l111.8,218.8c25,48.9,74.5,79.2,129.4,79.2h58.8   l-51.5-49.1c-4.2-4-4.4-10.7-0.4-14.9c4-4.2,10.7-4.4,14.9-0.4l70.5,67.2c3.1,3,4.1,7.6,2.5,11.6   C509.6,413.9,505.8,416.5,501.5,416.5z" fill="#6A6E7C"/><path d="M436.6,488c-2.5,0-5.1-0.9-7.1-2.7c-4.3-3.9-4.6-10.6-0.7-14.9l64.9-71.5c3.9-4.3,10.6-4.6,14.9-0.7   c4.3,3.9,4.6,10.6,0.7,14.9l-64.9,71.5C442.3,486.9,439.4,488,436.6,488z" fill="#6A6E7C"/><path d="M165.7,420.3H10.5c-5.8,0-10.5-4.7-10.5-10.5c0-5.8,4.7-10.5,10.5-10.5h148.7l108.8-213.1   c14-27.3,35.2-50.2,61.3-66.2c26.2-16,56.2-24.5,86.9-24.5h85.2c4.3,0,8.2,2.6,9.8,6.6c1.6,4,0.6,8.6-2.5,11.6l-70.5,67.2   c-4.2,4-10.9,3.9-14.9-0.4c-4-4.2-3.9-10.9,0.4-14.9l51.5-49.1h-58.8c-54.9,0-104.5,30.4-129.4,79.2L175.1,414.6   C173.3,418.1,169.7,420.3,165.7,420.3z" fill="#6A6E7C"/><path d="M501.5,116.5c-2.9,0-5.7-1.2-7.8-3.5l-64.9-71.5c-3.9-4.3-3.6-11,0.7-14.9c4.3-3.9,11-3.6,14.9,0.7   l64.9,71.5c3.9,4.3,3.6,11-0.7,14.9C506.5,115.6,504,116.5,501.5,116.5z" fill="#6A6E7C"/></g></svg>