<?xml version="1.0" ?><!DOCTYPE svg  PUBLIC '-//W3C//DTD SVG 1.1//EN'  'http://www.w3.org/Graphics/SVG/1.1/DTD/svg11.dtd'><svg enable-background="new 0 0 512 512" id="Layer_1" version="1.1" viewBox="0 0 512 512" xml:space="preserve" xmlns="http://www.w3.org/2000/svg" xmlns:xlink="http://www.w3.org/1999/xlink"><g><path d="M91.1,365.5H10.5C4.7,365.5,0,360.8,0,355V157c0-5.8,4.7-10.5,10.5-10.5h80.6c5.8,0,10.5,4.7,10.5,10.5v198   C101.7,360.8,97,365.5,91.1,365.5z M21.1,344.4h59.5V167.6H21.1V344.4z" fill="#6A6E7C"/><path d="M275.1,505.7c-2.3,0-4.5-0.7-6.4-2.2l-184-140.2c-2.6-2-4.2-5.1-4.2-8.4V157c0-3.3,1.5-6.4,4.2-8.4   l184-140.2c3.2-2.4,7.5-2.8,11.1-1.1c3.6,1.8,5.9,5.4,5.9,9.5v478.3c0,4-2.3,7.7-5.9,9.5C278.3,505.3,276.7,505.7,275.1,505.7z    M101.7,349.8l162.9,124.1V38.2L101.7,162.2V349.8z" fill="#6A6E7C"/><g><path d="M501.5,350.2c-2.7,0-5.4-1-7.5-3.1L326.6,179.8c-4.1-4.1-4.1-10.8,0-14.9c4.1-4.1,10.8-4.1,14.9,0    l167.4,167.4c4.1,4.1,4.1,10.8,0,14.9C506.9,349.2,504.2,350.2,501.5,350.2z" fill="#6A6E7C"/><path d="M334.1,350.2c-2.7,0-5.4-1-7.5-3.1c-4.1-4.1-4.1-10.8,0-14.9L494,164.8c4.1-4.1,10.8-4.1,14.9,0    c4.1,4.1,4.1,10.8,0,14.9L341.5,347.2C339.5,349.2,336.8,350.2,334.1,350.2z" fill="#6A6E7C"/></g></g></svg>