<?xml version="1.0" ?><!DOCTYPE svg  PUBLIC '-//W3C//DTD SVG 1.1//EN'  'http://www.w3.org/Graphics/SVG/1.1/DTD/svg11.dtd'><svg enable-background="new 0 0 512 512" id="Layer_1" version="1.1" viewBox="0 0 512 512" xml:space="preserve" xmlns="http://www.w3.org/2000/svg" xmlns:xlink="http://www.w3.org/1999/xlink"><g><path d="M429.6,442.7c-2.7,0-5.4-1-7.5-3.1c-4.1-4.1-4.1-10.8,0-14.9c91.6-91.6,91.6-240.6,0-332.2   c-91.6-91.6-240.6-91.6-332.2,0c-44.4,44.4-68.8,103.4-68.8,166.1c0,62.7,24.4,121.7,68.8,166.1c4.1,4.1,4.1,10.8,0,14.9   c-4.1,4.1-10.8,4.1-14.9,0C26.6,391.3,0,327,0,258.6s26.6-132.7,75-181c48.4-48.4,112.6-75,181-75s132.7,26.6,181,75   s75,112.6,75,181s-26.6,132.7-75,181C435,441.7,432.3,442.7,429.6,442.7z" fill="#6A6E7C"/><path d="M82.9,509.4c-5.8,0-10.5-4.7-10.5-10.5V341.1c0-5.8,4.7-10.5,10.5-10.5s10.5,4.7,10.5,10.5v157.8   C93.4,504.7,88.7,509.4,82.9,509.4z" fill="#6A6E7C"/><path d="M424.7,509.4c-5.8,0-10.5-4.7-10.5-10.5V341.1c0-5.8,4.7-10.5,10.5-10.5c5.8,0,10.5,4.7,10.5,10.5v157.8   C435.3,504.7,430.6,509.4,424.7,509.4z" fill="#6A6E7C"/></g></svg>