<?xml version="1.0" ?><svg id="Calque_1" style="enable-background:new 0 0 512 512;" version="1.1" viewBox="0 0 512 512" xml:space="preserve" xmlns="http://www.w3.org/2000/svg" xmlns:xlink="http://www.w3.org/1999/xlink"><style type="text/css">
	.st0{fill:#6F707E;}
</style><g id="XMLID_1_"><path class="st0" d="M171.9,24.4h168.3c6.7,0,12.2-5.5,12.2-12.2c0-6.7-5.5-12.2-12.2-12.2H171.9   c-6.7,0-12.2,5.5-12.2,12.2C159.7,18.9,165.1,24.4,171.9,24.4z" id="XMLID_12_"/><path class="st0" d="M286.9,223.2c-6.7,0-12.2,5.5-12.2,12.2v200.9c0,6.7,5.5,12.2,12.2,12.2   c6.7,0,12.2-5.5,12.2-12.2V235.4C299.1,228.7,293.6,223.2,286.9,223.2z" id="XMLID_13_"/><path class="st0" d="M348.7,223.2c-6.7,0-12.2,5.5-12.2,12.2v200.9c0,6.7,5.5,12.2,12.2,12.2   c6.7,0,12.2-5.5,12.2-12.2V235.4C360.9,228.7,355.5,223.2,348.7,223.2z" id="XMLID_14_"/><path class="st0" d="M225.1,223.2c-6.7,0-12.2,5.5-12.2,12.2v200.9c0,6.7,5.5,12.2,12.2,12.2   c6.7,0,12.2-5.5,12.2-12.2V235.4C237.3,228.7,231.8,223.2,225.1,223.2z" id="XMLID_15_"/><path class="st0" d="M163.3,223.2c-6.7,0-12.2,5.5-12.2,12.2v200.9c0,6.7,5.5,12.2,12.2,12.2   c6.7,0,12.2-5.5,12.2-12.2V235.4C175.5,228.7,170,223.2,163.3,223.2z" id="XMLID_16_"/><path class="st0" d="M470.6,51.5h-30.6H71.9H41.4c-6.7,0-12.2,5.5-12.2,12.2c0,6.7,5.5,12.2,12.2,12.2h19.5   l9.2,97.5c0,0.1,0,0.3,0,0.4L101,501c0.6,6.3,5.8,11,12.1,11h285.7c6.3,0,11.5-4.8,12.1-11l40.1-425.1h19.5   c6.7,0,12.2-5.5,12.2-12.2C482.8,57,477.4,51.5,470.6,51.5z M387.8,487.6H124.2L95.6,184.6h320.8L387.8,487.6z M418.7,160.2H93.3   l-8-84.3h341.3L418.7,160.2z" id="XMLID_19_"/></g></svg>