<?xml version="1.0" ?><!DOCTYPE svg  PUBLIC '-//W3C//DTD SVG 1.1//EN'  'http://www.w3.org/Graphics/SVG/1.1/DTD/svg11.dtd'><svg enable-background="new 0 0 512 512" id="Layer_1" version="1.1" viewBox="0 0 512 512" xml:space="preserve" xmlns="http://www.w3.org/2000/svg" xmlns:xlink="http://www.w3.org/1999/xlink"><g><g><path d="M207.9,455.7c-30.6,0-55.4-24.9-55.4-55.4c0-30.6,24.9-55.4,55.4-55.4c30.6,0,55.4,24.9,55.4,55.4    C263.4,430.9,238.5,455.7,207.9,455.7z M207.9,366c-18.9,0-34.3,15.4-34.3,34.3s15.4,34.3,34.3,34.3c18.9,0,34.3-15.4,34.3-34.3    S226.9,366,207.9,366z" fill="#6A6E7C"/><path d="M365,455.7c-30.6,0-55.4-24.9-55.4-55.4c0-30.6,24.9-55.4,55.4-55.4s55.4,24.9,55.4,55.4    C420.4,430.9,395.6,455.7,365,455.7z M365,366c-18.9,0-34.3,15.4-34.3,34.3s15.4,34.3,34.3,34.3s34.3-15.4,34.3-34.3    S383.9,366,365,366z" fill="#6A6E7C"/></g><path d="M419.7,360.7H153.2c-4.9,0-9.1-3.3-10.2-8.1L76.1,77.4H10.5C4.7,77.4,0,72.6,0,66.8s4.7-10.5,10.5-10.5   h73.9c4.9,0,9.1,3.3,10.2,8.1l21,86.4h385.8c3.6,0,6.9,1.8,8.8,4.8c1.9,3,2.3,6.7,0.9,10l-81.7,188.9   C427.7,358.2,423.9,360.7,419.7,360.7z M161.5,339.6h251.3l72.6-167.8H120.8L161.5,339.6z" fill="#6A6E7C"/></g></svg>