<?xml version="1.0" ?><!DOCTYPE svg  PUBLIC '-//W3C//DTD SVG 1.1//EN'  'http://www.w3.org/Graphics/SVG/1.1/DTD/svg11.dtd'><svg enable-background="new 0 0 512 512" id="Layer_1" version="1.1" viewBox="0 0 512 512" xml:space="preserve" xmlns="http://www.w3.org/2000/svg" xmlns:xlink="http://www.w3.org/1999/xlink"><g><path d="M501.5,461.5H10.5C4.7,461.5,0,456.8,0,451V102.1c0-5.8,4.7-10.5,10.5-10.5h490.9c5.8,0,10.5,4.7,10.5,10.5   V451C512,456.8,507.3,461.5,501.5,461.5z M21.1,440.4h469.8V112.7H21.1V440.4z" fill="#6A6E7C"/><rect fill="#6A6E7C" height="21.1" width="490.9" x="10.5" y="192"/><path d="M108.2,153.8c-5.8,0-10.5-4.7-10.5-10.5V61c0-5.8,4.7-10.5,10.5-10.5c5.8,0,10.5,4.7,10.5,10.5v82.2   C118.8,149.1,114,153.8,108.2,153.8z" fill="#6A6E7C"/><path d="M256,153.8c-5.8,0-10.5-4.7-10.5-10.5V61c0-5.8,4.7-10.5,10.5-10.5c5.8,0,10.5,4.7,10.5,10.5v82.2   C266.5,149.1,261.8,153.8,256,153.8z" fill="#6A6E7C"/><path d="M403.8,153.8c-5.8,0-10.5-4.7-10.5-10.5V61c0-5.8,4.7-10.5,10.5-10.5c5.8,0,10.5,4.7,10.5,10.5v82.2   C414.3,149.1,409.6,153.8,403.8,153.8z" fill="#6A6E7C"/></g></svg>