<?xml version="1.0" ?><!DOCTYPE svg  PUBLIC '-//W3C//DTD SVG 1.1//EN'  'http://www.w3.org/Graphics/SVG/1.1/DTD/svg11.dtd'><svg enable-background="new 0 0 512 512" id="Layer_1" version="1.1" viewBox="0 0 512 512" xml:space="preserve" xmlns="http://www.w3.org/2000/svg" xmlns:xlink="http://www.w3.org/1999/xlink"><g><path d="M501.5,512c-2.7,0-5.4-1-7.5-3.1L3.1,18C-1,13.9-1,7.2,3.1,3.1C7.2-1,13.9-1,18,3.1L508.9,494   c4.1,4.1,4.1,10.8,0,14.9C506.9,511,504.2,512,501.5,512z" fill="#6A6E7C"/><path d="M10.5,512c-2.7,0-5.4-1-7.5-3.1c-4.1-4.1-4.1-10.8,0-14.9L494,3.1c4.1-4.1,10.8-4.1,14.9,0   c4.1,4.1,4.1,10.8,0,14.9L18,508.9C15.9,511,13.2,512,10.5,512z" fill="#6A6E7C"/></g></svg>