<?xml version="1.0" ?><!DOCTYPE svg  PUBLIC '-//W3C//DTD SVG 1.1//EN'  'http://www.w3.org/Graphics/SVG/1.1/DTD/svg11.dtd'><svg enable-background="new 0 0 512 512" id="Layer_1" version="1.1" viewBox="0 0 512 512" xml:space="preserve" xmlns="http://www.w3.org/2000/svg" xmlns:xlink="http://www.w3.org/1999/xlink"><g><path d="M501.5,512c-2.7,0-5.4-1-7.5-3.1L3.1,18C-1,13.9-1,7.2,3.1,3.1C7.2-1,13.9-1,18,3.1L508.9,494   c4.1,4.1,4.1,10.8,0,14.9C506.9,511,504.2,512,501.5,512z" fill="#6A6E7C"/><path d="M10.5,512c-2.7,0-5.4-1-7.5-3.1c-4.1-4.1-4.1-10.8,0-14.9L494,3.1c4.1-4.1,10.8-4.1,14.9,0   c4.1,4.1,4.1,10.8,0,14.9L18,508.9C15.9,511,13.2,512,10.5,512z" fill="#6A6E7C"/></g>
<g id="XMLID_1_"><path class="st0" d="M511.7,258.3c0.2-0.8,0.3-1.5,0.3-2.3c0-0.8-0.2-1.5-0.3-2.3c-0.1-0.7-0.3-1.5-0.6-2.2   c-0.3-0.8-0.8-1.5-1.3-2.2c-0.3-0.5-0.4-1-0.8-1.4c-74.6-83.6-156.8-126-244.3-126c-0.1,0-0.3,0-0.4,0   C116.2,122.1,7.5,242.8,3,247.9c-0.4,0.4-0.5,1-0.8,1.4c-0.5,0.7-0.9,1.4-1.2,2.1c-0.3,0.7-0.4,1.5-0.6,2.2   C0.2,254.5,0,255.2,0,256c0,0.8,0.2,1.5,0.3,2.3c0.1,0.8,0.3,1.5,0.6,2.2c0.3,0.8,0.8,1.4,1.2,2.1c0.3,0.5,0.5,1,0.8,1.4   c4.5,5.1,113.2,125.9,261.4,126.1c0.1,0,0.3,0,0.4,0c87.5,0,169.7-42.4,244.3-126c0.4-0.4,0.5-1,0.8-1.4c0.5-0.7,1-1.4,1.3-2.2   C511.4,259.8,511.5,259.1,511.7,258.3z M264.7,365.8c-0.1,0-0.1,0-0.2,0c-116-0.1-209-83.4-235.5-109.8   c26.5-26.4,119.4-109.7,235.5-109.8c0.1,0,0.1,0,0.2,0c77.3,0,150.7,37.2,218.3,109.8C415.4,328.6,342.1,365.8,264.7,365.8z" id="XMLID_12_"/><path class="st0" d="M256,165.6c-49.9,0-90.5,40.6-90.5,90.4c0,49.9,40.6,90.4,90.5,90.4s90.5-40.6,90.5-90.4   C346.5,206.1,305.9,165.6,256,165.6z M280.4,207.2c13.4,0,24.4,10.9,24.4,24.4c0,13.4-10.9,24.4-24.4,24.4   c-13.4,0-24.4-10.9-24.4-24.4C256,218.2,266.9,207.2,280.4,207.2z M256,322.1c-36.4,0-66.1-29.6-66.1-66.1   c0-36.2,29.2-65.6,65.3-66c-14.1,8.6-23.6,23.9-23.6,41.6c0,26.9,21.9,48.8,48.8,48.8c17.7,0,33-9.5,41.6-23.7   C321.6,292.8,292.2,322.1,256,322.1z" id="XMLID_15_"/></g>
</svg>
