<?xml version="1.0" ?><!DOCTYPE svg  PUBLIC '-//W3C//DTD SVG 1.1//EN'  'http://www.w3.org/Graphics/SVG/1.1/DTD/svg11.dtd'><svg enable-background="new 0 0 512 512" id="Layer_1" version="1.1" viewBox="0 0 512 512" xml:space="preserve" xmlns="http://www.w3.org/2000/svg" xmlns:xlink="http://www.w3.org/1999/xlink"><g><g id="Page-1_1_"><g id="icon-132-cloud_1_"><path d="M410.6,392.7c-5.8,0-10.5-4.7-10.5-10.5c0-5.8,4.7-10.5,10.5-10.5c44.3,0,80.4-36,80.4-80.4     c0-32.9-19.7-62.1-50.1-74.5c-3.3-1.3-5.6-4.2-6.4-7.6c-8.6-41.1-45.4-71-87.5-71c-13.7,0-26.9,3-39.1,9c-5,2.4-11,0.6-13.8-4.3     c-20.7-36.5-59.7-59.3-101.6-59.3C128,83.6,75.6,136,75.6,200.3c0,2.3,0.1,4.6,0.2,6.9c0.3,4.4-2.3,8.5-6.3,10.3     c-29.4,12.8-48.4,41.7-48.4,73.8c0,44.3,36,80.4,80.4,80.4c5.8,0,10.5,4.7,10.5,10.5c0,5.8-4.7,10.5-10.5,10.5     C45.5,392.7,0,347.2,0,291.3c0-38,21.2-72.6,54.5-90c0-0.3,0-0.6,0-0.9c0-76,61.8-137.8,137.8-137.8c46.4,0,89.6,23.5,115,61.8     c12.6-4.8,25.8-7.3,39.6-7.3c25.5,0,50.4,8.9,70.1,25.1c18,14.8,30.9,35,36.8,57.3c35.5,16.7,58.2,52.1,58.2,91.8     C512,347.2,466.5,392.7,410.6,392.7z" fill="#6A6E7C"/></g></g><path d="M140.9,449.5c-2.2,0-4.3-0.7-6.2-2c-4.7-3.4-5.7-10-2.3-14.7l82.8-113.5c3.4-4.7,10-5.7,14.7-2.3   c4.7,3.4,5.7,10,2.3,14.7l-82.8,113.5C147.4,448,144.2,449.5,140.9,449.5z" fill="#6A6E7C"/><path d="M214.6,449.5c-2.2,0-4.3-0.7-6.2-2c-4.7-3.4-5.7-10-2.3-14.7l82.8-113.5c3.4-4.7,10-5.7,14.7-2.3   c4.7,3.4,5.7,10,2.3,14.7l-82.8,113.5C221,448,217.8,449.5,214.6,449.5z" fill="#6A6E7C"/><path d="M288.2,449.5c-2.2,0-4.3-0.7-6.2-2c-4.7-3.4-5.7-10-2.3-14.7l82.8-113.5c3.4-4.7,10-5.7,14.7-2.3   c4.7,3.4,5.7,10,2.3,14.7l-82.8,113.5C294.7,448,291.5,449.5,288.2,449.5z" fill="#6A6E7C"/></g></svg>