<?xml version="1.0" ?><!DOCTYPE svg  PUBLIC '-//W3C//DTD SVG 1.1//EN'  'http://www.w3.org/Graphics/SVG/1.1/DTD/svg11.dtd'><svg enable-background="new 0 0 512 512" id="Layer_1" version="1.1" viewBox="0 0 512 512" xml:space="preserve" xmlns="http://www.w3.org/2000/svg" xmlns:xlink="http://www.w3.org/1999/xlink"><g><g id="icon-132-cloud_2_"><path d="M410.6,349.1H101.4C45.5,349.1,0,303.5,0,247.6c0-38,21.2-72.6,54.5-90c0-0.3,0-0.6,0-0.9    c0-76,61.8-137.8,137.8-137.8c46.4,0,89.6,23.5,115,61.8c12.6-4.8,25.8-7.3,39.6-7.3c25.5,0,50.4,8.9,70.1,25.1    c18,14.8,30.9,35,36.8,57.3c35.5,16.7,58.2,52.1,58.2,91.8C512,303.5,466.5,349.1,410.6,349.1z M192.4,40    C128,40,75.6,92.3,75.6,156.7c0,2.3,0.1,4.6,0.2,6.9c0.3,4.4-2.3,8.5-6.3,10.3c-29.4,12.8-48.4,41.7-48.4,73.8    c0,44.3,36,80.4,80.4,80.4h309.1c44.3,0,80.4-36.1,80.4-80.4c0-32.9-19.7-62.1-50.1-74.5c-3.3-1.3-5.6-4.2-6.4-7.6    c-8.6-41.1-45.4-71-87.5-71c-13.7,0-26.9,3-39.1,9c-5,2.4-11,0.6-13.8-4.3C273.3,62.7,234.3,40,192.4,40z" fill="#6A6E7C"/></g><path d="M185.1,493.1c-2.7,0-5.4-1-7.5-3.1c-4.1-4.1-4.1-10.8,0-14.9l40.9-40.9L187.2,403c-2-2-3.1-4.7-3.1-7.5   s1.1-5.5,3.1-7.5l55.6-55.6c4.1-4.1,10.8-4.1,14.9,0c4.1,4.1,4.1,10.8,0,14.9l-48.2,48.2l31.3,31.3c2,2,3.1,4.7,3.1,7.5   s-1.1,5.5-3.1,7.5L192.6,490C190.5,492.1,187.8,493.1,185.1,493.1z" fill="#6A6E7C"/><path d="M277.8,457.9c-2.7,0-5.4-1-7.5-3.1c-4.1-4.1-4.1-10.8,0-14.9l28.9-28.9l-21.7-21.7c-2-2-3.1-4.7-3.1-7.5   c0-2.8,1.1-5.5,3.1-7.5l41.9-41.9c4.1-4.1,10.8-4.1,14.9,0c4.1,4.1,4.1,10.8,0,14.9l-34.4,34.4l21.7,21.7c4.1,4.1,4.1,10.8,0,14.9   l-36.4,36.4C283.2,456.8,280.5,457.9,277.8,457.9z" fill="#6A6E7C"/></g></svg>