<?xml version="1.0" ?><!DOCTYPE svg  PUBLIC '-//W3C//DTD SVG 1.1//EN'  'http://www.w3.org/Graphics/SVG/1.1/DTD/svg11.dtd'><svg enable-background="new 0 0 512 512" id="Layer_1" version="1.1" viewBox="0 0 512 512" xml:space="preserve" xmlns="http://www.w3.org/2000/svg" xmlns:xlink="http://www.w3.org/1999/xlink"><g id="Page-1"><g id="icon-132-cloud"><path d="M410.6,421.1H101.4C45.5,421.1,0,375.6,0,319.6c0-38,21.2-72.6,54.5-90c0-0.3,0-0.6,0-0.9    c0-76,61.8-137.8,137.8-137.8c46.4,0,89.6,23.5,115,61.8c12.6-4.8,25.8-7.3,39.6-7.3c25.5,0,50.4,8.9,70.1,25.1    c18,14.8,30.9,35,36.8,57.3c35.5,16.7,58.2,52.1,58.2,91.8C512,375.6,466.5,421.1,410.6,421.1z M192.4,112    C128,112,75.6,164.4,75.6,228.7c0,2.3,0.1,4.6,0.2,6.9c0.3,4.4-2.3,8.5-6.3,10.3c-29.4,12.8-48.4,41.7-48.4,73.8    c0,44.3,36,80.4,80.4,80.4h309.1c44.3,0,80.4-36.1,80.4-80.4c0-32.9-19.7-62.1-50.1-74.5c-3.3-1.3-5.6-4.2-6.4-7.6    c-8.6-41.1-45.4-71-87.5-71c-13.7,0-26.9,3-39.1,9c-5,2.4-11,0.6-13.8-4.3C273.3,134.7,234.3,112,192.4,112z" fill="#6A6E7C"/></g></g></svg>