<?xml version="1.0" ?><!DOCTYPE svg  PUBLIC '-//W3C//DTD SVG 1.1//EN'  'http://www.w3.org/Graphics/SVG/1.1/DTD/svg11.dtd'><svg enable-background="new 0 0 512 512" id="Layer_1" version="1.1" viewBox="0 0 512 512" xml:space="preserve" xmlns="http://www.w3.org/2000/svg" xmlns:xlink="http://www.w3.org/1999/xlink"><g><path d="M501.5,428.2H10.5c-5.8,0-10.5-4.7-10.5-10.5V94.3c0-5.8,4.7-10.5,10.5-10.5h490.9   c5.8,0,10.5,4.7,10.5,10.5v323.3C512,423.5,507.3,428.2,501.5,428.2z M21.1,407.1h469.8V104.9H21.1V407.1z" fill="#6A6E7C"/><path d="M256,266.5c-2,0-4-0.6-5.8-1.7L4.7,103.1c-4.9-3.2-6.2-9.7-3-14.6c3.2-4.9,9.7-6.2,14.6-3L256,243.4   L495.7,85.5c4.9-3.2,11.4-1.9,14.6,3c3.2,4.9,1.9,11.4-3,14.6L261.8,264.8C260,266,258,266.5,256,266.5z" fill="#6A6E7C"/><path d="M10.6,428.2c-2.9,0-5.9-1.2-8-3.6c-3.8-4.4-3.4-11.1,1-14.9l211.5-184.1c4.4-3.8,11.1-3.4,14.9,1   c3.8,4.4,3.4,11.1-1,14.9L17.5,425.6C15.5,427.4,13,428.2,10.6,428.2z" fill="#6A6E7C"/><path d="M501.4,428.2c-2.5,0-4.9-0.9-6.9-2.6L283.1,241.6c-4.4-3.8-4.9-10.5-1-14.9c3.8-4.4,10.5-4.9,14.9-1   l211.5,184.1c4.4,3.8,4.9,10.5,1,14.9C507.3,427,504.4,428.2,501.4,428.2z" fill="#6A6E7C"/></g></svg>