<?xml version="1.0" encoding="UTF-8" standalone="no"?>
<svg
   xmlns:dc="http://purl.org/dc/elements/1.1/"
   xmlns:cc="http://creativecommons.org/ns#"
   xmlns:rdf="http://www.w3.org/1999/02/22-rdf-syntax-ns#"
   xmlns:svg="http://www.w3.org/2000/svg"
   xmlns="http://www.w3.org/2000/svg"
   xmlns:sodipodi="http://sodipodi.sourceforge.net/DTD/sodipodi-0.dtd"
   xmlns:inkscape="http://www.inkscape.org/namespaces/inkscape"
   enable-background="new 0 0 512 512"
   id="Layer_1"
   version="1.1"
   viewBox="0 0 512 512"
   xml:space="preserve"
   sodipodi:docname="crossedeye.svg"
   inkscape:version="0.92.2 (5c3e80d, 2017-08-06)"
   inkscape:export-filename="C:\Inviwo\inviwo-dev\modules\animationqt\resources\icons\crossedeye_32.png"
   inkscape:export-xdpi="6.0002928"
   inkscape:export-ydpi="6.0002928"><metadata
     id="metadata3729"><rdf:RDF><cc:Work
         rdf:about=""><dc:format>image/svg+xml</dc:format><dc:type
           rdf:resource="http://purl.org/dc/dcmitype/StillImage" /></cc:Work></rdf:RDF></metadata><defs
     id="defs3727" /><sodipodi:namedview
     pagecolor="#ffffff"
     bordercolor="#666666"
     borderopacity="1"
     objecttolerance="10"
     gridtolerance="10"
     guidetolerance="10"
     inkscape:pageopacity="0"
     inkscape:pageshadow="2"
     inkscape:window-width="2400"
     inkscape:window-height="1271"
     id="namedview3725"
     showgrid="false"
     inkscape:zoom="1.9500333"
     inkscape:cx="144.23222"
     inkscape:cy="271.10942"
     inkscape:window-x="-9"
     inkscape:window-y="-9"
     inkscape:window-maximized="1"
     inkscape:current-layer="Layer_1" /><path
     style="fill:#6a6e7c"
     inkscape:connector-curvature="0"
     id="path3717"
     d="M 10.5,512 C 7.8,512 5.1,511 3,508.9 -1.1,504.8 -1.1,498.1 3,494 L 494,3.1 c 4.1,-4.1 10.8,-4.1 14.9,0 4.1,4.1 4.1,10.8 0,14.9 L 18,508.9 c -2.1,2.1 -4.8,3.1 -7.5,3.1 z" /><g
     id="XMLID_1_"><path
       d="M 264.30078 121.90039 C 116.20078 122.10039 7.5 242.80039 3 247.90039 C 2.6 248.30039 2.4992188 248.90078 2.1992188 249.30078 C 1.6992185 250.00078 1.3 250.70039 1 251.40039 C 0.7 252.10039 0.60039064 252.89961 0.40039062 253.59961 C 0.20039065 254.49961 -2.5905204e-016 255.2 0 256 C 0 256.8 0.20078125 257.50078 0.30078125 258.30078 C 0.40078125 259.10078 0.60039062 259.8 0.90039062 260.5 C 1.2003906 261.3 1.6996094 261.89961 2.0996094 262.59961 C 2.3996094 263.09961 2.6003906 263.6 2.9003906 264 C 6.2248613 267.76773 66.428215 334.67335 157.40625 369.45703 L 176.50195 350.36523 C 176.51222 350.36882 176.52293 350.37142 176.5332 350.375 L 176.58008 350.32812 C 103.20673 324.92879 48.35813 275.28508 29 256 C 55.5 229.6 148.4 146.29922 264.5 146.19922 L 264.69922 146.19922 C 297.47368 146.19922 329.54793 152.89137 360.77539 166.12891 L 379.36719 147.54102 C 342.35685 130.48683 304.06442 121.90039 264.69922 121.90039 L 264.30078 121.90039 z M 399.18555 157.54688 L 381.06836 175.66211 C 381.05278 175.65404 381.03707 175.64674 381.02148 175.63867 L 380.98047 175.67969 C 416.20149 194.02754 450.28112 220.86108 483 256 C 415.4 328.6 342.09922 365.80078 264.69922 365.80078 L 264.5 365.80078 C 241.79974 365.78122 219.98886 362.56199 199.37695 357.21875 L 199.26953 357.32617 C 199.30553 357.33562 199.34094 357.34604 199.37695 357.35547 L 179.63867 377.09375 C 205.88013 385.06768 234.27973 390.0591 264.30078 390.09961 L 264.69922 390.09961 C 352.19922 390.09961 434.4 347.69961 509 264.09961 C 509.4 263.69961 509.50078 263.09922 509.80078 262.69922 C 510.30078 261.99922 510.79961 261.3 511.09961 260.5 C 511.39961 259.8 511.49922 259.10078 511.69922 258.30078 C 511.89922 257.50078 512 256.8 512 256 C 512 255.2 511.79922 254.49922 511.69922 253.69922 C 511.59922 252.99922 511.39961 252.2 511.09961 251.5 C 510.79961 250.7 510.30078 250.00078 509.80078 249.30078 C 509.50078 248.80078 509.4 248.30039 509 247.90039 C 473.99012 208.6668 437.3054 178.50835 399.18555 157.54688 z "
       id="XMLID_12_"
       fill="#6a6e7c" /><path
       d="M 256 165.59961 C 206.1 165.59961 165.5 206.2 165.5 256 C 165.5 284.50219 178.74921 309.93266 199.4082 326.50586 L 199.64258 326.26953 C 199.60131 326.23651 199.55879 326.20496 199.51758 326.17188 L 216.63086 309.0625 C 200.42934 297.0137 189.90039 277.73112 189.90039 256 C 189.90039 219.8 219.09922 190.4 255.19922 190 C 241.09922 198.6 231.59961 213.89961 231.59961 231.59961 C 231.59961 248.57466 240.32625 263.55251 253.52148 272.29883 C 253.58239 272.19874 253.62895 272.11132 253.69141 272.00977 L 271.42578 254.2793 C 262.42169 250.70083 256 241.91208 256 231.59961 C 256 218.19961 266.90039 207.19922 280.40039 207.19922 C 299.55001 207.63814 303.94718 226.02383 303.27344 222.4375 L 326.43359 199.28125 C 309.82965 178.74542 284.42564 165.59961 256 165.59961 z M 253.52148 272.29883 C 253.5137 272.31163 253.50776 272.32316 253.5 272.33594 L 253.53125 272.30469 C 253.52809 272.30259 253.52464 272.30092 253.52148 272.29883 z M 337.93359 217.61523 L 276.57227 278.97656 L 276.60156 279.00391 L 275.47266 280.14062 C 277.0933 280.30809 278.7363 280.40039 280.40039 280.40039 C 298.10039 280.40039 313.4 270.89922 322 256.69922 C 321.6 292.79922 292.2 322.09961 256 322.09961 C 249.18643 322.09961 242.60727 321.06212 236.41406 319.13672 L 221.74219 333.80859 L 221.76953 333.83594 L 217.71875 337.9082 C 229.35244 343.35157 242.32507 346.40039 256 346.40039 C 305.9 346.40039 346.5 305.8 346.5 256 C 346.5 242.27726 343.42358 229.26936 337.93359 217.61523 z "
       id="XMLID_15_"
       fill="#6a6e7c" /></g></svg>