<?xml version="1.0" ?><!DOCTYPE svg  PUBLIC '-//W3C//DTD SVG 1.1//EN'  'http://www.w3.org/Graphics/SVG/1.1/DTD/svg11.dtd'><svg enable-background="new 0 0 512 512" id="Layer_1" version="1.1" viewBox="0 0 512 512" xml:space="preserve" xmlns="http://www.w3.org/2000/svg" xmlns:xlink="http://www.w3.org/1999/xlink"><g><path d="M403.2,348.7C403.2,348.7,403.2,348.7,403.2,348.7H108.8c-3.2,0-6.2-1.4-8.2-3.9c-2-2.5-2.8-5.7-2.1-8.8   l53.3-247.7c1-4.9,5.3-8.3,10.3-8.3h187.7c5,0,9.3,3.5,10.3,8.3l53.2,247c0.3,0.9,0.4,1.9,0.4,2.9C413.7,344,409,348.7,403.2,348.7   z M121.9,327.6h268.2l-48.8-226.6H170.7L121.9,327.6z" fill="#6A6E7C"/><path d="M349.9,101.1H162.2c-5.8,0-10.5-4.7-10.5-10.5v-80c0-5.8,4.7-10.5,10.5-10.5h187.7   c5.8,0,10.5,4.7,10.5,10.5v80C360.4,96.3,355.7,101.1,349.9,101.1z M172.7,80h166.6V21.1H172.7V80z" fill="#6A6E7C"/><path d="M387.1,274H124.9c-5.8,0-10.5-4.7-10.5-10.5c0-5.8,4.7-10.5,10.5-10.5h262.1c5.8,0,10.5,4.7,10.5,10.5   C397.6,269.2,392.9,274,387.1,274z" fill="#6A6E7C"/><path d="M256,512c-5.8,0-10.5-4.7-10.5-10.5V345.2c0-5.8,4.7-10.5,10.5-10.5c5.8,0,10.5,4.7,10.5,10.5v156.3   C266.5,507.3,261.8,512,256,512z" fill="#6A6E7C"/></g></svg>