<?xml version="1.0" ?><!DOCTYPE svg  PUBLIC '-//W3C//DTD SVG 1.1//EN'  'http://www.w3.org/Graphics/SVG/1.1/DTD/svg11.dtd'><svg enable-background="new 0 0 512 512" id="Layer_1" version="1.1" viewBox="0 0 512 512" xml:space="preserve" xmlns="http://www.w3.org/2000/svg" xmlns:xlink="http://www.w3.org/1999/xlink"><g><path d="M256,512c-68.4,0-132.7-26.6-181-75C26.6,388.7,0,324.4,0,256S26.6,123.3,75,75C123.3,26.6,187.6,0,256,0   s132.7,26.6,181,75c48.4,48.4,75,112.6,75,181s-26.6,132.7-75,181S324.4,512,256,512z M256,21.1c-62.7,0-121.7,24.4-166.1,68.8   c-91.6,91.6-91.6,240.6,0,332.2c44.4,44.4,103.4,68.8,166.1,68.8c62.7,0,121.7-24.4,166.1-68.8c91.6-91.6,91.6-240.6,0-332.2   C377.7,45.5,318.7,21.1,256,21.1z" fill="#6A6E7C"/><rect fill="#6A6E7C" height="21.1" transform="matrix(0.7071 0.7071 -0.7071 0.7071 256 -106.0387)" width="490.9" x="10.5" y="245.5"/></g></svg>