<?xml version="1.0" ?><!DOCTYPE svg  PUBLIC '-//W3C//DTD SVG 1.1//EN'  'http://www.w3.org/Graphics/SVG/1.1/DTD/svg11.dtd'><svg enable-background="new 0 0 512 512" id="Layer_1" version="1.1" viewBox="0 0 512 512" xml:space="preserve" xmlns="http://www.w3.org/2000/svg" xmlns:xlink="http://www.w3.org/1999/xlink"><g><path d="M391.3,477.2c-2.7,0-5.4-1-7.5-3.1L3.1,93.3C-1,89.2-1,82.5,3.1,78.4L78.4,3.1C82.5-1,89.2-1,93.3,3.1   l380.8,380.8c4.1,4.1,4.1,10.8,0,14.9l-75.3,75.3C396.7,476.2,394,477.2,391.3,477.2z M25.5,85.9l365.9,365.9l60.4-60.4L85.9,25.5   L25.5,85.9z" fill="#6A6E7C"/><path d="M501.5,512c-1.1,0-2.1-0.2-3.2-0.5l-110.1-34.8c-5.6-1.8-8.6-7.7-6.9-13.2c1.8-5.6,7.7-8.6,13.2-6.9   l90.8,28.7l-28.7-90.8c-1.8-5.6,1.3-11.5,6.9-13.2c5.6-1.8,11.5,1.3,13.2,6.9l34.8,110.1c1.2,3.8,0.2,7.9-2.6,10.6   C506.9,510.9,504.2,512,501.5,512z" fill="#6A6E7C"/><path d="M55,140.9c-2.7,0-5.4-1-7.5-3.1c-4.1-4.1-4.1-10.8,0-14.9l75.3-75.3c4.1-4.1,10.8-4.1,14.9,0   c4.1,4.1,4.1,10.8,0,14.9l-75.3,75.3C60.4,139.8,57.7,140.9,55,140.9z" fill="#6A6E7C"/></g></svg>