<?xml version="1.0" ?><!DOCTYPE svg  PUBLIC '-//W3C//DTD SVG 1.1//EN'  'http://www.w3.org/Graphics/SVG/1.1/DTD/svg11.dtd'><svg enable-background="new 0 0 512 512" id="Layer_1" version="1.1" viewBox="0 0 512 512" xml:space="preserve" xmlns="http://www.w3.org/2000/svg" xmlns:xlink="http://www.w3.org/1999/xlink"><g><path d="M202.7,405.5c-54.2,0-105.1-21.1-143.4-59.4c-79.1-79.1-79.1-207.7,0-286.8C97.7,21,148.6,0,202.7,0   C256.9,0,307.8,21,346.1,59.3c38.3,38.3,59.4,89.2,59.4,143.4c0,54.2-21.1,105.1-59.4,143.4C307.8,384.4,256.9,405.5,202.7,405.5z    M202.7,21.1c-48.5,0-94.2,18.9-128.5,53.2c-70.8,70.8-70.8,186.1,0,257c34.3,34.3,79.9,53.2,128.5,53.2   c48.5,0,94.2-18.9,128.5-53.2c34.3-34.3,53.2-79.9,53.2-128.5c0-48.5-18.9-94.2-53.2-128.5C296.9,39.9,251.3,21.1,202.7,21.1z" fill="#6A6E7C"/><path d="M501.5,512c-2.7,0-5.4-1-7.5-3.1L331.2,346.1c-4.1-4.1-4.1-10.8,0-14.9c4.1-4.1,10.8-4.1,14.9,0L509,494   c4.1,4.1,4.1,10.8,0,14.9C506.9,511,504.2,512,501.5,512z" fill="#6A6E7C"/></g></svg>