<?xml version="1.0" ?><!DOCTYPE svg  PUBLIC '-//W3C//DTD SVG 1.1//EN'  'http://www.w3.org/Graphics/SVG/1.1/DTD/svg11.dtd'><svg enable-background="new 0 0 512 512" id="Layer_1" version="1.1" viewBox="0 0 512 512" xml:space="preserve" xmlns="http://www.w3.org/2000/svg" xmlns:xlink="http://www.w3.org/1999/xlink"><g><path d="M256.1,382.7c-107.3,0-194.5-87.3-194.5-194.5c0-5.8,4.7-10.5,10.5-10.5s10.5,4.7,10.5,10.5   c0,95.6,77.8,173.4,173.4,173.4c95.6,0,173.4-77.8,173.4-173.4c0-5.8,4.7-10.5,10.5-10.5c5.8,0,10.5,4.7,10.5,10.5   C450.6,295.4,363.4,382.7,256.1,382.7z" fill="#6A6E7C"/><path d="M501.4,237.5c-2.3,0-4.5-0.7-6.5-2.2l-112-87.1c-4.6-3.6-5.4-10.2-1.9-14.8c3.6-4.6,10.2-5.4,14.8-1.9   l112,87.1c4.6,3.6,5.4,10.2,1.9,14.8C507.7,236.1,504.6,237.5,501.4,237.5z" fill="#6A6E7C"/><path d="M10.6,237.5c-3.1,0-6.3-1.4-8.3-4.1c-3.6-4.6-2.7-11.2,1.9-14.8l112-87.1c4.6-3.6,11.2-2.7,14.8,1.9   c3.6,4.6,2.7,11.2-1.9,14.8L17,235.3C15.1,236.8,12.8,237.5,10.6,237.5z" fill="#6A6E7C"/></g></svg>