<?xml version="1.0" ?><!DOCTYPE svg  PUBLIC '-//W3C//DTD SVG 1.1//EN'  'http://www.w3.org/Graphics/SVG/1.1/DTD/svg11.dtd'><svg enable-background="new 0 0 512 512" id="Layer_1" version="1.1" viewBox="0 0 512 512" xml:space="preserve" xmlns="http://www.w3.org/2000/svg" xmlns:xlink="http://www.w3.org/1999/xlink"><g><path d="M114.8,368.1H32.1c-5.8,0-10.5-4.7-10.5-10.5V154.4c0-5.8,4.7-10.5,10.5-10.5h82.7   c5.8,0,10.5,4.7,10.5,10.5v203.2C125.4,363.4,120.7,368.1,114.8,368.1z M42.7,347.1h61.6V165H42.7V347.1z" fill="#6A6E7C"/><path d="M303.7,512c-2.3,0-4.5-0.7-6.4-2.2L108.4,366c-2.6-2-4.2-5.1-4.2-8.4V154.4c0-3.3,1.5-6.4,4.2-8.4   L297.3,2.2c3.2-2.4,7.5-2.8,11.1-1.1c3.6,1.8,5.9,5.4,5.9,9.5v490.9c0,4-2.3,7.7-5.9,9.5C306.8,511.6,305.2,512,303.7,512z    M125.4,352.4l167.7,127.8V31.8L125.4,159.6V352.4z" fill="#6A6E7C"/><path d="M393.6,334.9c-5.8,0-10.5-4.7-10.5-10.5V187.7c0-5.8,4.7-10.5,10.5-10.5c5.8,0,10.5,4.7,10.5,10.5v136.7   C404.1,330.2,399.4,334.9,393.6,334.9z" fill="#6A6E7C"/><path d="M479.9,392.4c-5.8,0-10.5-4.7-10.5-10.5V130.1c0-5.8,4.7-10.5,10.5-10.5c5.8,0,10.5,4.7,10.5,10.5v251.7   C490.4,387.7,485.7,392.4,479.9,392.4z" fill="#6A6E7C"/></g></svg>