<?xml version="1.0" ?><!DOCTYPE svg  PUBLIC '-//W3C//DTD SVG 1.1//EN'  'http://www.w3.org/Graphics/SVG/1.1/DTD/svg11.dtd'><svg enable-background="new 0 0 512 512" id="Layer_1" version="1.1" viewBox="0 0 512 512" xml:space="preserve" xmlns="http://www.w3.org/2000/svg" xmlns:xlink="http://www.w3.org/1999/xlink"><g><path d="M403.3,360H110.1c-5.8,0-10.5-4.7-10.5-10.5V155.8c0-5.8,4.7-10.5,10.5-10.5h293.2   c5.8,0,10.5,4.7,10.5,10.5v193.6C413.8,355.2,409.1,360,403.3,360z M120.6,338.9h272.1V166.3H120.6V338.9z" fill="#6A6E7C"/><path d="M10.5,170.4c-5.8,0-10.5-4.7-10.5-10.5V60.3c0-5.8,4.7-10.5,10.5-10.5h96.8c5.8,0,10.5,4.7,10.5,10.5   s-4.7,10.5-10.5,10.5H21.1v89C21.1,165.7,16.4,170.4,10.5,170.4z" fill="#6A6E7C"/><path d="M110.1,462.2H10.5c-5.8,0-10.5-4.7-10.5-10.5v-98.2c0-5.8,4.7-10.5,10.5-10.5s10.5,4.7,10.5,10.5v87.6h89   c5.8,0,10.5,4.7,10.5,10.5C120.6,457.5,115.9,462.2,110.1,462.2z" fill="#6A6E7C"/><path d="M501.5,462.2H406c-5.8,0-10.5-4.7-10.5-10.5c0-5.8,4.7-10.5,10.5-10.5h84.9v-87.6c0-5.8,4.7-10.5,10.5-10.5   c5.8,0,10.5,4.7,10.5,10.5v98.2C512,457.5,507.3,462.2,501.5,462.2z" fill="#6A6E7C"/><path d="M501.5,167.7c-5.8,0-10.5-4.7-10.5-10.5V70.9h-87.6c-5.8,0-10.5-4.7-10.5-10.5s4.7-10.5,10.5-10.5h98.2   c5.8,0,10.5,4.7,10.5,10.5v96.8C512,163,507.3,167.7,501.5,167.7z" fill="#6A6E7C"/></g></svg>