<?xml version="1.0" ?><!DOCTYPE svg  PUBLIC '-//W3C//DTD SVG 1.1//EN'  'http://www.w3.org/Graphics/SVG/1.1/DTD/svg11.dtd'><svg enable-background="new 0 0 512 512" id="Layer_1" version="1.1" viewBox="0 0 512 512" xml:space="preserve" xmlns="http://www.w3.org/2000/svg" xmlns:xlink="http://www.w3.org/1999/xlink"><g><path d="M256,137.7c65.2,0,118.3,53.1,118.3,118.3S321.2,374.3,256,374.3c-65.2,0-118.3-53.1-118.3-118.3   S190.8,137.7,256,137.7 M256,116.6c-76.9,0-139.4,62.5-139.4,139.4S179.2,395.4,256,395.4c76.8,0,139.4-62.5,139.4-139.4   S332.8,116.6,256,116.6L256,116.6z" fill="#6A6E7C"/><path d="M256,83c-5.8,0-10.5-4.7-10.5-10.5V10.5C245.5,4.7,250.2,0,256,0c5.8,0,10.5,4.7,10.5,10.5v61.9   C266.5,78.3,261.8,83,256,83z" fill="#6A6E7C"/><path d="M256,512c-5.8,0-10.5-4.7-10.5-10.5v-61.9c0-5.8,4.7-10.5,10.5-10.5c5.8,0,10.5,4.7,10.5,10.5v61.9   C266.5,507.3,261.8,512,256,512z" fill="#6A6E7C"/><path d="M72.4,266.5H10.5C4.7,266.5,0,261.8,0,256c0-5.8,4.7-10.5,10.5-10.5h61.9c5.8,0,10.5,4.7,10.5,10.5   C83,261.8,78.3,266.5,72.4,266.5z" fill="#6A6E7C"/><path d="M501.5,266.5h-61.9c-5.8,0-10.5-4.7-10.5-10.5c0-5.8,4.7-10.5,10.5-10.5h61.9c5.8,0,10.5,4.7,10.5,10.5   C512,261.8,507.3,266.5,501.5,266.5z" fill="#6A6E7C"/><path d="M82.4,440.1c-2.7,0-5.4-1-7.5-3.1c-4.1-4.1-4.1-10.8,0-14.9l43.8-43.8c4.1-4.1,10.8-4.1,14.9,0   c4.1,4.1,4.1,10.8,0,14.9L89.9,437C87.8,439.1,85.1,440.1,82.4,440.1z" fill="#6A6E7C"/><path d="M385.8,136.7c-2.7,0-5.4-1-7.5-3.1c-4.1-4.1-4.1-10.8,0-14.9L422.1,75c4.1-4.1,10.8-4.1,14.9,0   c4.1,4.1,4.1,10.8,0,14.9l-43.8,43.8C391.2,135.7,388.5,136.7,385.8,136.7z" fill="#6A6E7C"/><path d="M429.6,440.1c-2.7,0-5.4-1-7.5-3.1l-43.8-43.8c-4.1-4.1-4.1-10.8,0-14.9c4.1-4.1,10.8-4.1,14.9,0l43.8,43.8   c4.1,4.1,4.1,10.8,0,14.9C435,439.1,432.3,440.1,429.6,440.1z" fill="#6A6E7C"/><path d="M126.2,136.7c-2.7,0-5.4-1-7.5-3.1L75,89.9c-4.1-4.1-4.1-10.8,0-14.9c4.1-4.1,10.8-4.1,14.9,0l43.8,43.8   c4.1,4.1,4.1,10.8,0,14.9C131.6,135.7,128.9,136.7,126.2,136.7z" fill="#6A6E7C"/></g></svg>