<?xml version="1.0" ?><!DOCTYPE svg  PUBLIC '-//W3C//DTD SVG 1.1//EN'  'http://www.w3.org/Graphics/SVG/1.1/DTD/svg11.dtd'><svg enable-background="new 0 0 512 512" id="Layer_1" version="1.1" viewBox="0 0 512 512" xml:space="preserve" xmlns="http://www.w3.org/2000/svg" xmlns:xlink="http://www.w3.org/1999/xlink"><g><path d="M477.3,512H34.7c-6.7,0-12.2-5.5-12.2-12.2V209.4c0-6.7,5.5-12.2,12.2-12.2h442.6c6.7,0,12.2,5.5,12.2,12.2   v290.4C489.5,506.5,484,512,477.3,512z M46.9,487.6h418.2v-266H46.9V487.6z" fill="#6A6E7C"/><path d="M69.6,210.7c-6.7,0-12.2-5.5-12.2-12.2C57.5,89.1,146.5,0,256,0c69.7,0,133.1,35.5,169.5,95.1   c3.5,5.7,1.7,13.2-4,16.8c-5.7,3.5-13.3,1.7-16.8-4c-32-52.2-87.5-83.4-148.7-83.4c-96,0-174.2,78.1-174.2,174.2   C81.8,205.3,76.4,210.7,69.6,210.7z" fill="#6A6E7C"/><path d="M256,437.5c-6.7,0-12.2-5.5-12.2-12.2v-61.3c0-6.7,5.5-12.2,12.2-12.2s12.2,5.5,12.2,12.2v61.3   C268.2,432,262.7,437.5,256,437.5z" fill="#6A6E7C"/><path d="M256,370.7c-27.3,0-49.5-22.2-49.5-49.5s22.2-49.5,49.5-49.5s49.5,22.2,49.5,49.5S283.3,370.7,256,370.7z    M256,296.1c-13.8,0-25.1,11.3-25.1,25.1c0,13.8,11.3,25.1,25.1,25.1c13.8,0,25.1-11.3,25.1-25.1   C281.1,307.4,269.8,296.1,256,296.1z" fill="#6A6E7C"/></g></svg>