<?xml version="1.0" ?><!DOCTYPE svg  PUBLIC '-//W3C//DTD SVG 1.1//EN'  'http://www.w3.org/Graphics/SVG/1.1/DTD/svg11.dtd'><svg enable-background="new 0 0 512 512" id="Layer_1" version="1.1" viewBox="0 0 512 512" xml:space="preserve" xmlns="http://www.w3.org/2000/svg" xmlns:xlink="http://www.w3.org/1999/xlink"><g><path d="M94.6,169.4H10.5c-5.8,0-10.5-4.7-10.5-10.5c0-5.8,4.7-10.5,10.5-10.5h73.5V71.2c0-5.8,4.7-10.5,10.5-10.5   s10.5,4.7,10.5,10.5v87.7C105.2,164.7,100.4,169.4,94.6,169.4z" fill="#6A6E7C"/><path d="M96.4,451.3c-5.8,0-10.5-4.7-10.5-10.5v-71.7H10.5c-5.8,0-10.5-4.7-10.5-10.5c0-5.8,4.7-10.5,10.5-10.5   h85.9c5.8,0,10.5,4.7,10.5,10.5v82.2C107,446.6,102.2,451.3,96.4,451.3z" fill="#6A6E7C"/><path d="M424.6,451.3c-5.8,0-10.5-4.7-10.5-10.5v-82.2c0-5.8,4.7-10.5,10.5-10.5h76.8c5.8,0,10.5,4.7,10.5,10.5   c0,5.8-4.7,10.5-10.5,10.5h-66.3v71.7C435.2,446.6,430.5,451.3,424.6,451.3z" fill="#6A6E7C"/><path d="M501.5,169.4h-76.8c-5.8,0-10.5-4.7-10.5-10.5V71.2c0-5.8,4.7-10.5,10.5-10.5c5.8,0,10.5,4.7,10.5,10.5   v77.1h66.3c5.8,0,10.5,4.7,10.5,10.5C512,164.7,507.3,169.4,501.5,169.4z" fill="#6A6E7C"/></g></svg>