<?xml version="1.0" ?><!DOCTYPE svg  PUBLIC '-//W3C//DTD SVG 1.1//EN'  'http://www.w3.org/Graphics/SVG/1.1/DTD/svg11.dtd'><svg enable-background="new 0 0 512 512" id="Layer_1" version="1.1" viewBox="0 0 512 512" xml:space="preserve" xmlns="http://www.w3.org/2000/svg" xmlns:xlink="http://www.w3.org/1999/xlink"><g><g><path d="M307.7,512c-2.7,0-5.3-1-7.3-3l-254-245.5c-2.1-2-3.2-4.7-3.2-7.6c0-2.9,1.2-5.6,3.2-7.6L300.3,3    c3-2.9,7.6-3.8,11.4-2.1c3.9,1.7,6.4,5.5,6.4,9.7v490.9c0,4.2-2.5,8.1-6.4,9.7C310.5,511.7,309.1,512,307.7,512z M68.8,256    l228.3,220.6V35.4L68.8,256z" fill="#6A6E7C"/></g><path d="M458.3,512c-5.8,0-10.5-4.7-10.5-10.5V10.5c0-5.8,4.7-10.5,10.5-10.5c5.8,0,10.5,4.7,10.5,10.5v490.9   C468.9,507.3,464.2,512,458.3,512z" fill="#6A6E7C"/></g></svg>