<?xml version="1.0" ?><!DOCTYPE svg  PUBLIC '-//W3C//DTD SVG 1.1//EN'  'http://www.w3.org/Graphics/SVG/1.1/DTD/svg11.dtd'><svg enable-background="new 0 0 512 512" id="Layer_1" version="1.1" viewBox="0 0 512 512" xml:space="preserve" xmlns="http://www.w3.org/2000/svg" xmlns:xlink="http://www.w3.org/1999/xlink"><g><path d="M256,326.2c-41,0-74.4-33.4-74.4-74.4V74.4C181.6,33.4,215,0,256,0s74.4,33.4,74.4,74.4v177.4   C330.4,292.8,297,326.2,256,326.2z M256,21.1c-29.4,0-53.3,23.9-53.3,53.3v177.4c0,29.4,23.9,53.3,53.3,53.3   c29.4,0,53.3-23.9,53.3-53.3V74.4C309.3,45,285.4,21.1,256,21.1z" fill="#6A6E7C"/><path d="M256,390c-78.9,0-143.1-64.2-143.1-143.1c0-5.8,4.7-10.5,10.5-10.5c5.8,0,10.5,4.7,10.5,10.5   c0,67.3,54.7,122,122,122s122-54.7,122-122c0-5.8,4.7-10.5,10.5-10.5c5.8,0,10.5,4.7,10.5,10.5C399.1,325.8,334.9,390,256,390z" fill="#6A6E7C"/><path d="M256,512c-5.8,0-10.5-4.7-10.5-10.5v-122c0-5.8,4.7-10.5,10.5-10.5c5.8,0,10.5,4.7,10.5,10.5v122   C266.5,507.3,261.8,512,256,512z" fill="#6A6E7C"/><path d="M326.9,512H185.1c-5.8,0-10.5-4.7-10.5-10.5c0-5.8,4.7-10.5,10.5-10.5h141.7c5.8,0,10.5,4.7,10.5,10.5   C337.4,507.3,332.7,512,326.9,512z" fill="#6A6E7C"/><path d="M151.7,219.6c-4.1,0-7.9-2.3-9.7-6.3c-2.4-5.3,0.1-11.6,5.4-13.9l208.6-92c5.3-2.4,11.6,0.1,13.9,5.4   c2.4,5.3-0.1,11.6-5.4,13.9l-208.6,92C154.6,219.4,153.1,219.6,151.7,219.6z" fill="#6A6E7C"/></g></svg>