<?xml version="1.0" ?><!DOCTYPE svg  PUBLIC '-//W3C//DTD SVG 1.1//EN'  'http://www.w3.org/Graphics/SVG/1.1/DTD/svg11.dtd'><svg enable-background="new 0 0 512 512" id="Layer_1" version="1.1" viewBox="0 0 512 512" xml:space="preserve" xmlns="http://www.w3.org/2000/svg" xmlns:xlink="http://www.w3.org/1999/xlink"><g><path d="M85.6,510c-5.8,0-10.5-4.7-10.5-10.5V12.6C75.1,6.8,79.8,2,85.6,2c5.8,0,10.5,4.7,10.5,10.5v486.8   C96.1,505.3,91.4,510,85.6,510z" fill="#6A6E7C"/><path d="M256,510c-5.8,0-10.5-4.7-10.5-10.5V12.6C245.5,6.8,250.2,2,256,2c5.8,0,10.5,4.7,10.5,10.5v486.8   C266.5,505.3,261.8,510,256,510z" fill="#6A6E7C"/><path d="M426.4,510c-5.8,0-10.5-4.7-10.5-10.5V12.6c0-5.8,4.7-10.5,10.5-10.5s10.5,4.7,10.5,10.5v486.8   C436.9,505.3,432.2,510,426.4,510z" fill="#6A6E7C"/><path d="M160.7,108.3H10.5C4.7,108.3,0,103.6,0,97.8s4.7-10.5,10.5-10.5h150.1c5.8,0,10.5,4.7,10.5,10.5   S166.5,108.3,160.7,108.3z" fill="#6A6E7C"/><path d="M331.1,303.1H180.9c-5.8,0-10.5-4.7-10.5-10.5c0-5.8,4.7-10.5,10.5-10.5h150.1c5.8,0,10.5,4.7,10.5,10.5   C341.6,298.3,336.9,303.1,331.1,303.1z" fill="#6A6E7C"/><path d="M501.5,230H351.3c-5.8,0-10.5-4.7-10.5-10.5s4.7-10.5,10.5-10.5h150.1c5.8,0,10.5,4.7,10.5,10.5   S507.3,230,501.5,230z" fill="#6A6E7C"/></g></svg>