<?xml version="1.0" ?><!DOCTYPE svg  PUBLIC '-//W3C//DTD SVG 1.1//EN'  'http://www.w3.org/Graphics/SVG/1.1/DTD/svg11.dtd'><svg enable-background="new 0 0 512 512" id="Layer_1" version="1.1" viewBox="0 0 512 512" xml:space="preserve" xmlns="http://www.w3.org/2000/svg" xmlns:xlink="http://www.w3.org/1999/xlink"><g><path d="M256,512c-64,0-124.2-24.9-169.4-70.2S16.4,336.4,16.4,272.4c0-64,24.9-124.2,70.2-169.4   c4.1-4.1,10.8-4.1,14.9,0c4.1,4.1,4.1,10.8,0,14.9c-41.3,41.3-64,96.2-64,154.5s22.7,113.3,64,154.5c41.3,41.3,96.2,64,154.5,64   c58.4,0,113.3-22.7,154.5-64c41.3-41.3,64-96.2,64-154.5s-22.7-113.3-64-154.5c-4.1-4.1-4.1-10.8,0-14.9c4.1-4.1,10.8-4.1,14.9,0   c45.3,45.3,70.2,105.4,70.2,169.4c0,64-24.9,124.2-70.2,169.4S320,512,256,512z" fill="#6A6E7C"/><path d="M256,233c-5.8,0-10.5-4.7-10.5-10.5V10.5C245.5,4.7,250.2,0,256,0c5.8,0,10.5,4.7,10.5,10.5v211.9   C266.5,228.3,261.8,233,256,233z" fill="#6A6E7C"/></g></svg>