<?xml version="1.0" encoding="UTF-8"?>
<svg width="168pt" height="104pt" version="1.2" viewBox="0 0 168 104" xmlns="http://www.w3.org/2000/svg" xmlns:cc="http://creativecommons.org/ns#" xmlns:dc="http://purl.org/dc/elements/1.1/" xmlns:rdf="http://www.w3.org/1999/02/22-rdf-syntax-ns#" xmlns:xlink="http://www.w3.org/1999/xlink">
 <defs></defs>
 <g>
  <path d="m67.746 23.883c0 0.28516-0.03516 0.53516-0.10547 0.75-0.07031 0.21094-0.16797 0.39453-0.29297 0.55078-0.12109 0.15625-0.26562 0.28125-0.42578 0.375-0.16406 0.09375-0.33203 0.16797-0.50781 0.21484v0.02344c0.21484 0.03906 0.41406 0.11328 0.60156 0.22656 0.1875 0.10938 0.34766 0.25 0.48828 0.41406 0.13672 0.16797 0.25 0.36328 0.33203 0.58984 0.08594 0.22656 0.125 0.47656 0.125 0.74609 0 0.32422-0.05469 0.62109-0.16406 0.89062-0.11328 0.26953-0.28516 0.50391-0.51953 0.70312s-0.53125 0.35156-0.88672 0.46484c-0.35938 0.10937-0.78125 0.16797-1.2734 0.16797h-1.6797v-8.2148h1.5859c0.48438 0 0.89844 0.05078 1.2422 0.14844 0.34375 0.10156 0.62891 0.24219 0.85156 0.42578 0.22266 0.17969 0.38281 0.40234 0.48047 0.66016 0.09766 0.25781 0.14844 0.54297 0.14844 0.86328m-1.0469 0.03516c0-0.38281-0.13281-0.69531-0.40234-0.94141-0.27344-0.2461-0.69531-0.36719-1.2734-0.36719h-0.55078v2.832h0.53906c0.55469 0 0.97266-0.13672 1.2578-0.40625 0.28906-0.26953 0.42969-0.64063 0.42969-1.1172m0.15625 3.7812c0-0.44141-0.14453-0.79297-0.43359-1.0508-0.28906-0.25781-0.70703-0.38672-1.2461-0.38672h-0.70312v2.8789h0.64453c0.60938 0 1.0547-0.12109 1.3281-0.36328s0.41016-0.60156 0.41016-1.0781m6.3789 2.3008h-0.88281v-0.64453h-0.02344c-0.02344 0.04687-0.07422 0.11719-0.15234 0.20703-0.08203 0.08984-0.18359 0.17969-0.30468 0.26172-0.125 0.08203-0.27344 0.15625-0.44531 0.22266-0.17578 0.0625-0.37109 0.09375-0.58594 0.09375-0.25391 0-0.48047-0.03906-0.68359-0.11328-0.20312-0.07422-0.375-0.19531-0.51562-0.36328-0.14453-0.16406-0.25391-0.38281-0.32813-0.64844-0.07812-0.26562-0.11328-0.59375-0.11328-0.98047v-3.75h0.96484v3.6797c0 0.47266 0.07422 0.8125 0.23047 1.0156 0.15625 0.20312 0.39453 0.30469 0.71875 0.30469 0.27734 0 0.51172-0.07031 0.70312-0.21094 0.19141-0.13672 0.33984-0.27344 0.45312-0.41016v-4.3789h0.96484m4.5898 5.7148v-3.6797c0-0.48438-0.07813-0.83203-0.24219-1.043-0.16016-0.20703-0.41016-0.3125-0.74219-0.3125-0.28516 0-0.52344 0.07031-0.71484 0.21484-0.19141 0.14062-0.34375 0.28125-0.45312 0.41406v4.4062h-0.96094v-5.7148h0.87891v0.64453h0.02344c0.02344-0.04687 0.07422-0.11719 0.15625-0.21094 0.07813-0.08984 0.17969-0.17578 0.30859-0.26172 0.125-0.08203 0.27734-0.15625 0.44922-0.21875 0.17578-0.0625 0.375-0.09375 0.59766-0.09375 0.25391 0 0.48438 0.03516 0.6875 0.11328 0.20703 0.07422 0.38281 0.19531 0.52734 0.35938 0.14062 0.16797 0.25391 0.38672 0.33203 0.64844 0.07812 0.26562 0.11719 0.59375 0.11719 0.98438v3.75m1.1797-2.7734c0-0.58203 0.07422-1.0664 0.22656-1.4531 0.14844-0.39062 0.34375-0.70312 0.58203-0.94141 0.23828-0.23828 0.50781-0.40625 0.80859-0.50391 0.30078-0.10156 0.60547-0.14844 0.90625-0.14844 0.18359 0 0.33984 0.01172 0.47656 0.03906 0.13281 0.03125 0.24609 0.0625 0.33203 0.10156v-2.7344l0.96484-0.10938v8.5234h-0.88281v-0.60938h-0.02344c-0.02344 0.04687-0.06641 0.11328-0.12891 0.19531-0.06641 0.08594-0.15234 0.16797-0.26172 0.25-0.11328 0.08594-0.25 0.15625-0.41797 0.21484-0.16797 0.05859-0.35938 0.08984-0.58203 0.08984-0.26953 0-0.52734-0.05469-0.76953-0.16016-0.24219-0.10547-0.45312-0.27734-0.63672-0.51172-0.17969-0.23438-0.32812-0.53516-0.43359-0.90625-0.10547-0.36719-0.16016-0.8125-0.16016-1.3359m2.2617 2.0586c0.14844 0 0.28516-0.01953 0.40234-0.0625 0.12109-0.03906 0.22266-0.08594 0.30859-0.14844 0.08984-0.05859 0.16406-0.12109 0.22266-0.18359 0.05859-0.0625 0.10547-0.11719 0.13672-0.16797v-3.5195c-0.08594-0.05859-0.1875-0.10547-0.30469-0.14453-0.11328-0.03906-0.25781-0.05859-0.43359-0.05859-0.22266 0-0.42969 0.03516-0.625 0.11328-0.19531 0.07422-0.36328 0.19922-0.50391 0.375-0.14453 0.17188-0.25781 0.39844-0.33984 0.67969-0.08203 0.27734-0.125 0.61719-0.125 1.0195 0 0.39844 0.03516 0.73047 0.10156 0.99609 0.06641 0.26562 0.16016 0.48047 0.27734 0.64062 0.12109 0.16406 0.25391 0.28125 0.40625 0.35156 0.14844 0.07422 0.30859 0.10938 0.47656 0.10938m7.1758-3.0703c0 0.24609-8e-3 0.45703-0.0234 0.63672-0.0195 0.17578-0.0352 0.33203-0.0469 0.46875h-2.918c0.0312 0.67188 0.17578 1.168 0.4336 1.4883 0.25781 0.31641 0.6289 0.47656 1.1133 0.47656 0.16797 0 0.3164-0.01953 0.45312-0.0625 0.13281-0.03906 0.25-0.08594 0.35156-0.14063 0.0977-0.05469 0.17969-0.11328 0.25-0.16797 0.0664-0.05469 0.11719-0.09766 0.14844-0.12891l0.35547 0.67578c-0.0391 0.04297-0.0977 0.09766-0.17969 0.17578-0.0781 0.07422-0.18359 0.14844-0.32031 0.22266-0.13281 0.07813-0.30078 0.14453-0.5 0.19922-0.19922 0.05469-0.42969 0.08203-0.70312 0.08203-0.35547 0-0.67969-0.05859-0.96875-0.17969-0.28907-0.11719-0.53516-0.30469-0.73829-0.55469-0.20312-0.24609-0.35546-0.56641-0.46875-0.94922-0.11328-0.38672-0.16796-0.84766-0.16796-1.3867 0-0.50781 0.0586-0.94531 0.17578-1.3164 0.11328-0.36719 0.26953-0.67188 0.46875-0.91016s0.42968-0.41406 0.6914-0.52734c0.26172-0.11719 0.54297-0.17188 0.84375-0.17188 0.54688 0 0.97657 0.17188 1.2852 0.51563s0.46484 0.86328 0.46484 1.5547m-1.8086-1.2852c-0.34375 0-0.61719 0.14062-0.82422 0.42578-0.20312 0.28516-0.32422 0.69922-0.35547 1.2383h2.082c8e-3 -0.03906 0.0156-0.09766 0.0195-0.17188 4e-3 -0.07422 4e-3 -0.15625 4e-3 -0.24219 0-0.39844-0.0781-0.70703-0.23828-0.92578-0.15625-0.21875-0.38672-0.32422-0.6875-0.32422m5.5547 0.51172c-0.0625-0.07422-0.17578-0.17188-0.34375-0.29297-0.16797-0.125-0.38282-0.18359-0.65625-0.18359-0.25391 0-0.44532 0.05859-0.58203 0.17578-0.13282 0.12109-0.20313 0.26172-0.20313 0.42969 0 0.21484 0.0625 0.39062 0.1875 0.53125 0.12109 0.13672 0.30859 0.28516 0.5625 0.44531l0.35938 0.21484c0.38671 0.23047 0.6914 0.47656 0.91406 0.74219 0.22265 0.26562 0.33594 0.60937 0.33594 1.0312 0 0.44922-0.16016 0.83203-0.47266 1.1406-0.3125 0.30859-0.76172 0.46484-1.3516 0.46484-0.22657 0-0.42969-0.02344-0.60547-0.07031-0.17578-0.05078-0.32813-0.10547-0.45703-0.16797-0.13282-0.0625-0.24219-0.13281-0.32813-0.20703-0.0859-0.07813-0.16015-0.14453-0.21484-0.21094l0.46484-0.76172c0.0469 0.05078 0.10547 0.10547 0.17188 0.16797 0.0703 0.0625 0.14843 0.125 0.24609 0.18359 0.0937 0.0625 0.19922 0.10938 0.32031 0.14844 0.11719 0.04297 0.25782 0.0625 0.41407 0.0625 0.28515 0 0.50781-0.06641 0.65625-0.19141 0.15234-0.12891 0.22656-0.28125 0.22656-0.46484 0-0.13672-0.0195-0.25-0.0547-0.35156-0.0352-0.09766-0.0898-0.1875-0.16016-0.26562-0.0703-0.08203-0.15625-0.15625-0.26171-0.22656-0.10157-0.07031-0.22266-0.15234-0.35547-0.23828l-0.35938-0.22656c-0.35547-0.23047-0.63672-0.47266-0.83594-0.72656-0.20312-0.25391-0.30468-0.57812-0.30468-0.97656 0-0.21484 0.043-0.41016 0.125-0.58984 0.082-0.17578 0.19922-0.33203 0.35156-0.46094 0.14844-0.13281 0.32422-0.23438 0.52734-0.30859 0.20313-0.07813 0.41797-0.11328 0.64844-0.11328 0.22266 0 0.41406 0.01953 0.57031 0.0625 0.16016 0.04688 0.29688 0.10156 0.41407 0.16797 0.11328 0.06641 0.20703 0.13672 0.28515 0.20312 0.0742 0.06641 0.13672 0.125 0.1836 0.17188m4.2852 5.25v-3.6797c0-0.46875-0.0703-0.80469-0.20312-1.0117-0.13672-0.20703-0.35157-0.30859-0.65625-0.30859-0.15625 0-0.29688 0.01953-0.42188 0.05859-0.12109 0.03906-0.23047 0.08984-0.32812 0.14844-0.0937 0.05859-0.17578 0.125-0.25 0.19531-0.0703 0.07422-0.12891 0.13672-0.17578 0.19141v4.4062h-0.96485v-5.7148h0.87891v0.64453h0.0273c0.0391-0.06641 0.0977-0.14453 0.17578-0.23438 0.0781-0.08984 0.17969-0.17578 0.29688-0.26172 0.12109-0.08203 0.25781-0.15234 0.41797-0.20703 0.16015-0.05469 0.33593-0.08203 0.53515-0.08203 0.65235 0 1.1094 0.25391 1.3789 0.75781 0.0547-0.07813 0.13281-0.16406 0.22656-0.25391 0.0977-0.08984 0.20703-0.17578 0.33594-0.25 0.125-0.07422 0.26953-0.13672 0.42578-0.18359 0.16016-0.04687 0.33594-0.07031 0.52344-0.07031 1.1602 0 1.7383 0.67188 1.7383 2.0234v3.832h-0.96484v-3.6797c0-0.46875-0.082-0.80469-0.25-1.0117-0.16407-0.20703-0.41016-0.30859-0.73829-0.30859-0.26953 0-0.49218 0.06641-0.67187 0.19531-0.17578 0.13281-0.32031 0.25781-0.42188 0.375 0.0156 0.08594 0.0273 0.17969 0.0352 0.28125 8e-3 0.09766 0.0117 0.20312 0.0117 0.31641v3.832m5.4023 0h-0.96093v-5.7148h0.96093zm-0.47656-7.0938c-0.19531 0-0.35547-0.0625-0.47266-0.19141-0.12109-0.125-0.17968-0.29297-0.17968-0.5 0-0.19922 0.0586-0.35938 0.17968-0.48828 0.11719-0.125 0.27735-0.19141 0.47266-0.19141 0.19141 0 0.34766 0.06641 0.46875 0.19141 0.11719 0.12891 0.17578 0.28906 0.17578 0.48828 0 0.20703-0.0586 0.375-0.17578 0.5-0.12109 0.12891-0.27734 0.19141-0.46875 0.19141m5.0703 7.0938v-3.6797c0-0.48438-0.0781-0.83203-0.24218-1.043-0.16407-0.20703-0.41016-0.3125-0.7461-0.3125-0.28515 0-0.51953 0.07031-0.71094 0.21484-0.1914 0.14062-0.34375 0.28125-0.45312 0.41406v4.4062h-0.96484v-5.7148h0.88281v0.64453h0.0234c0.0234-0.04687 0.0742-0.11719 0.15234-0.21094 0.082-0.08984 0.18359-0.17578 0.3125-0.26172 0.125-0.08203 0.27734-0.15625 0.44922-0.21875 0.17578-0.0625 0.375-0.09375 0.59765-0.09375 0.25391 0 0.48438 0.03516 0.6875 0.11328 0.20704 0.07422 0.38282 0.19531 0.52344 0.35938 0.14453 0.16797 0.25391 0.38672 0.33594 0.64844 0.0781 0.26562 0.11719 0.59375 0.11719 0.98438v3.75m2.4062 0h-0.96485v-5.7148h0.96485zm-0.47657-7.0938c-0.19921 0-0.35937-0.0625-0.47656-0.19141-0.12109-0.125-0.17969-0.29297-0.17969-0.5 0-0.19922 0.0586-0.35938 0.17969-0.48828 0.11719-0.125 0.27735-0.19141 0.47656-0.19141 0.1875 0 0.34375 0.06641 0.46485 0.19141 0.11719 0.12891 0.17578 0.28906 0.17578 0.48828 0 0.20703-0.0586 0.375-0.17578 0.5-0.1211 0.12891-0.27735 0.19141-0.46485 0.19141m4.4141 2.5352c-0.0625-0.07422-0.17969-0.17188-0.34766-0.29297-0.16406-0.125-0.38281-0.18359-0.65234-0.18359-0.25391 0-0.44922 0.05859-0.58204 0.17578-0.13671 0.12109-0.20312 0.26172-0.20312 0.42969 0 0.21484 0.0625 0.39062 0.18359 0.53125 0.125 0.13672 0.3125 0.28516 0.56641 0.44531l0.35547 0.21484c0.39062 0.23047 0.69531 0.47656 0.91797 0.74219 0.22265 0.26562 0.33203 0.60937 0.33203 1.0312 0 0.44922-0.15625 0.83203-0.46875 1.1406-0.31641 0.30859-0.76563 0.46484-1.3516 0.46484-0.23047 0-0.4336-0.02344-0.60547-0.07031-0.17578-0.05078-0.32813-0.10547-0.46094-0.16797-0.12891-0.0625-0.23828-0.13281-0.32422-0.20703-0.0898-0.07813-0.16016-0.14453-0.21484-0.21094l0.46484-0.76172c0.0469 0.05078 0.10547 0.10547 0.17188 0.16797 0.0664 0.0625 0.14843 0.125 0.24218 0.18359 0.0937 0.0625 0.20313 0.10938 0.32032 0.14844 0.12109 0.04297 0.25781 0.0625 0.41796 0.0625 0.28516 0 0.50391-0.06641 0.65235-0.19141 0.15234-0.12891 0.22656-0.28125 0.22656-0.46484 0-0.13672-0.0156-0.25-0.0508-0.35156-0.0352-0.09766-0.0898-0.1875-0.16016-0.26562-0.0742-0.08203-0.16015-0.15625-0.26562-0.22656-0.10156-0.07031-0.21875-0.15234-0.35547-0.23828l-0.35547-0.22656c-0.35937-0.23047-0.63672-0.47266-0.83984-0.72656-0.20313-0.25391-0.30469-0.57812-0.30469-0.97656 0-0.21484 0.043-0.41016 0.125-0.58984 0.0859-0.17578 0.20312-0.33203 0.35156-0.46094 0.15235-0.13281 0.32813-0.23438 0.53125-0.30859 0.20313-0.07813 0.41797-0.11328 0.64844-0.11328 0.22266 0 0.41016 0.01953 0.57031 0.0625 0.16016 0.04688 0.29688 0.10156 0.41016 0.16797 0.11719 0.06641 0.21094 0.13672 0.28515 0.20312 0.0781 0.06641 0.13672 0.125 0.1836 0.17188m3.7266 0.32031h-1.25v3.1641c0 0.40625 0.0508 0.68359 0.15625 0.82812 0.10156 0.14844 0.27734 0.22266 0.52344 0.22266 0.14062 0 0.26562-0.01953 0.36719-0.0625 0.10156-0.03906 0.17968-0.07422 0.22656-0.10547l0.1289 0.77344c-0.0352 0.03125-0.13281 0.08203-0.28125 0.14844-0.15234 0.06641-0.35546 0.10156-0.60937 0.10156-0.49219 0-0.85938-0.13672-1.1055-0.41016s-0.37109-0.72656-0.37109-1.3633v-3.2969h-0.6875v-0.64062l0.6875-0.14453 0.10937-1.5938h0.85547v1.5938h1.3711m4.5547 1.9297c0 0.24609-8e-3 0.45703-0.0234 0.63672-0.0156 0.17578-0.0312 0.33203-0.0469 0.46875h-2.918c0.0352 0.67188 0.17969 1.168 0.4375 1.4883 0.25781 0.31641 0.62891 0.47656 1.1094 0.47656 0.16796 0 0.32031-0.01953 0.45312-0.0625 0.13672-0.03906 0.25391-0.08594 0.35156-0.14063 0.10157-0.05469 0.1836-0.11328 0.25-0.16797 0.0664-0.05469 0.11719-0.09766 0.14844-0.12891l0.35938 0.67578c-0.0391 0.04297-0.10157 0.09766-0.17969 0.17578-0.0781 0.07422-0.1875 0.14844-0.32031 0.22266-0.13672 0.07813-0.30079 0.14453-0.5 0.19922-0.19922 0.05469-0.4336 0.08203-0.70313 0.08203-0.35547 0-0.67969-0.05859-0.96875-0.17969-0.28906-0.11719-0.53516-0.30469-0.73828-0.55469-0.20313-0.24609-0.35938-0.56641-0.46875-0.94922-0.11328-0.38672-0.16797-0.84766-0.16797-1.3867 0-0.50781 0.0586-0.94531 0.17188-1.3164 0.11718-0.36719 0.27343-0.67188 0.46875-0.91016 0.19921-0.23828 0.42968-0.41406 0.6914-0.52734 0.26172-0.11719 0.54297-0.17188 0.84375-0.17188 0.54688 0 0.97656 0.17188 1.2852 0.51563 0.3125 0.34375 0.46484 0.86328 0.46484 1.5547m-1.8086-1.2852c-0.33985 0-0.61328 0.14062-0.82031 0.42578-0.20704 0.28516-0.32422 0.69922-0.35938 1.2383h2.0859c8e-3 -0.03906 0.0117-0.09766 0.0156-0.17188 4e-3 -0.07422 8e-3 -0.15625 8e-3 -0.24219 0-0.39844-0.082-0.70703-0.23829-0.92578-0.16015-0.21875-0.39062-0.32422-0.6914-0.32422m5.6055 0.19922c-0.0234-0.01563-0.0742-0.03516-0.15625-0.05859-0.0781-0.02344-0.1836-0.03516-0.32032-0.03516-0.30078 0-0.53515 0.08203-0.70703 0.24219-0.17187 0.16406-0.29297 0.33984-0.36328 0.53125v4.1914h-0.96484v-5.7148h0.88281v0.77344h0.0234c0.0391-0.10938 0.0898-0.21875 0.15234-0.32812 0.0664-0.10547 0.14453-0.20312 0.23828-0.28516 0.0977-0.08203 0.21094-0.14844 0.33985-0.19531 0.13281-0.04687 0.28906-0.07031 0.46875-0.07031 0.13672 0 0.24609 0.01172 0.32812 0.03516 0.082 0.02344 0.14844 0.04297 0.19531 0.05859m1.7969 5.7266h-0.96094v-5.7148h0.96094zm-0.47266-7.0938c-0.19922 0-0.35937-0.0625-0.47656-0.19141-0.12109-0.125-0.17969-0.29297-0.17969-0.5 0-0.19922 0.0586-0.35938 0.17969-0.48828 0.11719-0.125 0.27734-0.19141 0.47656-0.19141 0.1875 0 0.34375 0.06641 0.46094 0.19141 0.12109 0.12891 0.17969 0.28906 0.17969 0.48828 0 0.20703-0.0586 0.375-0.17969 0.5-0.11719 0.12891-0.27344 0.19141-0.46094 0.19141m5.9492 7.0938h-0.88292v-0.64453h-0.0234c-0.0234 0.04687-0.0742 0.11719-0.15234 0.20703-0.082 0.08984-0.17969 0.17969-0.30469 0.26172-0.12109 0.08203-0.27344 0.15625-0.44531 0.22266-0.17578 0.0625-0.3711 0.09375-0.58594 0.09375-0.25 0-0.48047-0.03906-0.68359-0.11328-0.19922-0.07422-0.375-0.19531-0.51563-0.36328-0.14453-0.16406-0.2539-0.38281-0.32812-0.64844-0.0742-0.26562-0.11328-0.59375-0.11328-0.98047v-3.75h0.96484v3.6797c0 0.47266 0.0781 0.8125 0.23047 1.0156 0.15625 0.20312 0.39453 0.30469 0.72265 0.30469 0.27735 0 0.51172-0.07031 0.69922-0.21094 0.19141-0.13672 0.34375-0.27344 0.45313-0.41016v-4.3789h0.96484m4.4727 5.7148v-3.6797c0-0.46875-0.0664-0.80469-0.20313-1.0117-0.13281-0.20703-0.35156-0.30859-0.65234-0.30859-0.16016 0-0.30078 0.01953-0.42188 0.05859-0.125 0.03906-0.23437 0.08984-0.32812 0.14844-0.0937 0.05859-0.17969 0.125-0.25 0.19531-0.0703 0.07422-0.13281 0.13672-0.17969 0.19141v4.4062h-0.96094v-5.7148h0.87891v0.64453h0.0234c0.0391-0.06641 0.10156-0.14453 0.17969-0.23438 0.0781-0.08984 0.17578-0.17578 0.29687-0.26172 0.11719-0.08203 0.25781-0.15234 0.41797-0.20703 0.15625-0.05469 0.33594-0.08203 0.53516-0.08203 0.64843 0 1.1094 0.25391 1.3789 0.75781 0.0547-0.07813 0.13281-0.16406 0.22656-0.25391 0.0937-0.08984 0.20704-0.17578 0.33204-0.25 0.1289-0.07422 0.26953-0.13672 0.42968-0.18359 0.16016-0.04687 0.33203-0.07031 0.52344-0.07031 1.1562 0 1.7383 0.67188 1.7383 2.0234v3.832h-0.96484v-3.6797c0-0.46875-0.082-0.80469-0.25-1.0117-0.16797-0.20703-0.41406-0.30859-0.73828-0.30859-0.26953 0-0.49219 0.06641-0.67188 0.19531-0.17969 0.13281-0.32031 0.25781-0.42187 0.375 0.0156 0.08594 0.0273 0.17969 0.0352 0.28125 8e-3 0.09766 0.0117 0.20312 0.0117 0.31641v3.832m-75.922 7.0703h-1.168v4.9297h-0.96094v-4.9297h-0.69141v-0.64062l0.69141-0.13281v-1.1406c0-0.30859 0.04297-0.57422 0.12891-0.79688 0.08984-0.22266 0.20312-0.40625 0.34766-0.55078 0.14062-0.14062 0.30859-0.24609 0.49609-0.30859 0.19141-0.0625 0.39453-0.09375 0.60937-0.09375 0.20703 0 0.37891 0.02734 0.52344 0.08203 0.14453 0.05859 0.23828 0.10156 0.28516 0.13281l-0.20312 0.79688c-0.04687-0.03125-0.11328-0.06641-0.20312-0.10156-0.08594-0.03516-0.19141-0.05469-0.32031-0.05469-0.23047 0-0.40234 0.07422-0.52344 0.21484-0.11719 0.14453-0.17969 0.40625-0.17969 0.78516v1.0234h1.2891m4.8281 5.7148h-0.87894v-0.64453h-0.02344c-0.02344 0.04687-0.07812 0.11719-0.15625 0.20703-0.07812 0.08984-0.17969 0.17969-0.30078 0.26172-0.125 0.08203-0.27344 0.15625-0.44922 0.22266-0.17187 0.0625-0.36719 0.09375-0.58203 0.09375-0.25391 0-0.48047-0.03906-0.68359-0.11328-0.20313-0.07422-0.375-0.19531-0.51953-0.36328-0.14062-0.16406-0.25-0.38281-0.32422-0.64844-0.07813-0.26562-0.11328-0.59375-0.11328-0.98047v-3.75h0.96094v3.6797c0 0.47266 0.07813 0.8125 0.23438 1.0156 0.15234 0.20312 0.39453 0.30469 0.71875 0.30469 0.27734 0 0.51172-0.07031 0.70312-0.21094 0.1875-0.13672 0.33984-0.27344 0.45312-0.41016v-4.3789h0.96094m-2.3672-1.6406c0 0.17969-0.05469 0.32813-0.16797 0.44141-0.10938 0.10938-0.24609 0.16406-0.40234 0.16406-0.16016 0-0.29297-0.05469-0.40625-0.16406-0.10937-0.11328-0.16406-0.26172-0.16406-0.44141 0-0.18359 0.05469-0.33203 0.16406-0.44141 0.11328-0.10938 0.24609-0.16797 0.40625-0.16797 0.15625 0 0.29297 0.05859 0.40234 0.16797 0.11328 0.10938 0.16797 0.25781 0.16797 0.44141m1.832 0c0 0.17969-0.05469 0.32813-0.16406 0.44141-0.11328 0.10938-0.24609 0.16406-0.40625 0.16406-0.16016 0-0.29297-0.05469-0.40625-0.16406-0.10938-0.11328-0.16406-0.26172-0.16406-0.44141 0-0.18359 0.05469-0.33203 0.16406-0.44141 0.11328-0.10938 0.24609-0.16797 0.40625-0.16797 0.16016 0 0.29297 0.05859 0.40625 0.16797 0.10937 0.10938 0.16406 0.25781 0.16406 0.44141m4.5234 2.4844c-0.02344-0.01563-0.07422-0.03516-0.15625-0.05859-0.07813-0.02344-0.18359-0.03516-0.32031-0.03516-0.30078 0-0.53906 0.08203-0.70703 0.24219-0.17188 0.16406-0.29297 0.33984-0.36328 0.53125v4.1914h-0.96484v-5.7148h0.87891v0.77344h0.02734c0.03906-0.10938 0.08984-0.21875 0.15234-0.32812 0.0625-0.10547 0.14453-0.20312 0.23828-0.28516 0.09766-0.08203 0.20703-0.14844 0.33984-0.19531 0.13281-0.04687 0.28516-0.07031 0.46875-0.07031 0.13672 0 0.24609 0.01172 0.32812 0.03516 0.08594 0.02344 0.14844 0.04297 0.19531 0.05859m7.5938-0.39062c0 0.28516-0.03516 0.53516-0.10547 0.75-0.07422 0.21094-0.17188 0.39453-0.29297 0.55078-0.125 0.15625-0.26563 0.28125-0.42969 0.375-0.16016 0.09375-0.33203 0.16797-0.50391 0.21484v0.02344c0.21484 0.03906 0.41406 0.11328 0.60156 0.22656 0.18359 0.10938 0.34766 0.25 0.48828 0.41406 0.13672 0.16797 0.25 0.36328 0.33203 0.58984 0.08203 0.22656 0.125 0.47656 0.125 0.74609 0 0.32422-0.05469 0.62109-0.16797 0.89062-0.10938 0.26953-0.28125 0.50391-0.51562 0.70312s-0.53125 0.35156-0.88672 0.46484c-0.35938 0.10938-0.78125 0.16797-1.2734 0.16797h-1.6797v-8.2148h1.582c0.48438 0 0.89844 0.05078 1.2461 0.14844 0.34375 0.10156 0.62891 0.24219 0.84766 0.42578 0.22266 0.17969 0.38281 0.40234 0.48438 0.66016 0.09766 0.25781 0.14844 0.54297 0.14844 0.86328m-1.0469 0.03515c0-0.38281-0.13672-0.69531-0.40625-0.94141s-0.69141-0.36719-1.2734-0.36719h-0.54687v2.832h0.53516c0.55469 0 0.97656-0.13672 1.2617-0.40625 0.28516-0.26953 0.42969-0.64063 0.42969-1.1172m0.15234 3.7812c0-0.44141-0.14453-0.79297-0.43359-1.0508-0.28906-0.25781-0.70312-0.38672-1.2422-0.38672h-0.70312v2.8789h0.64453c0.60938 0 1.0508-0.12109 1.3242-0.36328 0.27344-0.24219 0.41016-0.60156 0.41016-1.0781m3.3438 2.3008h-0.96094v-5.7148h0.96094zm-0.47266-7.0938c-0.19922 0-0.35938-0.0625-0.47656-0.19141-0.12109-0.125-0.17969-0.29297-0.17969-0.5 0-0.19922 0.05859-0.35938 0.17969-0.48828 0.11719-0.125 0.27734-0.19141 0.47656-0.19141 0.1875 0 0.34375 0.06641 0.46094 0.19141 0.12109 0.12891 0.17969 0.28906 0.17969 0.48828 0 0.20703-0.05859 0.375-0.17969 0.5-0.11719 0.12891-0.27344 0.19141-0.46094 0.19141m2.9023 5.7578c0 0.23828 0.0312 0.40625 0.10156 0.5 0.0664 0.09766 0.1836 0.14453 0.35157 0.14453 0.0859 0 0.16015-0.0078 0.21875-0.02344 0.0586-0.01563 0.10547-0.03125 0.13672-0.05078l0.082 0.71484c-0.0469 0.02344-0.13282 0.05469-0.26172 0.09766-0.125 0.03906-0.29688 0.05859-0.51172 0.05859-0.32422 0-0.58594-0.10156-0.78516-0.29688-0.19531-0.19922-0.29687-0.55078-0.29687-1.0586v-7.1641l0.96484-0.10938m1.5 5.75c0-0.58203 0.0742-1.0664 0.22656-1.4531 0.14844-0.39062 0.34375-0.70312 0.58204-0.94141 0.23828-0.23828 0.50781-0.40625 0.80859-0.50391 0.30078-0.10156 0.60156-0.14844 0.90625-0.14844 0.17969 0 0.33984 0.01172 0.47266 0.03906 0.13671 0.03125 0.24609 0.0625 0.33593 0.10156v-2.7344l0.96485-0.10938v8.5234h-0.88282v-0.60938h-0.0234c-0.0234 0.04687-0.0664 0.11328-0.12891 0.19531-0.0664 0.08594-0.15234 0.16797-0.26562 0.25-0.10938 0.08594-0.25 0.15625-0.41407 0.21484-0.16797 0.05859-0.36328 0.08984-0.58593 0.08984-0.26563 0-0.52344-0.05469-0.76563-0.16016-0.24219-0.10547-0.45312-0.27734-0.63672-0.51172-0.18359-0.23438-0.32812-0.53516-0.43359-0.90625-0.10547-0.36719-0.16016-0.8125-0.16016-1.3359m2.2617 2.0586c0.14844 0 0.28516-0.01953 0.40234-0.0625 0.1211-0.03906 0.22266-0.08594 0.3086-0.14844 0.0898-0.05859 0.16406-0.12109 0.22265-0.18359 0.0586-0.0625 0.10547-0.11719 0.13672-0.16797v-3.5195c-0.0898-0.05859-0.1875-0.10547-0.30468-0.14453-0.11329-0.03906-0.25782-0.05859-0.4336-0.05859-0.22265 0-0.42969 0.03516-0.625 0.11328-0.19531 0.07422-0.36328 0.19922-0.5039 0.375-0.14454 0.17188-0.25782 0.39844-0.33985 0.67969-0.0859 0.27734-0.125 0.61719-0.125 1.0195 0 0.39844 0.0312 0.73047 0.10156 0.99609 0.0664 0.26562 0.16016 0.48047 0.27735 0.64062 0.12109 0.16406 0.2539 0.28125 0.40625 0.35156 0.14844 0.07422 0.30859 0.10938 0.47656 0.10938m7.5078 0.71484h-0.88281v-0.64453h-0.0234c-0.0234 0.04687-0.0742 0.11719-0.15234 0.20703-0.0781 0.08984-0.18359 0.17969-0.30469 0.26172-0.12109 0.08203-0.26953 0.15625-0.44531 0.22266-0.17578 0.0625-0.37109 0.09375-0.58203 0.09375-0.25781 0-0.48438-0.03906-0.6875-0.11328-0.19922-0.07422-0.375-0.19531-0.51563-0.36328-0.14453-0.16406-0.2539-0.38281-0.32812-0.64844-0.0742-0.26562-0.11328-0.59375-0.11328-0.98047v-3.75h0.9648v3.6797c0 0.47266 0.0781 0.8125 0.23047 1.0156 0.15625 0.20312 0.39453 0.30469 0.72266 0.30469 0.27734 0 0.51171-0.07031 0.69921-0.21094 0.19141-0.13672 0.34375-0.27344 0.45313-0.41016v-4.3789h0.96484m4.5938 5.7148v-3.6797c0-0.48438-0.082-0.83203-0.24609-1.043-0.16016-0.20703-0.41016-0.3125-0.74219-0.3125-0.28515 0-0.52344 0.07031-0.71484 0.21484-0.19141 0.14062-0.33985 0.28125-0.44922 0.41406v4.4062h-0.96484v-5.7148h0.8789v0.64453h0.0234c0.0234-0.04687 0.0742-0.11719 0.15625-0.21094 0.0781-0.08984 0.17969-0.17578 0.30859-0.26172 0.125-0.08203 0.27735-0.15625 0.45313-0.21875 0.17187-0.0625 0.37109-0.09375 0.59375-0.09375 0.2539 0 0.48437 0.03516 0.6914 0.11328 0.20704 0.07422 0.37891 0.19531 0.52344 0.35938 0.14063 0.16797 0.25391 0.38672 0.33203 0.64844 0.0781 0.26562 0.11719 0.59375 0.11719 0.98438v3.75m5.5352-4.9648h-0.71485c0.1836 0.30078 0.27735 0.64453 0.27735 1.0234 0 0.30078-0.0508 0.57422-0.15235 0.81641-0.0977 0.24219-0.23828 0.44531-0.41406 0.61328-0.17969 0.16406-0.39062 0.29297-0.63281 0.37891-0.24219 0.08984-0.5 0.13281-0.77735 0.13281h-0.15625c-0.0469 0-0.0977-0.0078-0.15234-0.01563-0.0977 0.04297-0.19531 0.10547-0.30078 0.19141-0.10156 0.08984-0.15234 0.20313-0.15234 0.34766 0 0.11719 0.043 0.21484 0.13671 0.28906 0.0898 0.07813 0.23829 0.11328 0.44532 0.11328h0.72656c0.26953 0 0.51953 0.02734 0.75 0.08594 0.23047 0.05469 0.42969 0.14453 0.60156 0.26562 0.16797 0.125 0.30078 0.28125 0.39844 0.47266 0.0937 0.1875 0.14062 0.41797 0.14062 0.6875 0 0.30859-0.0664 0.58984-0.19531 0.84375-0.13281 0.25391-0.3164 0.47266-0.55469 0.65625-0.23828 0.18359-0.52734 0.32422-0.86718 0.42969-0.33985 0.10156-0.72266 0.15234-1.1445 0.15234-0.60938 0-1.0742-0.13281-1.3906-0.39844s-0.47656-0.64844-0.47656-1.1484c0-0.21484 0.0391-0.39844 0.11328-0.55078 0.0742-0.15625 0.16406-0.28906 0.26953-0.40625 0.10156-0.11719 0.20703-0.20703 0.3125-0.27344 0.10938-0.06641 0.19531-0.12109 0.25781-0.16016v-0.02344c-0.24609-0.18359-0.36718-0.44922-0.36718-0.79688 0-0.15234 0.0273-0.28516 0.0859-0.39453 0.0625-0.10938 0.12891-0.20312 0.20313-0.27344 0.0742-0.07031 0.15234-0.12891 0.22656-0.17188 0.0742-0.04297 0.13281-0.07422 0.17188-0.08984v-0.02344c-0.29297-0.13672-0.53125-0.34766-0.70704-0.63672-0.17968-0.28906-0.26953-0.66016-0.26953-1.1133 0-0.31641 0.0547-0.59766 0.15625-0.83984 0.10157-0.24219 0.24219-0.44141 0.41407-0.60156 0.17578-0.15625 0.38281-0.27734 0.61328-0.35547 0.23437-0.07813 0.48828-0.11719 0.75781-0.11719s0.52344 0.04688 0.76172 0.14063h1.7383m-2.7852 5.5352c-0.16797 0-0.3125-0.01172-0.4414-0.03906-0.0703 0.04297-0.14063 0.08984-0.20703 0.14453-0.0703 0.05469-0.12891 0.125-0.1875 0.20313-0.0547 0.07812-0.0977 0.17187-0.13672 0.27734-0.0352 0.10938-0.0508 0.23438-0.0508 0.375 0 0.61328 0.33593 0.91797 1.0117 0.91797 0.57813 0 1.0078-0.11328 1.2852-0.33984 0.27734-0.22656 0.41406-0.48438 0.41406-0.77734 0-0.27734-0.0859-0.47656-0.26172-0.58984-0.17187-0.11328-0.40625-0.17188-0.69921-0.17188m0.54687-3.7617c0-0.41406-0.0977-0.70703-0.29297-0.87891-0.19531-0.17578-0.42187-0.26172-0.68359-0.26172-0.27735 0-0.51563 0.08594-0.71485 0.26172-0.19921 0.17188-0.29687 0.46484-0.29687 0.87891s0.0977 0.70703 0.29687 0.87891c0.19922 0.17578 0.42969 0.26172 0.69141 0.26172 0.27734 0 0.51172-0.08594 0.70703-0.26172 0.19531-0.17188 0.29297-0.46484 0.29297-0.87891m-40.914 15.941h-0.87891v-0.64453h-0.02344c-0.02344 0.04687-0.07813 0.11719-0.15625 0.20703-0.07813 0.08984-0.17969 0.17969-0.30469 0.26172-0.12109 0.08203-0.26953 0.15625-0.44531 0.22266-0.17188 0.0625-0.36719 0.09375-0.58203 0.09375-0.25391 0-0.48437-0.03906-0.68359-0.11328-0.20312-0.07422-0.375-0.19531-0.51953-0.36328-0.14063-0.16406-0.25-0.38281-0.32813-0.64844-0.07422-0.26562-0.11328-0.59375-0.11328-0.98047v-3.75h0.96484v3.6797c0 0.47266 0.07813 0.8125 0.23438 1.0156 0.15234 0.20312 0.39453 0.30469 0.71875 0.30469 0.27734 0 0.51172-0.07031 0.70312-0.21094 0.19141-0.13672 0.33984-0.27344 0.44922-0.41016v-4.3789h0.96484m4.5938 5.7148v-3.6797c0-0.48438-0.08203-0.83203-0.24219-1.043-0.16406-0.20703-0.41016-0.3125-0.74609-0.3125-0.28516 0-0.52344 0.07031-0.71094 0.21484-0.19141 0.14062-0.34375 0.28125-0.45312 0.41406v4.4062h-0.96484v-5.7148h0.87891v0.64453h0.02344c0.02734-0.04687 0.07813-0.11719 0.15625-0.21094 0.07813-0.08984 0.18359-0.17578 0.30859-0.26172 0.12891-0.08203 0.27734-0.15625 0.45312-0.21875 0.17578-0.0625 0.375-0.09375 0.59766-0.09375 0.25 0 0.48047 0.03516 0.6875 0.11328 0.20703 0.07422 0.38281 0.19531 0.52344 0.35938 0.14453 0.16797 0.25391 0.38672 0.33594 0.64844 0.07813 0.26562 0.11719 0.59375 0.11719 0.98438v3.75m1.1797-2.7734c0-0.58203 0.07422-1.0664 0.22266-1.4531 0.15234-0.39062 0.34766-0.70312 0.58594-0.94141 0.23828-0.23828 0.50781-0.40625 0.80859-0.50391 0.30078-0.10156 0.60156-0.14844 0.90234-0.14844 0.18359 0 0.34375 0.01172 0.47656 0.03906 0.13672 0.03125 0.24609 0.0625 0.33594 0.10156v-2.7344l0.96094-0.10938v8.5234h-0.87891v-0.60938h-0.02344c-0.02344 0.04687-0.06641 0.11328-0.13281 0.19531-0.0625 0.08594-0.14844 0.16797-0.26172 0.25-0.10937 0.08594-0.25 0.15625-0.41406 0.21484-0.16797 0.05859-0.36328 0.08984-0.58594 0.08984-0.26953 0-0.52344-0.05469-0.76562-0.16016-0.24219-0.10547-0.45703-0.27734-0.63672-0.51172-0.18359-0.23438-0.32812-0.53516-0.43359-0.90625-0.10938-0.36719-0.16016-0.8125-0.16016-1.3359m2.2578 2.0586c0.15234 0 0.28516-0.01953 0.40625-0.0625 0.11719-0.03906 0.22266-0.08594 0.30859-0.14844 0.08594-0.05859 0.16016-0.12109 0.21875-0.18359 0.0625-0.0625 0.10547-0.11719 0.14062-0.16797v-3.5195c-0.08984-0.05859-0.19141-0.10547-0.30469-0.14453-0.11719-0.03906-0.26172-0.05859-0.43359-0.05859-0.22266 0-0.43359 0.03516-0.625 0.11328-0.19531 0.07422-0.36328 0.19922-0.50781 0.375-0.14062 0.17188-0.25391 0.39844-0.33984 0.67969-0.08203 0.27344-0.125 0.61719-0.125 1.0195 0 0.39844 0.03516 0.73047 0.10156 0.99609 0.07031 0.26562 0.16016 0.48047 0.28125 0.64062 0.11719 0.16406 0.25391 0.28125 0.40625 0.35156 0.14844 0.07422 0.30859 0.10938 0.47266 0.10938m6.2383 0.71484v-8.2148h4.0312l-0.0703 0.82422h-2.9258v3.0312h2.6992v0.82422h-2.6992v3.5352m3.7227-2.8594c0-0.52344 0.0625-0.97266 0.18359-1.3555 0.125-0.38281 0.28906-0.69141 0.5-0.93359 0.21094-0.24219 0.45312-0.42188 0.72656-0.53516 0.27344-0.11719 0.56641-0.17188 0.875-0.17188 0.31641 0 0.60938 0.05469 0.88281 0.17188 0.26563 0.11328 0.5 0.29297 0.69922 0.53516 0.19922 0.24219 0.35547 0.55078 0.47266 0.93359 0.11328 0.38281 0.17187 0.83203 0.17187 1.3555 0 0.53125-0.0586 0.98828-0.17968 1.3711-0.11719 0.37891-0.28516 0.69141-0.49219 0.93359-0.21094 0.24219-0.45703 0.41797-0.73438 0.52734-0.27734 0.11328-0.57031 0.16797-0.8789 0.16797-0.31641 0-0.60938-0.05469-0.88281-0.16797-0.26954-0.10938-0.50391-0.28516-0.69922-0.52734-0.19922-0.24219-0.35547-0.55078-0.47266-0.92969-0.11328-0.375-0.17187-0.83594-0.17187-1.375m3.5117 0c0-0.76172-0.10937-1.3125-0.33203-1.6602-0.22265-0.34375-0.53515-0.51562-0.92968-0.51562-0.39844 0-0.70313 0.17188-0.92188 0.51562-0.21875 0.34766-0.32812 0.89844-0.32812 1.6602 0 0.76172 0.11328 1.3086 0.33203 1.6445 0.22265 0.33203 0.53515 0.5 0.92968 0.5 0.39844 0 0.70313-0.16797 0.92188-0.5 0.21875-0.33594 0.32812-0.88281 0.32812-1.6445m4.7227-2.0117c-0.0234-0.01563-0.0742-0.03516-0.15234-0.05859-0.082-0.02344-0.1875-0.03516-0.32422-0.03516-0.30078 0-0.53516 0.08203-0.70703 0.24219-0.17188 0.16406-0.29297 0.33984-0.36328 0.53125v4.1914h-0.96485v-5.7148h0.88281v0.77344h0.0234c0.0391-0.10938 0.0898-0.21875 0.15625-0.32812 0.0625-0.10547 0.14063-0.20312 0.23438-0.28516 0.0977-0.08203 0.21093-0.14844 0.33984-0.19531 0.13281-0.04687 0.28906-0.07031 0.47266-0.07031 0.13281 0 0.24218 0.01172 0.32812 0.03516 0.082 0.02344 0.14453 0.04297 0.19531 0.05859m3.2461 1.168c-0.0625-0.07422-0.17578-0.17188-0.34375-0.29297-0.16797-0.125-0.38281-0.18359-0.65625-0.18359-0.25391 0-0.44531 0.05859-0.58203 0.17578-0.13282 0.12109-0.19922 0.26172-0.19922 0.42969 0 0.21484 0.0586 0.39062 0.18359 0.53125 0.1211 0.13672 0.3086 0.28516 0.56641 0.44531l0.35547 0.21484c0.38672 0.23047 0.69531 0.47656 0.91406 0.74219 0.22266 0.26562 0.33594 0.60937 0.33594 1.0312 0 0.44922-0.16016 0.83203-0.47266 1.1406-0.3125 0.30859-0.76172 0.46484-1.3516 0.46484-0.22656 0-0.42969-0.02344-0.60547-0.07031-0.17188-0.05078-0.32813-0.10547-0.45703-0.16797-0.13281-0.0625-0.24219-0.13281-0.32813-0.20703-0.0859-0.07813-0.16015-0.14453-0.21484-0.21094l0.46484-0.76172c0.0469 0.05078 0.10547 0.10547 0.17188 0.16797 0.0703 0.0625 0.14844 0.125 0.24609 0.18359 0.0937 0.0625 0.20313 0.10938 0.32031 0.14844 0.1211 0.04297 0.25782 0.0625 0.41797 0.0625 0.28516 0 0.50391-0.06641 0.65235-0.19141 0.15234-0.12891 0.22656-0.28125 0.22656-0.46484 0-0.13672-0.0195-0.25-0.0547-0.35156-0.0352-0.09766-0.0898-0.1875-0.16015-0.26562-0.0703-0.08203-0.15625-0.15625-0.26172-0.22656-0.10157-0.07031-0.22266-0.15234-0.35547-0.23828l-0.35938-0.22656c-0.35547-0.23047-0.63672-0.47266-0.83593-0.72656-0.20313-0.25391-0.30469-0.57812-0.30469-0.97656 0-0.21484 0.043-0.41016 0.125-0.58984 0.082-0.17578 0.19922-0.33203 0.35156-0.46094 0.14844-0.13281 0.32813-0.23438 0.52734-0.30859 0.20313-0.07813 0.41797-0.11328 0.65235-0.11328 0.21875 0 0.41015 0.01953 0.57031 0.0625 0.15625 0.04688 0.29297 0.10156 0.41016 0.16797 0.11328 0.06641 0.21093 0.13672 0.28515 0.20312 0.0742 0.06641 0.13672 0.125 0.1836 0.17188m4.4648 0.64062c-0.0273-0.02344-0.0625-0.05859-0.11328-0.10547-0.0547-0.04688-0.11719-0.09375-0.19922-0.14453-0.0781-0.04687-0.17187-0.08594-0.28516-0.125-0.10937-0.03516-0.23828-0.05078-0.3789-0.05078-0.20703 0-0.39844 0.03906-0.57813 0.11328-0.17968 0.07422-0.33203 0.19531-0.46484 0.36328-0.12891 0.16406-0.23438 0.38281-0.30859 0.64844-0.0742 0.26562-0.11329 0.58594-0.11329 0.96875 0 0.42188 0.0352 0.77344 0.10157 1.0586 0.0664 0.28516 0.16015 0.51562 0.27734 0.68359 0.12109 0.17188 0.26563 0.29297 0.4375 0.37109 0.16797 0.07422 0.35547 0.11328 0.5625 0.11328 0.29297 0 0.51953-0.05469 0.67188-0.15625 0.15625-0.10156 0.26562-0.1875 0.32812-0.25l0.39453 0.66797c-0.0391 0.04687-0.0977 0.10156-0.17578 0.17188-0.0742 0.06641-0.17187 0.13281-0.28906 0.19531s-0.26563 0.11719-0.4336 0.16016c-0.17187 0.04297-0.36718 0.06641-0.58984 0.06641-0.31641 0-0.61328-0.05078-0.89453-0.15625-0.27734-0.10156-0.51953-0.27344-0.72266-0.51172-0.20703-0.23828-0.37109-0.54688-0.48828-0.92578-0.12109-0.38281-0.17969-0.85547-0.17969-1.418 0-0.54688 0.0703-1.0117 0.21485-1.3906 0.14453-0.38281 0.32812-0.6875 0.55859-0.92187 0.23047-0.23438 0.48438-0.40625 0.76953-0.51172 0.28125-0.10938 0.5625-0.16016 0.84766-0.16016 0.21484 0 0.40234 0.01953 0.56641 0.05859 0.16406 0.03906 0.30078 0.08984 0.41796 0.14844 0.11329 0.05859 0.21094 0.12109 0.28516 0.19141 0.0742 0.06641 0.13672 0.125 0.18359 0.17188m4.1289 5.2852v-3.6797c0-0.48438-0.082-0.83203-0.24219-1.043-0.16406-0.20703-0.41015-0.3125-0.74609-0.3125-0.28516 0-0.52344 0.07031-0.71484 0.21484-0.1875 0.14062-0.33985 0.28125-0.44922 0.41406v4.4062h-0.96485v-8.4141l0.96485-0.10938v3.3906h0.0234c0.0312-0.04687 0.082-0.10938 0.14844-0.1875 0.0664-0.08203 0.16016-0.16016 0.27735-0.23828 0.12109-0.08203 0.26562-0.14844 0.4375-0.21094 0.16796-0.05859 0.37109-0.08594 0.59765-0.08594 0.5 0 0.89844 0.16016 1.1914 0.48828 0.29297 0.32422 0.4414 0.86328 0.4414 1.6172v3.75m5.4375 0h-0.8789v-0.64453h-0.0273c-0.0195 0.04687-0.0742 0.11719-0.15234 0.20703-0.0781 0.08984-0.17969 0.17969-0.30469 0.26172-0.12109 0.08203-0.26953 0.15625-0.44531 0.22266-0.17578 0.0625-0.36719 0.09375-0.58203 0.09375-0.25391 0-0.48438-0.03906-0.68359-0.11328-0.20313-0.07422-0.375-0.19531-0.51954-0.36328-0.14453-0.16406-0.25-0.38281-0.32812-0.64844-0.0742-0.26562-0.11328-0.59375-0.11328-0.98047v-3.75h0.96484v3.6797c0 0.47266 0.0781 0.8125 0.23438 1.0156 0.15234 0.20312 0.39062 0.30469 0.71875 0.30469 0.27734 0 0.51172-0.07031 0.70312-0.21094 0.1875-0.13672 0.33984-0.27344 0.44922-0.41016v-4.3789h0.96484m4.5938 5.7148v-3.6797c0-0.48438-0.082-0.83203-0.24609-1.043-0.16016-0.20703-0.40625-0.3125-0.74219-0.3125-0.28515 0-0.52344 0.07031-0.71484 0.21484-0.1875 0.14062-0.33985 0.28125-0.44922 0.41406v4.4062h-0.96484v-5.7148h0.8789v0.64453h0.0234c0.0273-0.04687 0.0781-0.11719 0.15625-0.21094 0.0781-0.08984 0.18359-0.17578 0.30859-0.26172 0.12891-0.08203 0.27735-0.15625 0.45313-0.21875s0.37109-0.09375 0.59375-0.09375c0.2539 0 0.48437 0.03516 0.6914 0.11328 0.20704 0.07422 0.37891 0.19531 0.52344 0.35938 0.14453 0.16797 0.25391 0.38672 0.33203 0.64844 0.0781 0.26562 0.1211 0.59375 0.1211 0.98438v3.75m5.5312-4.9648h-0.71094c0.17969 0.30078 0.27344 0.64453 0.27344 1.0234 0 0.30078-0.0508 0.57422-0.14844 0.81641-0.10156 0.24219-0.23828 0.44531-0.41797 0.61328-0.17969 0.16406-0.39062 0.29297-0.62891 0.37891-0.24218 0.08984-0.5039 0.13281-0.78125 0.13281h-0.15625c-0.0469 0-0.0977-0.0078-0.15234-0.01563-0.0977 0.04297-0.19531 0.10547-0.29687 0.19141-0.10547 0.08984-0.15625 0.20313-0.15625 0.34766 0 0.11719 0.0469 0.21484 0.13671 0.28906 0.0898 0.07813 0.23829 0.11328 0.44532 0.11328h0.72662c0.26953 0 0.51953 0.02734 0.75 0.08594 0.23047 0.05469 0.42969 0.14453 0.60156 0.26562 0.17188 0.125 0.30469 0.28125 0.39844 0.47266 0.0937 0.1875 0.14062 0.41797 0.14062 0.6875 0 0.30859-0.0625 0.58984-0.19531 0.84375-0.1289 0.25391-0.3164 0.47266-0.55078 0.65625-0.23828 0.18359-0.53125 0.32422-0.87109 0.42969-0.33985 0.10156-0.72266 0.15234-1.1406 0.15234-0.61328 0-1.0742-0.13281-1.3945-0.39844-0.31641-0.26562-0.47656-0.64844-0.47656-1.1484 0-0.21484 0.0391-0.39844 0.11328-0.55078 0.0781-0.15625 0.16406-0.28906 0.26953-0.40625 0.10156-0.11719 0.20703-0.20703 0.31641-0.27344 0.10547-0.06641 0.1914-0.12109 0.2539-0.16016v-0.02344c-0.24609-0.18359-0.36718-0.44922-0.36718-0.79688 0-0.15234 0.0273-0.28516 0.0898-0.39453 0.0586-0.10938 0.125-0.20312 0.19922-0.27344 0.0742-0.07031 0.15234-0.12891 0.22656-0.17188 0.0742-0.04297 0.13281-0.07422 0.17188-0.08984v-0.02344c-0.29297-0.13672-0.52735-0.34766-0.70704-0.63672-0.17968-0.28906-0.26562-0.66016-0.26562-1.1133 0-0.31641 0.0508-0.59766 0.15234-0.83984 0.10547-0.24219 0.24219-0.44141 0.41797-0.60156 0.17578-0.15625 0.37891-0.27734 0.61328-0.35547 0.23438-0.07813 0.48438-0.11719 0.75391-0.11719s0.52344 0.04688 0.76172 0.14063h1.7383m-2.7852 5.5352c-0.16797 0-0.3125-0.01172-0.4414-0.03906-0.0703 0.04297-0.14063 0.08984-0.20703 0.14453-0.0664 0.05469-0.12891 0.125-0.1836 0.20313-0.0586 0.07812-0.10156 0.17187-0.13672 0.27734-0.0391 0.10938-0.0547 0.23438-0.0547 0.375 0 0.61328 0.33593 0.91797 1.0117 0.91797 0.57813 0 1.0078-0.11328 1.2852-0.33984 0.27734-0.22656 0.41797-0.48438 0.41797-0.77734 0-0.27734-0.0898-0.47656-0.26172-0.58984-0.17578-0.11328-0.41016-0.17188-0.70312-0.17188m0.54687-3.7617c0-0.41406-0.0977-0.70703-0.29297-0.87891-0.19531-0.17578-0.42187-0.26172-0.68359-0.26172-0.27735 0-0.51563 0.08594-0.71485 0.26172-0.19531 0.17188-0.29687 0.46484-0.29687 0.87891s0.10156 0.70703 0.29687 0.87891c0.19922 0.17578 0.42969 0.26172 0.69141 0.26172 0.27734 0 0.51172-0.08594 0.70703-0.26172 0.19531-0.17188 0.29297-0.46484 0.29297-0.87891"/>
  <path d="m54.5 61.996h1.5v20h-3.5v-20" fill="#f5cf00"/>
  <path d="m54.5 41.898h1.5v20.098h-3.5v-20.098" fill="#e6000c"/>
  <path d="m43.391 28.988c1.0234 1.6211 1.8242 1.5938 3.0352 1.5938-1-0.76953-1.6641-1.75-1.9805-2.2539l-1.8672-2.9922c-0.18359-0.92578-0.66016-1.7852-1.375-2.4297 0.23828-0.08984 0.4375-0.1875 0.55859-0.27734-1.2188 0-2.4297-0.62109-3.0977-0.62109-0.42578 0-0.70312 0.25391-0.70312 0.59375 0.02734 0.375 0.41797 0.76172 1.1328 0.76172 0.16406 0 0.37109-0.02344 0.59766-0.05859 0.39062 0.53906 0.70312 1.0273 0.70312 1.7266 0 1.3086-1.5664 2.332-3.1484 2.332-0.08984 0-0.17578-0.0039-0.26562-0.01172-0.14062-0.32422-0.61719-0.87109-0.61719-1.4883 0-1.043 0.67969-1.8945 0.67969-2.9258 0-0.63672-0.31641-1.0352-0.43359-1.1992 0.19531-0.17969 0.40625-0.40234 0.45312-0.55469-0.10937 0.04687-0.24609 0.05469-0.44141 0.05469-0.75781 0-1.375-0.19922-1.9766-0.19922-0.34375 0-0.4375 0.10938-0.4375 0.21094 0 0.03516 0.0078 0.07422 0.01563 0.09375-0.125-0.05469-0.24609-0.08594-0.39062-0.11328-0.17578-0.03125-0.36719-0.05078-0.57031-0.05078-0.73438 0-0.99609 0.30859-0.99609 0.57031 0 0.22266 0.17578 0.62891 0.375 0.9375 0.28516-0.14062 0.62891-0.23828 0.78516-0.23828 0.38672 0 0.73438 0.37109 0.91797 0.80859-0.26172 0.03125-0.3125 0.04297-0.57812 0.04297-0.71094 0-1.1953-0.25781-1.2969-0.25781-0.0078 0-0.02734 0.0078-0.02734 0.02344 0 0.09766 0.20312 0.36328 0.60156 0.50781 0.52344 0.19141 1.3086 0.27344 1.4414 0.29297 0 0.02344-0.13281 0.27344-0.28125 0.32031-0.03125 0.0078-0.05859 0.01172-0.09375 0.0039-0.54688-0.10938-0.70313-0.15625-1.3945-0.41797-0.02344-0.0078-0.03516 0.0039-0.03516 0.02734 0 0.27344 0.71094 0.88281 1.3477 1.1133-0.53125 0.67969-1.1953 1.375-1.5117 2.4375-0.08594 0.0078-0.17188 0.01172-0.26172 0.01172-1.582 0-3.1484-1.0234-3.1484-2.332 0-0.69922 0.3125-1.1875 0.70312-1.7266 0.22656 0.03516 0.43359 0.05859 0.59766 0.05859 0.71484 0 1.1055-0.38672 1.1328-0.76172 0-0.33984-0.27734-0.59375-0.70703-0.59375-0.66406 0-1.875 0.62109-3.0977 0.62109 0.12109 0.08984 0.32422 0.1875 0.5625 0.27734-0.71484 0.64453-1.1914 1.5039-1.375 2.4297l-1.8711 2.9922c-0.3125 0.50391-0.97656 1.4844-1.9805 2.2539 1.2109 0 2.0156 0.02734 3.0391-1.5938l0.95703-1.5352c0.07031 0.19922 0.16016 0.39453 0.26172 0.58594l-1.9062 3.0508c-0.32031 0.50391-0.97656 1.4805-1.9805 2.25 1.2109 0 2.0117 0.02734 3.0352-1.5898l1.6406-2.6289c0.125 0.13281 0.25391 0.26172 0.39062 0.38281l-2.3164 3.707c-0.32031 0.50781-0.97266 1.4805-1.9805 2.25 1.2109 0 2.0117 0.03125 3.0352-1.5898l2.2578-3.6133c0.14844 0.09375 0.30078 0.18359 0.45703 0.26953l-2.7539 4.4102c-0.32031 0.50781-0.97266 1.4766-1.9805 2.25 1.2109 0 2.0117 0.02734 3.0352-1.5898l2.8398-4.543c0.16797 0.06641 0.33594 0.125 0.51172 0.18359l-3.207 5.1328c-0.3125 0.5-0.98437 1.4844-1.9805 2.25 1.2109 0 2.0117 0.02734 3.0352-1.5898l3.418-5.4727c0.03516 0.0078 0.07031 0.01172 0.10547 0.01953 0.09375 0.29688 0.15625 0.57031 0.15625 0.84766 0 1.7188-1.1289 3.2344-2.4805 4.4062 0.08594 0.03906 0.23438 0.05469 0.375 0.05469 0.28125 0 0.46094-0.01563 0.58594-0.03906-0.3125 0.71094-0.98438 1.6328-1.3242 2.1094-0.44531-0.07812-1.0898-0.14062-1.5117-0.14062-0.44141 0-0.49219 0.25781-0.49219 0.48828 0 0.40234 0.1875 0.71875 0.40625 0.89844 0.08203-0.20703 0.24609-0.48047 1.0625-0.48047 0.01563 0 0.04297 0.0039 0.08203 0.0039-0.23828 0.26562-0.98437 0.87109-0.98437 1.3555 0 0.32422 0.35156 0.80469 0.81641 0.80469-0.02734-0.10156-0.02344-0.19922-0.02344-0.26953 0-0.39453 0.35156-0.85547 0.64453-1.1758-0.0078 0.09375-0.0039 0.08594-0.0039 0.19531 0 0.93359 0.08594 1.3594 0.67578 1.3594 0.28906 0 0.48828-0.15625 0.55859-0.20703-0.38672-0.35156-0.40234-0.62891-0.40234-1.1523v-0.45312c0.0039-0.11719 0-0.27734-0.01953-0.39062 0.21094-0.02734 0.29688-0.02734 0.46094-0.02734 0 0 0.83984-0.06641 1.043 0.37109 0.22656-0.21094 0.55859-0.50391 0.55859-0.83203 0-0.21484-0.10156-0.45703-0.53516-0.45703-0.16406 0-0.67969 0.10156-1.1094 0.10156 0.11328-0.25781 0.62891-1.0117 1.0781-1.5586 0.06641 0.21094 0.17188 0.44141 0.40625 0.62891 0.03125-0.35156 0.23828-1.4648 0.78906-2.1172 0.0625 0.44141 0.14844 0.89062 0.14844 1.8438 0 2.3125-0.55469 4.0195-1.7344 4.3477 0.15234 0.26562 0.47656 0.50781 0.81641 0.50781 0.42969 0 0.66406-0.48828 0.90625-0.94922 0.125 0.33984 0.46875 1.1719 0.81641 1.1719 0.34375 0 0.69141-0.83203 0.81641-1.1719 0.23828 0.46094 0.47266 0.94922 0.90625 0.94922 0.33594 0 0.66406-0.24219 0.81641-0.50781-1.1797-0.32812-1.7383-2.0352-1.7383-4.3477 0-0.95312 0.08594-1.4023 0.15234-1.8438 0.54687 0.65234 0.75391 1.7656 0.78516 2.1172 0.23438-0.1875 0.34375-0.41797 0.41016-0.62891 0.44531 0.54688 0.96094 1.3008 1.0781 1.5586-0.43359 0-0.94922-0.10156-1.1094-0.10156-0.43359 0-0.53516 0.24219-0.53516 0.45703 0 0.32812 0.33203 0.62109 0.55859 0.83203 0.20312-0.4375 1.043-0.37109 1.043-0.37109 0.16016 0 0.24609 0 0.46094 0.02734-0.01953 0.11328-0.02344 0.27344-0.02344 0.39062 0.0039 0.18359 0.0039 0.31641 0.0039 0.45312 0 0.52344-0.01953 0.80078-0.40234 1.1523 0.07031 0.05078 0.26953 0.20703 0.55859 0.20703 0.58984 0 0.67578-0.42578 0.67578-1.3594 0-0.10938 0.0039-0.10156-0.0039-0.19531 0.29297 0.32031 0.64453 0.78125 0.64453 1.1758 0 0.07031 0 0.16797-0.02734 0.26953 0.46875 0 0.82031-0.48047 0.82031-0.80469 0-0.48437-0.74609-1.0898-0.98828-1.3555 0.03906 0 0.07031-0.0039 0.08203-0.0039 0.82031 0 0.98437 0.27344 1.0664 0.48047 0.21875-0.17969 0.40625-0.49609 0.40625-0.89844 0-0.23047-0.05078-0.48828-0.49219-0.48828-0.42188 0-1.0664 0.0625-1.5117 0.14062-0.33984-0.47656-1.0117-1.3984-1.3281-2.1094 0.12891 0.02344 0.30859 0.03906 0.58594 0.03906 0.14062 0 0.29297-0.01563 0.37891-0.05469-1.3555-1.1719-2.4844-2.6875-2.4844-4.4062 0-0.27734 0.06641-0.55078 0.16016-0.84766 0.03516-0.0078 0.07031-0.01172 0.10547-0.01953l3.418 5.4727c1.0195 1.6172 1.8242 1.5898 3.0312 1.5898-0.99219-0.76562-1.6641-1.75-1.9766-2.25l-3.207-5.1328c0.17188-0.05859 0.34375-0.11719 0.51172-0.18359l2.8359 4.543c1.0273 1.6172 1.8281 1.5898 3.0391 1.5898-1.0078-0.77344-1.6641-1.7422-1.9805-2.25l-2.7539-4.4102c0.15234-0.08594 0.30859-0.17578 0.45703-0.26953l2.2578 3.6133c1.0234 1.6211 1.8242 1.5898 3.0352 1.5898-1.0078-0.76953-1.6602-1.7422-1.9805-2.25l-2.3164-3.707c0.13672-0.12109 0.26562-0.25 0.38672-0.38281l1.6445 2.6289c1.0234 1.6172 1.8242 1.5898 3.0352 1.5898-1.0078-0.76953-1.6641-1.7461-1.9805-2.25l-1.9062-3.0508c0.10156-0.19141 0.1875-0.38672 0.26172-0.58594m-14.348-1.9766c0-1.1406 0.82812-2.043 1.1211-2.2969 0.07031 0.01563 0.14062 0.03516 0.20703 0.05078-0.30859 0.375-0.85547 1.0117-0.85547 1.8516 0 1.668 1.7812 3.1172 3.8008 3.1172-0.01563 0.14062-0.01953 0.29297-0.01953 0.44531 0 0.24609 0.01172 0.47656 0.03516 0.69141-2.2813-0.01172-4.2891-1.8633-4.2891-3.8594m3.0898 13.672-0.01172 0.03906h0.03906c0.64062 0 0.95312-0.04687 1.1602-0.07422 0.10938-0.01562 0.1875-0.02734 0.26953-0.02734 0.16406 0 0.29297 0.01563 0.29297 0.21875 0 0.13672-0.16016 0.35547-0.31641 0.48047-0.23438-0.22266-0.5625-0.26563-1.043-0.26563-0.22266 0-0.51953 0.03906-0.67578 0.0625l-0.02344 0.0039-0.02734 0.0039 0.0078 0.07422c0.01953 0.13281 0.03906 0.29688 0.03906 0.51953v0.20314l-0.0039 0.25c0 0.54297 0.07422 0.85547 0.26562 1.0898-0.05078 0.01953-0.12891 0.03516-0.17969 0.03516-0.33984 0-0.4375-0.14844-0.4375-1.125 0-0.19531-0.01172-0.375-0.01562-0.5l-0.01172-0.17969-0.04297 0.03125c-0.5 0.38281-1.0195 1.0664-1.0469 1.5781-0.15234-0.09766-0.31641-0.31641-0.31641-0.48438 0-0.27734 0.41797-0.69531 0.90625-1.1836l0.3125-0.3125-0.08984-0.02344c-0.10547-0.02734-0.30078-0.07813-0.46484-0.07813-0.54297 0-0.88672 0.10547-1.0977 0.33203-0.07422-0.10938-0.13672-0.36328-0.13672-0.51172 0-0.09766 0.01953-0.16406 0.05859-0.20312 0.04687-0.04687 0.12109-0.04687 0.18359-0.04687h0.01563c0.60156 0 1.3164 0.10938 1.5977 0.15234l0.01563 0.0039 0.01172-0.01172c0.04687-0.06641 1.1914-1.5898 1.4883-2.3984 0.07031-0.02734 0.12891-0.04687 0.25-0.04687 0.22656 0 0.28516 0.15234 0.35156 0.38672-0.71484 0.86719-1.1602 1.543-1.3242 2.0078m6.1758-2.3945c0.12109 0 0.17578 0.01953 0.24609 0.04687 0.29688 0.80859 1.4414 2.332 1.4922 2.3984l0.0078 0.01172 0.01954-0.0039c0.27734-0.04297 0.99609-0.15234 1.5977-0.15234h0.01172c0.06641 0 0.14062 0 0.1875 0.04687 0.03906 0.03906 0.05859 0.10547 0.05859 0.20312 0 0.14844-0.0625 0.40234-0.14062 0.51172-0.21094-0.22656-0.55078-0.33203-1.0977-0.33203-0.16406 0-0.35547 0.05078-0.46094 0.07813l-0.04297 0.0078-0.05078 0.01563 0.31641 0.3125c0.48438 0.48828 0.90625 0.90625 0.90625 1.1836 0 0.16797-0.16406 0.38672-0.31641 0.48438-0.03125-0.51172-0.54688-1.1953-1.0508-1.5781l-0.04297-0.03125-0.0078 0.17969c-0.0078 0.125-0.01563 0.30469-0.01563 0.5 0 0.97656-0.10156 1.125-0.4375 1.125-0.05078 0-0.13281-0.01563-0.17969-0.03516 0.1875-0.23436 0.26562-0.54686 0.26562-1.0898l-0.0039-0.25-0.0039-0.20312c0-0.22266 0.02344-0.38672 0.04297-0.51953l0.0078-0.07422-0.05078-0.0078c-0.16016-0.02344-0.45313-0.0625-0.67578-0.0625-0.48047 0-0.80859 0.04297-1.043 0.26563-0.15625-0.125-0.31641-0.34375-0.31641-0.48047 0-0.20312 0.125-0.21875 0.29297-0.21875 0.08203 0 0.16016 0.01172 0.26953 0.02734 0.20703 0.02734 0.51562 0.07422 1.1602 0.07422h0.03906l-0.01563-0.03906c-0.16016-0.46484-0.60547-1.1406-1.3203-2.0078 0.0625-0.23438 0.125-0.38672 0.35156-0.38672m-2.6484-13.301c-0.07422-0.29688-0.22656-0.59766-0.41797-0.82812-0.17578-0.20703-0.46875-0.45312-0.85938-0.45312-0.17969 0-0.48047 0.08203-0.66797 0.16406-0.07422-0.12891-0.21094-0.44531-0.21094-0.58594 0-0.14453 0.24609-0.29297 0.71484-0.29297 1.0312 0 1.6445 0.46875 1.6445 1.25 0 0.27344-0.10547 0.52734-0.20312 0.74609m0.46094-1.0156c-0.03516-0.22266-0.12109-0.42188-0.25-0.59375 0.0078-0.19922 0.08984-0.39453 0.41797-0.23438-0.17969 0.17969-0.04297 0.49609-0.04297 0.49609s0.35938-0.16406 0.28516-0.40234c0.53516 0.12891 0.15234 0.84375-0.41016 0.73438m2.0078 6.8984c0.02734-0.22266 0.04297-0.45312 0.04297-0.69141 0-0.12891 0-0.27734-0.01563-0.44922 1.9922-0.02734 3.7422-1.4609 3.7422-3.1133 0-0.83984-0.54688-1.4766-0.85938-1.8516 0.07031-0.01563 0.14062-0.03516 0.21094-0.05078 0.29297 0.25391 1.1211 1.1562 1.1211 2.2969 0 1.9805-1.9805 3.8203-4.2422 3.8594"/>
  <path d="m56 22v20h-3.5v-20"/>
 </g>
</svg>
