<?xml version="1.0" encoding="UTF-8" standalone="no"?>
<!-- Created with Inkscape (http://www.inkscape.org/) -->

<svg
   xmlns:dc="http://purl.org/dc/elements/1.1/"
   xmlns:cc="http://creativecommons.org/ns#"
   xmlns:rdf="http://www.w3.org/1999/02/22-rdf-syntax-ns#"
   xmlns:svg="http://www.w3.org/2000/svg"
   xmlns="http://www.w3.org/2000/svg"
   xmlns:sodipodi="http://sodipodi.sourceforge.net/DTD/sodipodi-0.dtd"
   xmlns:inkscape="http://www.inkscape.org/namespaces/inkscape"
   width="382.05832mm"
   height="130.88055mm"
   viewBox="0 0 382.05832 130.88055"
   version="1.1"
   id="svg8"
   inkscape:version="0.92.2 (5c3e80d, 2017-08-06)"
   sodipodi:docname="elliit.svg">
  <defs
     id="defs2" />
  <sodipodi:namedview
     id="base"
     pagecolor="#ffffff"
     bordercolor="#666666"
     borderopacity="1.0"
     inkscape:pageopacity="0.0"
     inkscape:pageshadow="2"
     inkscape:zoom="0.35"
     inkscape:cx="-21.297882"
     inkscape:cy="268.81347"
     inkscape:document-units="mm"
     inkscape:current-layer="layer1"
     showgrid="false"
     fit-margin-top="0"
     fit-margin-left="0"
     fit-margin-right="0"
     fit-margin-bottom="0"
     inkscape:window-width="1920"
     inkscape:window-height="1137"
     inkscape:window-x="-8"
     inkscape:window-y="-8"
     inkscape:window-maximized="1" />
  <metadata
     id="metadata5">
    <rdf:RDF>
      <cc:Work
         rdf:about="">
        <dc:format>image/svg+xml</dc:format>
        <dc:type
           rdf:resource="http://purl.org/dc/dcmitype/StillImage" />
        <dc:title></dc:title>
      </cc:Work>
    </rdf:RDF>
  </metadata>
  <g
     inkscape:label="Layer 1"
     inkscape:groupmode="layer"
     id="layer1"
     transform="translate(101.07083,-22.56408)">
    <path
       style="fill:#2181cd;fill-opacity:1;stroke-width:0.35277778"
       d="m -78.053087,130.42489 c -12.659756,-12.66086 -23.017743,-23.1785 -23.017743,-23.37253 0,-0.19403 10.439232,-10.79111 23.198289,-23.54907 l 23.198285,-23.19629 4.403308,4.41391 4.403309,4.4139 -18.869109,18.87158 -18.869106,18.87158 18.784178,18.78665 c 10.331301,10.33265 18.784181,18.94245 18.784181,19.13289 0,0.46088 -8.178133,8.64713 -8.63855,8.64713 -0.197616,0 -10.717286,-10.35889 -23.377042,-23.01975 z"
       id="path844"
       inkscape:connector-curvature="0" />
    <path
       style="fill:#c1a14d;fill-opacity:1;stroke-width:0.35277778"
       d="m -60.276427,111.06114 -4.516875,-4.29853 18.989868,-18.99232 18.989865,-18.99231 -18.869,-18.87147 -18.869003,-18.87148 4.22444,-4.23547 c 2.323444,-2.32952 4.386125,-4.23548 4.583737,-4.23548 0.197612,0 10.796774,10.43838 23.553694,23.1964 l 23.1943958,23.1964 -15.2578978,15.16888 c -8.391846,8.34289 -18.913803,18.78351 -23.382125,23.2014 l -8.124225,8.03251 z"
       id="path842"
       inkscape:connector-curvature="0" />
    <g
       id="g852"
       style="fill:#2181cd;fill-opacity:1">
      <path
         id="path840"
         d="M 17.462505,74.95158 V 39.49741 h 22.40139 22.40138 v 4.05695 4.05694 h -17.63888 -17.63889 v 10.40353 10.40352 l 16.84514,0.0916 16.84513,0.0916 0.0998,3.96875 0.0998,3.96875 h -16.94499 -16.94488 v 12.87639 12.87639 h 17.99166 17.99167 v 4.05695 4.05694 h -22.75417 -22.75416 z"
         style="fill:#2181cd;fill-opacity:1;stroke-width:0.35277778"
         inkscape:connector-curvature="0" />
      <path
         id="path838"
         d="M 70.379165,74.95158 V 39.49741 h 4.93889 4.93889 v 31.39723 31.39722 h 17.28611 17.286105 v 4.05695 4.05694 h -22.224995 -22.225 z"
         style="fill:#2181cd;fill-opacity:1;stroke-width:0.35277778"
         inkscape:connector-curvature="0" />
      <path
         id="path836"
         d="M 121.53194,74.95158 V 39.49741 h 4.93889 4.93889 v 31.39387 31.39387 l 17.19791,0.0915 17.19792,0.0915 0.0997,3.96875 0.0997,3.96875 H 143.7684 121.53185 Z"
         style="fill:#2181cd;fill-opacity:1;stroke-width:0.35277778"
         inkscape:connector-curvature="0" />
      <path
         id="path834"
         d="M 172.68471,74.95158 V 39.49741 h 4.7625 4.7625 v 35.45417 35.45417 h -4.7625 -4.7625 z"
         style="fill:#2181cd;fill-opacity:1;stroke-width:0.35277778"
         inkscape:connector-curvature="0" />
      <path
         id="path832"
         d="M 201.61249,74.95158 V 39.49741 h 4.7625 4.7625 v 35.45417 35.45417 h -4.7625 -4.7625 z"
         style="fill:#2181cd;fill-opacity:1;stroke-width:0.35277778"
         inkscape:connector-curvature="0" />
      <path
         id="path828"
         d="M 246.06249,79.00853 V 47.6113 h -12.7 -12.7 v -4.05694 -4.05695 h 30.1625 30.1625 v 4.05695 4.05694 h -12.7 -12.7 v 31.39723 31.39722 h -4.7625 -4.7625 z"
         style="fill:#2181cd;fill-opacity:1;stroke-width:0.35277778"
         inkscape:connector-curvature="0" />
    </g>
  </g>
</svg>
