<?xml version="1.0" encoding="UTF-8" standalone="no"?>
<svg
   xmlns:dc="http://purl.org/dc/elements/1.1/"
   xmlns:cc="http://creativecommons.org/ns#"
   xmlns:rdf="http://www.w3.org/1999/02/22-rdf-syntax-ns#"
   xmlns:svg="http://www.w3.org/2000/svg"
   xmlns="http://www.w3.org/2000/svg"
   xmlns:sodipodi="http://sodipodi.sourceforge.net/DTD/sodipodi-0.dtd"
   xmlns:inkscape="http://www.inkscape.org/namespaces/inkscape"
   width="314pt"
   height="115pt"
   viewBox="0 0 314 115"
   version="1.2"
   id="svg49"
   sodipodi:docname="liu-white.svg"
   inkscape:version="1.0.1 (3bc2e813f5, 2020-09-07)">
  <metadata
     id="metadata55">
    <rdf:RDF>
      <cc:Work
         rdf:about="">
        <dc:format>image/svg+xml</dc:format>
        <dc:type
           rdf:resource="http://purl.org/dc/dcmitype/StillImage" />
        <dc:title></dc:title>
      </cc:Work>
    </rdf:RDF>
  </metadata>
  <defs
     id="defs53" />
  <sodipodi:namedview
     pagecolor="#ffffff"
     bordercolor="#666666"
     borderopacity="1"
     objecttolerance="10"
     gridtolerance="10"
     guidetolerance="10"
     inkscape:pageopacity="0"
     inkscape:pageshadow="2"
     inkscape:window-width="2410"
     inkscape:window-height="1205"
     id="namedview51"
     showgrid="false"
     inkscape:zoom="3.4084395"
     inkscape:cx="200.55646"
     inkscape:cy="76.666667"
     inkscape:window-x="0"
     inkscape:window-y="0"
     inkscape:window-maximized="0"
     inkscape:current-layer="svg49" />
  <g
     id="surface6094">
    <path
       style=" stroke:none;fill-rule:nonzero;fill:rgb(100%,100%,100%);fill-opacity:1;"
       d="M 48.488281 92.410156 L 69.929688 92.410156 L 69.929688 44.621094 L 48.488281 44.621094 L 48.488281 92.410156 "
       id="path2" />
    <path
       style=" stroke:none;fill-rule:nonzero;fill:rgb(100%,100%,100%);fill-opacity:1;"
       d="M 21.917969 92.410156 L 43.355469 92.410156 L 43.355469 23.195313 L 21.917969 23.195313 L 21.917969 92.410156 "
       id="path4" />
    <path
       style=" stroke:none;fill-rule:nonzero;fill:rgb(100%,100%,100%);fill-opacity:1;"
       d="M 95.351563 82.816406 C 95.351563 76.515625 90.257813 71.359375 83.917969 71.359375 C 77.691406 71.359375 72.59375 76.515625 72.59375 82.816406 C 72.59375 89.117188 77.691406 94.160156 83.917969 94.160156 C 90.257813 94.160156 95.351563 89.117188 95.351563 82.816406 "
       id="path6" />
    <path
       style=" stroke:none;fill-rule:nonzero;fill:rgb(100%,100%,100%);fill-opacity:1;"
       d="M 122.855469 44.621094 L 122.855469 72.355469 C 122.855469 74.816406 121.839844 76.046875 119.816406 76.046875 C 117.761719 76.046875 116.734375 74.816406 116.734375 72.355469 L 116.734375 44.621094 L 95.355469 44.621094 L 95.355469 67.019531 C 95.355469 74.90625 97.207031 81.074219 100.914063 85.511719 C 105.683594 91.203125 111.976563 93.78125 119.792969 93.78125 C 127.609375 93.78125 133.902344 91.203125 138.675781 85.511719 C 142.378906 81.074219 144.230469 74.90625 144.230469 67.019531 L 144.230469 44.621094 L 122.855469 44.621094 "
       id="path8" />
    <path
       style=" stroke:none;fill-rule:nonzero;fill:rgb(100%,100%,100%);fill-opacity:1;"
       d="M 189.363281 65.128906 L 187.660156 65.128906 L 187.636719 65.082031 L 177.632813 48.269531 L 177.632813 65.128906 L 175.746094 65.128906 L 175.746094 44.621094 L 177.421875 44.621094 L 177.445313 44.667969 L 187.476563 61.535156 L 187.476563 44.621094 L 189.363281 44.621094 L 189.363281 65.128906 "
       id="path10" />
    <path
       style=" stroke:none;fill-rule:nonzero;fill:rgb(100%,100%,100%);fill-opacity:1;"
       d="M 261.363281 65.128906 L 259.660156 65.128906 L 259.636719 65.082031 L 249.632813 48.269531 L 249.632813 65.128906 L 247.746094 65.128906 L 247.746094 44.621094 L 249.417969 44.621094 L 249.445313 44.667969 L 259.476563 61.535156 L 259.476563 44.621094 L 261.363281 44.621094 L 261.363281 65.128906 "
       id="path12" />
    <path
       style=" stroke:none;fill-rule:nonzero;fill:rgb(100%,100%,100%);fill-opacity:1;"
       d="M 167.480469 65.128906 L 156.65625 65.128906 L 156.65625 44.621094 L 158.542969 44.621094 L 158.542969 63.296875 L 167.480469 63.296875 L 167.480469 65.128906 "
       id="path14" />
    <path
       style=" stroke:none;fill-rule:nonzero;fill:rgb(100%,100%,100%);fill-opacity:1;"
       d="M 171.585938 65.128906 L 169.699219 65.128906 L 169.699219 44.621094 L 171.585938 44.621094 L 171.585938 65.128906 "
       id="path16" />
    <path
       style=" stroke:none;fill-rule:nonzero;fill:rgb(100%,100%,100%);fill-opacity:1;"
       d="M 214.699219 65.355469 C 210.640625 65.355469 207.804688 62.414063 207.804688 58.203125 L 207.804688 51.488281 C 207.804688 47.257813 210.640625 44.304688 214.699219 44.304688 C 218.757813 44.304688 221.59375 47.257813 221.59375 51.488281 L 221.59375 58.203125 C 221.59375 62.414063 218.757813 65.355469 214.699219 65.355469 Z M 214.699219 46.132813 C 211.703125 46.132813 209.6875 48.25 209.6875 51.398438 L 209.6875 58.261719 C 209.6875 61.414063 211.703125 63.53125 214.699219 63.53125 C 217.695313 63.53125 219.707031 61.414063 219.707031 58.261719 L 219.707031 51.429688 C 219.707031 48.261719 217.695313 46.132813 214.699219 46.132813 Z M 217.324219 43.417969 C 216.703125 43.417969 216.179688 42.890625 216.179688 42.269531 C 216.179688 41.648438 216.703125 41.121094 217.324219 41.121094 C 217.945313 41.121094 218.472656 41.648438 218.472656 42.269531 C 218.472656 42.890625 217.945313 43.417969 217.324219 43.417969 Z M 212.070313 43.417969 C 211.449219 43.417969 210.925781 42.890625 210.925781 42.269531 C 210.925781 41.648438 211.449219 41.121094 212.070313 41.121094 C 212.695313 41.121094 213.222656 41.648438 213.222656 42.269531 C 213.222656 42.890625 212.695313 43.417969 212.070313 43.417969 "
       id="path18" />
    <path
       style=" stroke:none;fill-rule:nonzero;fill:rgb(100%,100%,100%);fill-opacity:1;"
       d="M 227.214844 65.128906 L 225.328125 65.128906 L 225.328125 44.621094 L 231.214844 44.621094 C 235.453125 44.621094 238.195313 47.371094 238.195313 51.632813 L 238.195313 52.378906 C 238.195313 56.617188 235.519531 59.246094 231.214844 59.246094 L 227.214844 59.246094 Z M 227.214844 57.417969 L 231.15625 57.417969 C 234.382813 57.417969 236.3125 55.527344 236.3125 52.351563 L 236.3125 51.632813 C 236.3125 48.355469 234.433594 46.476563 231.15625 46.476563 L 227.214844 46.476563 L 227.214844 57.417969 "
       id="path20" />
    <path
       style=" stroke:none;fill-rule:nonzero;fill:rgb(100%,100%,100%);fill-opacity:1;"
       d="M 243.363281 65.128906 L 241.480469 65.128906 L 241.480469 44.621094 L 243.363281 44.621094 L 243.363281 65.128906 "
       id="path22" />
    <path
       style=" stroke:none;fill-rule:nonzero;fill:rgb(100%,100%,100%);fill-opacity:1;"
       d="M 271.945313 65.414063 C 267.90625 65.414063 265.082031 62.472656 265.082031 58.261719 L 265.082031 51.429688 C 265.082031 47.21875 267.90625 44.277344 271.945313 44.277344 C 275.917969 44.277344 278.753906 47.144531 278.84375 51.253906 L 278.84375 51.347656 L 276.960938 51.347656 L 276.957031 51.257813 C 276.902344 48.175781 274.890625 46.101563 271.945313 46.101563 C 268.828125 46.101563 266.96875 48.253906 266.96875 51.863281 L 266.96875 58.289063 C 266.96875 61.441406 268.96875 63.558594 271.945313 63.558594 C 274.945313 63.558594 276.957031 61.441406 276.957031 58.289063 L 276.957031 57.226563 L 271.886719 57.226563 L 271.886719 55.519531 L 278.84375 55.519531 L 278.84375 58.261719 C 278.84375 62.472656 276.007813 65.414063 271.945313 65.414063 "
       id="path24" />
    <path
       style=" stroke:none;fill-rule:nonzero;fill:rgb(100%,100%,100%);fill-opacity:1;"
       d="M 207.429688 65.128906 L 205.1875 65.128906 L 205.160156 65.09375 L 198.03125 55.585938 L 195.929688 55.585938 L 195.929688 65.128906 L 194.042969 65.128906 L 194.042969 44.621094 L 195.929688 44.621094 L 195.929688 53.816406 L 198.058594 53.816406 L 204.144531 44.621094 L 206.300781 44.621094 L 199.636719 54.714844 L 207.429688 65.128906 "
       id="path26" />
    <path
       style=" stroke:none;fill-rule:nonzero;fill:rgb(100%,100%,100%);fill-opacity:1;"
       d="M 188.300781 92.410156 L 186.597656 92.410156 L 186.570313 92.367188 L 176.570313 75.554688 L 176.570313 92.410156 L 174.683594 92.410156 L 174.683594 71.90625 L 176.355469 71.90625 L 176.382813 71.953125 L 186.410156 88.824219 L 186.410156 71.90625 L 188.300781 71.90625 L 188.300781 92.410156 "
       id="path28" />
    <path
       style=" stroke:none;fill-rule:nonzero;fill:rgb(100%,100%,100%);fill-opacity:1;"
       d="M 205.285156 92.410156 L 203.480469 92.410156 L 203.460938 92.347656 L 196.765625 71.90625 L 198.746094 71.90625 L 198.769531 71.96875 L 204.386719 89.433594 L 210.054688 71.90625 L 212.035156 71.90625 L 211.992188 72.027344 L 205.285156 92.410156 "
       id="path30" />
    <path
       style=" stroke:none;fill-rule:nonzero;fill:rgb(100%,100%,100%);fill-opacity:1;"
       d="M 163.265625 92.640625 C 159.207031 92.640625 156.371094 89.699219 156.371094 85.488281 L 156.371094 71.90625 L 158.257813 71.90625 L 158.257813 85.546875 C 158.257813 88.699219 160.269531 90.816406 163.265625 90.816406 C 166.261719 90.816406 168.273438 88.699219 168.273438 85.546875 L 168.273438 71.90625 L 170.160156 71.90625 L 170.160156 85.488281 C 170.160156 89.699219 167.324219 92.640625 163.265625 92.640625 "
       id="path32" />
    <path
       style=" stroke:none;fill-rule:nonzero;fill:rgb(100%,100%,100%);fill-opacity:1;"
       d="M 194.601563 92.410156 L 192.71875 92.410156 L 192.71875 71.90625 L 194.601563 71.90625 L 194.601563 92.410156 "
       id="path34" />
    <path
       style=" stroke:none;fill-rule:nonzero;fill:rgb(100%,100%,100%);fill-opacity:1;"
       d="M 241.230469 92.40625 L 238.945313 92.40625 L 238.921875 92.371094 L 234.019531 85.953125 L 230.207031 85.953125 L 230.207031 92.40625 L 228.320313 92.40625 L 228.320313 71.902344 L 234.296875 71.902344 C 238.546875 71.902344 241.1875 74.488281 241.1875 78.65625 L 241.1875 79.402344 C 241.1875 82.777344 239.238281 85.09375 235.964844 85.636719 Z M 230.207031 84.125 L 234.148438 84.125 C 237.378906 84.125 239.304688 82.359375 239.304688 79.402344 L 239.304688 78.59375 C 239.304688 75.476563 237.476563 73.761719 234.148438 73.761719 L 230.207031 73.761719 L 230.207031 84.125 "
       id="path36" />
    <path
       style=" stroke:none;fill-rule:nonzero;fill:rgb(100%,100%,100%);fill-opacity:1;"
       d="M 262.339844 92.40625 L 260.453125 92.40625 L 260.453125 71.902344 L 262.339844 71.902344 L 262.339844 92.40625 "
       id="path38" />
    <path
       style=" stroke:none;fill-rule:nonzero;fill:rgb(100%,100%,100%);fill-opacity:1;"
       d="M 225.558594 92.410156 L 214.105469 92.410156 L 214.105469 71.90625 L 225.296875 71.90625 L 225.296875 73.761719 L 215.988281 73.761719 L 215.988281 81.1875 L 222.851563 81.1875 L 222.851563 82.902344 L 215.988281 82.902344 L 215.988281 90.582031 L 225.558594 90.582031 L 225.558594 92.410156 "
       id="path40" />
    <path
       style=" stroke:none;fill-rule:nonzero;fill:rgb(100%,100%,100%);fill-opacity:1;"
       d="M 250.632813 81.339844 C 247.9375 80.664063 245.398438 80.027344 245.398438 77.15625 C 245.398438 74.792969 247.011719 73.386719 249.929688 73.386719 C 252.15625 73.386719 254.527344 74.660156 254.640625 78.195313 L 256.53125 78.195313 C 256.417969 73.308594 253.097656 71.558594 249.988281 71.558594 C 245.929688 71.558594 243.539063 73.703125 243.539063 77.15625 C 243.539063 81.398438 246.929688 82.257813 249.917969 83.011719 C 252.523438 83.667969 254.984375 84.289063 254.984375 86.984375 C 254.984375 89.910156 252.441406 90.957031 250.0625 90.957031 C 246.941406 90.957031 245.078125 88.921875 245.078125 85.515625 L 245.078125 85.421875 L 243.222656 85.421875 L 243.222656 85.515625 C 243.222656 89.910156 245.90625 92.753906 250.0625 92.753906 C 254.195313 92.753906 256.867188 90.476563 256.867188 86.957031 C 256.867188 82.902344 253.695313 82.105469 250.632813 81.339844 "
       id="path42" />
    <path
       style=" stroke:none;fill-rule:nonzero;fill:rgb(100%,100%,100%);fill-opacity:1;"
       d="M 271.433594 92.40625 L 269.550781 92.40625 L 269.550781 73.761719 L 264.070313 73.761719 L 264.070313 71.902344 L 276.710938 71.902344 L 276.710938 73.761719 L 271.433594 73.761719 L 271.433594 92.40625 "
       id="path44" />
    <path
       style=" stroke:none;fill-rule:nonzero;fill:rgb(100%,100%,100%);fill-opacity:1;"
       d="M 279.457031 71.902344 L 284.621094 82.996094 L 289.800781 71.902344 L 291.773438 71.902344 L 285.492188 84.753906 L 285.492188 92.40625 L 283.777344 92.40625 L 283.777344 84.753906 L 277.519531 71.902344 L 279.457031 71.902344 "
       id="path46" />
  </g>
</svg>
