<?xml version="1.0" encoding="UTF-8" standalone="no"?>
<!-- Created with Inkscape (http://www.inkscape.org/) -->

<svg
   xmlns:dc="http://purl.org/dc/elements/1.1/"
   xmlns:cc="http://creativecommons.org/ns#"
   xmlns:rdf="http://www.w3.org/1999/02/22-rdf-syntax-ns#"
   xmlns:svg="http://www.w3.org/2000/svg"
   xmlns="http://www.w3.org/2000/svg"
   xmlns:sodipodi="http://sodipodi.sourceforge.net/DTD/sodipodi-0.dtd"
   xmlns:inkscape="http://www.inkscape.org/namespaces/inkscape"
   width="50.684475mm"
   height="20.235533mm"
   viewBox="0 0 179.59066 71.700707"
   id="svg2"
   version="1.1"
   inkscape:version="0.91 r13725"
   sodipodi:docname="serc-logo.svg"
   inkscape:export-filename="H:\Documents\images\logos\serc-logo.png"
   inkscape:export-xdpi="600"
   inkscape:export-ydpi="600">
  <defs
     id="defs4" />
  <sodipodi:namedview
     id="base"
     pagecolor="#ffffff"
     bordercolor="#666666"
     borderopacity="1.0"
     inkscape:pageopacity="0.0"
     inkscape:pageshadow="2"
     inkscape:zoom="5.6"
     inkscape:cx="109.59389"
     inkscape:cy="24.307033"
     inkscape:document-units="px"
     inkscape:current-layer="layer1"
     showgrid="false"
     fit-margin-top="0"
     fit-margin-left="0"
     fit-margin-right="0"
     fit-margin-bottom="0"
     showguides="true"
     inkscape:guide-bbox="true"
     inkscape:window-width="1920"
     inkscape:window-height="1138"
     inkscape:window-x="-8"
     inkscape:window-y="-8"
     inkscape:window-maximized="1" />
  <metadata
     id="metadata7">
    <rdf:RDF>
      <cc:Work
         rdf:about="">
        <dc:format>image/svg+xml</dc:format>
        <dc:type
           rdf:resource="http://purl.org/dc/dcmitype/StillImage" />
        <dc:title />
      </cc:Work>
    </rdf:RDF>
  </metadata>
  <g
     inkscape:label="Layer 1"
     inkscape:groupmode="layer"
     id="layer1"
     transform="translate(-493.56523,-723.54226)">
    <path
       id="path4387"
       style="font-style:normal;font-variant:normal;font-weight:normal;font-stretch:normal;font-size:16.24995995px;line-height:125%;font-family:Ebrima;-inkscape-font-specification:Ebrima;text-align:start;letter-spacing:0px;word-spacing:0px;writing-mode:lr-tb;text-anchor:start;fill:#0095ae;fill-opacity:1;stroke:#0095ae;stroke-width:0.375;stroke-linecap:butt;stroke-linejoin:miter;stroke-miterlimit:4;stroke-dasharray:none;stroke-opacity:1"
       d="m 672.50604,790.83549 -4.05194,0 q 0.0224,1.4431 0.5156,2.22795 0.49318,0.78484 1.35625,0.78484 0.96955,0 1.78218,-0.96207 l 0,1.29964 q -0.75659,0.82704 -2.00075,0.82704 -1.21614,0 -1.91108,-1.17305 -0.69494,-1.18148 -0.69494,-3.3166 0,-2.01696 0.75659,-3.28284 0.76219,-1.27431 1.88866,-1.27431 1.12647,0 1.74295,1.09709 0.61648,1.09709 0.61648,3.04654 l 0,0.72577 z m -0.94154,-1.17304 q -0.006,-1.19837 -0.38669,-1.86506 -0.3755,-0.6667 -1.04801,-0.6667 -0.65011,0 -1.10406,0.70046 -0.45395,0.70045 -0.56043,1.8313 l 3.09919,0 z m -4.66842,-2.09292 q -0.24098,-0.27849 -0.69494,-0.27849 -0.58845,0 -0.98636,0.83548 -0.3923,0.83548 -0.3923,2.27858 l 0,4.40525 -0.91911,0 0,-8.64172 0.91911,0 0,1.78066 0.0224,0 q 0.19616,-0.91143 0.59967,-1.41778 0.40351,-0.51479 0.9023,-0.51479 0.35867,0 0.54922,0.11815 l 0,1.43466 z m -4.23127,7.15642 q -0.32505,0.27006 -0.85746,0.27006 -1.50757,0 -1.50757,-2.53176 l 0,-5.11414 -0.98636,0 0,-1.18148 0.98636,0 0,-2.1098 0.91911,-0.44727 0,2.55707 1.44592,0 0,1.18148 -1.44592,0 0,4.86941 q 0,0.86923 0.19615,1.24056 0.19616,0.37132 0.65011,0.37132 0.34747,0 0.59966,-0.28693 l 0,1.18148 z m -4.3994,0.0844 -0.91911,0 0,-4.92848 q 0,-2.75118 -1.33383,-2.75118 -0.68933,0 -1.14329,0.78485 -0.44834,0.7764 -0.44834,1.96633 l 0,4.92848 -0.91911,0 0,-8.64172 0.91911,0 0,1.43466 0.0224,0 q 0.6501,-1.6372 1.88306,-1.6372 0.94152,0 1.44031,0.91987 0.49878,0.91143 0.49878,2.64146 l 0,5.28293 z m -6.15917,-3.97486 -4.05193,0 q 0.0224,1.4431 0.5156,2.22795 0.49318,0.78484 1.35625,0.78484 0.96955,0 1.78218,-0.96207 l 0,1.29964 q -0.75659,0.82704 -2.00075,0.82704 -1.21614,0 -1.91108,-1.17305 -0.69494,-1.18148 -0.69494,-3.3166 0,-2.01696 0.75659,-3.28284 0.76219,-1.27431 1.88866,-1.27431 1.12647,0 1.74295,1.09709 0.61647,1.09709 0.61647,3.04654 l 0,0.72577 z m -0.94152,-1.17304 q -0.006,-1.19837 -0.38671,-1.86506 -0.37548,-0.6667 -1.04801,-0.6667 -0.65009,0 -1.10405,0.70046 -0.45395,0.70045 -0.56043,1.8313 l 3.0992,0 z m -5.18401,4.64155 q -0.89109,0.70889 -2.21932,0.70889 -1.71492,0 -2.74612,-1.66252 -1.0312,-1.66252 -1.0312,-4.36306 0,-2.90307 1.1601,-4.69218 1.1601,-1.78911 2.94228,-1.78911 1.14328,0 1.89426,0.49792 l 0,1.51061 q -0.86307,-0.72577 -1.90547,-0.72577 -1.38428,0 -2.24735,1.39246 -0.85745,1.39247 -0.85745,3.72168 0,2.21107 0.80141,3.52758 0.80703,1.30807 2.11284,1.30807 1.21054,0 2.09602,-0.81016 l 0,1.37559 z m -10.4689,0.50635 -0.91912,0 0,-4.97912 q 0,-2.70054 -1.33383,-2.70054 -0.67251,0 -1.13207,0.78485 -0.45956,0.7764 -0.45956,2.00008 l 0,4.89473 -0.91911,0 0,-12.7938 0.91911,0 0,5.58674 0.0224,0 q 0.66131,-1.6372 1.88306,-1.6372 1.9391,0 1.9391,3.51913 l 0,5.32513 z m -6.16478,-0.39665 q -0.66131,0.59919 -1.56921,0.59919 -1.22735,0 -1.98393,-1.19837 -0.75098,-1.2068 -0.75098,-3.12249 0,-2.13512 0.81263,-3.42631 0.81263,-1.29963 2.16887,-1.29963 0.75659,0 1.33383,0.42196 l 0,1.41778 q -0.63889,-0.67514 -1.36745,-0.67514 -0.87988,0 -1.44592,0.95363 -0.56044,0.94519 -0.56044,2.48956 0,1.51905 0.52681,2.39673 0.53241,0.87767 1.42351,0.87767 0.75097,0 1.41228,-0.75109 l 0,1.31651 z m -4.90939,-6.84417 q -0.24099,-0.27849 -0.69494,-0.27849 -0.58846,0 -0.98636,0.83548 -0.39231,0.83548 -0.39231,2.27858 l 0,4.40525 -0.9191,0 0,-8.64172 0.9191,0 0,1.78066 0.0224,0 q 0.19615,-0.91143 0.59967,-1.41778 0.40351,-0.51479 0.90229,-0.51479 0.35868,0 0.54923,0.11815 l 0,1.43466 z m -4.73566,7.24082 -0.91911,0 0,-1.35027 -0.0224,0 q -0.59966,1.55281 -1.76537,1.55281 -0.85746,0 -1.34504,-0.68358 -0.48197,-0.68357 -0.48197,-1.81442 0,-2.42205 1.89427,-2.81869 l 1.72053,-0.36288 q 0,-2.20263 -1.18252,-2.20263 -1.0368,0 -1.87185,1.06334 l 0,-1.41778 q 0.84626,-0.81016 1.95032,-0.81016 2.02316,0 2.02316,3.22376 l 0,5.6205 z m -0.91911,-4.3715 -1.38427,0.28693 q -0.6389,0.13503 -0.96394,0.48104 -0.32506,0.33756 -0.32506,1.2068 0,0.63294 0.29704,1.03802 0.30263,0.39664 0.80142,0.39664 0.68372,0 1.12646,-0.71733 0.44835,-0.72577 0.44835,-1.8313 l 0,-0.8608 z m -4.58435,0.39664 -4.05193,0 q 0.0224,1.4431 0.5156,2.22795 0.49318,0.78484 1.35625,0.78484 0.96954,0 1.78217,-0.96207 l 0,1.29964 q -0.75658,0.82704 -2.00075,0.82704 -1.21614,0 -1.91107,-1.17305 -0.69494,-1.18148 -0.69494,-3.3166 0,-2.01696 0.75659,-3.28284 0.76219,-1.27431 1.88865,-1.27431 1.12648,0 1.74296,1.09709 0.61647,1.09709 0.61647,3.04654 l 0,0.72577 z m -0.94153,-1.17304 q -0.006,-1.19837 -0.3867,-1.86506 -0.37549,-0.6667 -1.04801,-0.6667 -0.6501,0 -1.10405,0.70046 -0.45396,0.70045 -0.56043,1.8313 l 3.09919,0 z m -8.88287,4.83565 0,-1.4853 q 0.75098,0.83548 1.65328,0.83548 1.21053,0 1.21053,-1.21524 0,-0.34601 -0.10648,-0.58231 -0.10088,-0.24473 -0.28021,-0.43039 -0.17374,-0.18567 -0.41473,-0.32913 -0.23538,-0.15191 -0.50999,-0.31225 -0.38109,-0.22786 -0.67252,-0.45572 -0.28582,-0.23629 -0.48197,-0.52323 -0.19055,-0.29537 -0.29143,-0.66669 -0.0953,-0.37132 -0.0953,-0.86924 0,-0.60762 0.18494,-1.07177 0.18494,-0.4726 0.49318,-0.78485 0.30824,-0.32068 0.70055,-0.48103 0.3979,-0.16034 0.81823,-0.16034 0.74538,0 1.33383,0.3882 l 0,1.4009 q -0.63329,-0.6245 -1.45713,-0.6245 -0.2578,0 -0.46516,0.0928 -0.20736,0.0844 -0.35868,0.24474 -0.14571,0.16035 -0.22977,0.3882 -0.0785,0.21942 -0.0785,0.48947 0,0.33757 0.0785,0.56543 0.0841,0.22786 0.24098,0.40508 0.15693,0.17722 0.3811,0.32069 0.22417,0.14347 0.50999,0.31225 0.38109,0.21942 0.68373,0.45572 0.30264,0.22785 0.5156,0.52322 0.21296,0.28694 0.32505,0.6667 0.11769,0.37976 0.11769,0.90299 0,0.64138 -0.19055,1.11397 -0.18494,0.4726 -0.49878,0.78485 -0.31385,0.31225 -0.72296,0.46415 -0.40912,0.15191 -0.85747,0.15191 -0.88548,0 -1.53558,-0.51479 z m -1.04802,-3.66261 -4.05193,0 q 0.0224,1.4431 0.5156,2.22795 0.49318,0.78484 1.35625,0.78484 0.96955,0 1.78218,-0.96207 l 0,1.29964 q -0.75659,0.82704 -2.00075,0.82704 -1.21614,0 -1.91108,-1.17305 -0.69494,-1.18148 -0.69494,-3.3166 0,-2.01696 0.75659,-3.28284 0.76219,-1.27431 1.88866,-1.27431 1.12647,0 1.74295,1.09709 0.61647,1.09709 0.61647,3.04654 l 0,0.72577 z m -0.94152,-1.17304 q -0.006,-1.19837 -0.38671,-1.86506 -0.37548,-0.6667 -1.04801,-0.6667 -0.6501,0 -1.10405,0.70046 -0.45395,0.70045 -0.56043,1.8313 l 3.0992,0 z m -4.646,5.1479 -1.12086,0 -1.34504,-3.39255 q -0.18494,-0.4726 -0.35868,-0.80173 -0.17373,-0.33756 -0.35867,-0.54854 -0.17935,-0.21098 -0.39231,-0.30381 -0.20736,-0.10127 -0.47077,-0.10127 l -0.77339,0 0,5.1479 -0.94153,0 0,-12.10178 2.39865,0 q 0.52681,0 0.96956,0.20254 0.44834,0.1941 0.7734,0.59918 0.33065,0.40508 0.51559,1.0127 0.18494,0.59918 0.18494,1.40935 0,0.63293 -0.1289,1.1646 -0.12329,0.52323 -0.35867,0.93675 -0.22978,0.41352 -0.56044,0.70889 -0.32505,0.28693 -0.73416,0.44728 l 0,0.0338 q 0.20175,0.13502 0.34746,0.31225 0.15132,0.16878 0.28582,0.40508 0.13451,0.23629 0.26341,0.5401 0.1345,0.29538 0.29703,0.69202 l 1.50756,3.63728 z m -4.81972,-10.81903 0,4.38837 1.27778,0 q 0.35308,0 0.65011,-0.16034 0.30263,-0.16035 0.5212,-0.45572 0.21857,-0.30381 0.34186,-0.73421 0.1233,-0.43883 0.1233,-0.97894 0,-0.97051 -0.42033,-1.51061 -0.41471,-0.54855 -1.20493,-0.54855 l -1.28899,0 z m -5.59874,6.84417 -4.05193,0 q 0.0224,1.4431 0.5156,2.22795 0.49318,0.78484 1.35625,0.78484 0.96955,0 1.78218,-0.96207 l 0,1.29964 q -0.75659,0.82704 -2.00075,0.82704 -1.21615,0 -1.91108,-1.17305 -0.69493,-1.18148 -0.69493,-3.3166 0,-2.01696 0.75658,-3.28284 0.76219,-1.27431 1.88866,-1.27431 1.12647,0 1.74295,1.09709 0.61647,1.09709 0.61647,3.04654 l 0,0.72577 z m -0.94153,-1.17304 q -0.006,-1.19837 -0.38669,-1.86506 -0.37549,-0.6667 -1.04801,-0.6667 -0.65011,0 -1.10406,0.70046 -0.45395,0.70045 -0.56043,1.8313 l 3.09919,0 z m -5.07192,4.75125 q -0.66131,0.59919 -1.56921,0.59919 -1.22735,0 -1.98393,-1.19837 -0.75098,-1.2068 -0.75098,-3.12249 0,-2.13512 0.81263,-3.42631 0.81263,-1.29963 2.16887,-1.29963 0.75659,0 1.33383,0.42196 l 0,1.41778 q -0.63889,-0.67514 -1.36745,-0.67514 -0.87989,0 -1.44592,0.95363 -0.56044,0.94519 -0.56044,2.48956 0,1.51905 0.52681,2.39673 0.53241,0.87767 1.4235,0.87767 0.75098,0 1.41229,-0.75109 l 0,1.31651 z m -5.64917,0.39665 -0.91911,0 0,-4.92848 q 0,-2.75118 -1.33383,-2.75118 -0.68934,0 -1.14328,0.78485 -0.44835,0.7764 -0.44835,1.96633 l 0,4.92848 -0.91911,0 0,-8.64172 0.91911,0 0,1.43466 0.0224,0 q 0.6501,-1.6372 1.88306,-1.6372 0.94152,0 1.44031,0.91987 0.49878,0.91143 0.49878,2.64146 l 0,5.28293 z m -6.15916,-3.97486 -4.05194,0 q 0.0224,1.4431 0.5156,2.22795 0.49318,0.78484 1.35625,0.78484 0.96955,0 1.78217,-0.96207 l 0,1.29964 q -0.75658,0.82704 -2.00074,0.82704 -1.21614,0 -1.91108,-1.17305 -0.69494,-1.18148 -0.69494,-3.3166 0,-2.01696 0.75659,-3.28284 0.76219,-1.27431 1.88866,-1.27431 1.12647,0 1.74295,1.09709 0.61648,1.09709 0.61648,3.04654 l 0,0.72577 z m -0.94154,-1.17304 q -0.006,-1.19837 -0.38669,-1.86506 -0.3755,-0.6667 -1.04801,-0.6667 -0.65011,0 -1.10406,0.70046 -0.45395,0.70045 -0.56043,1.8313 l 3.09919,0 z m -5.97982,-5.68801 q -0.24659,0 -0.42032,-0.25317 -0.17374,-0.25318 -0.17374,-0.64138 0,-0.3882 0.17374,-0.64138 0.17373,-0.26161 0.42032,-0.26161 0.2522,0 0.42593,0.26161 0.17934,0.25318 0.17934,0.64138 0,0.37132 -0.17934,0.63294 -0.17373,0.26161 -0.42593,0.26161 z m 0.44835,10.83591 -0.91911,0 0,-8.64172 0.91911,0 0,8.64172 z m -2.3202,-0.39665 q -0.66131,0.59919 -1.56921,0.59919 -1.22735,0 -1.98394,-1.19837 -0.75098,-1.2068 -0.75098,-3.12249 0,-2.13512 0.81263,-3.42631 0.81263,-1.29963 2.16888,-1.29963 0.75659,0 1.33383,0.42196 l 0,1.41778 q -0.63889,-0.67514 -1.36745,-0.67514 -0.87989,0 -1.44593,0.95363 -0.56043,0.94519 -0.56043,2.48956 0,1.51905 0.52681,2.39673 0.53241,0.87767 1.4235,0.87767 0.75098,0 1.41229,-0.75109 l 0,1.31651 z m -10.26153,-0.0928 0,-1.67095 q 0.19054,0.25317 0.45395,0.45571 0.26901,0.20254 0.56043,0.34601 0.29703,0.13502 0.59406,0.21098 0.29703,0.076 0.54922,0.076 0.86868,0 1.29461,-0.48103 0.43153,-0.48948 0.43153,-1.40091 0,-0.48947 -0.14571,-0.85235 -0.14011,-0.36289 -0.39231,-0.65826 -0.25219,-0.30381 -0.59966,-0.57387 -0.34186,-0.27849 -0.73977,-0.5823 -0.42032,-0.32069 -0.78461,-0.64981 -0.36428,-0.32913 -0.63329,-0.72577 -0.26901,-0.39665 -0.42593,-0.89456 -0.15131,-0.50635 -0.15131,-1.18148 0,-0.82704 0.24098,-1.43466 0.24099,-0.61606 0.63329,-1.0127 0.39231,-0.39664 0.89109,-0.59075 0.50439,-0.1941 1.02559,-0.1941 1.18812,0 1.73174,0.4304 l 0,1.59501 q -0.71175,-0.74265 -1.82701,-0.74265 -0.30824,0 -0.61647,0.10126 -0.30824,0.0928 -0.54923,0.31225 -0.24099,0.21942 -0.39231,0.56543 -0.15131,0.346 -0.15131,0.84392 0,0.46415 0.11208,0.80172 0.11769,0.33756 0.34187,0.61606 0.22417,0.27849 0.54362,0.5401 0.32505,0.26162 0.74537,0.57387 0.43154,0.32069 0.81824,0.67513 0.3867,0.35445 0.67812,0.78485 0.29143,0.4304 0.45956,0.95362 0.17373,0.52323 0.17373,1.19837 0,0.89455 -0.23538,1.51905 -0.22978,0.61606 -0.62769,1.00426 -0.3923,0.3882 -0.9079,0.55699 -0.51559,0.17722 -1.08724,0.17722 -0.19054,0 -0.47076,-0.0506 -0.28022,-0.0422 -0.57164,-0.13503 -0.29143,-0.0844 -0.55484,-0.21097 -0.25779,-0.13503 -0.41471,-0.29538 z m -1.40669,-3.78075 -3.05997,0 0,-1.08865 3.05997,0 0,1.08865 z m -4.33215,0.29537 -4.05194,0 q 0.0224,1.4431 0.5156,2.22795 0.49318,0.78484 1.35625,0.78484 0.96955,0 1.78217,-0.96207 l 0,1.29964 q -0.75658,0.82704 -2.00074,0.82704 -1.21614,0 -1.91108,-1.17305 -0.69494,-1.18148 -0.69494,-3.3166 0,-2.01696 0.75659,-3.28284 0.76218,-1.27431 1.88866,-1.27431 1.12647,0 1.74294,1.09709 0.61649,1.09709 0.61649,3.04654 l 0,0.72577 z m -0.94154,-1.17304 q -0.006,-1.19837 -0.38669,-1.86506 -0.3755,-0.6667 -1.04801,-0.6667 -0.65011,0 -1.10406,0.70046 -0.45395,0.70045 -0.56044,1.8313 l 3.0992,0 z m -8.54661,5.1479 -0.9191,0 0,-4.97912 q 0,-2.70054 -1.33384,-2.70054 -0.67252,0 -1.13208,0.78485 -0.45955,0.7764 -0.45955,2.00008 l 0,4.89473 -0.91911,0 0,-12.7938 0.91911,0 0,5.58674 0.0224,0 q 0.66131,-1.6372 1.88306,-1.6372 1.93909,0 1.93909,3.51913 l 0,5.32513 z m -9.97571,-0.31225 0,-1.4853 q 0.75098,0.83548 1.65328,0.83548 1.21053,0 1.21053,-1.21524 0,-0.34601 -0.10648,-0.58231 -0.10088,-0.24473 -0.28022,-0.43039 -0.17373,-0.18567 -0.41472,-0.32913 -0.23538,-0.15191 -0.50999,-0.31225 -0.3811,-0.22786 -0.67252,-0.45572 -0.28582,-0.23629 -0.48197,-0.52323 -0.19055,-0.29537 -0.29143,-0.66669 -0.0953,-0.37132 -0.0953,-0.86924 0,-0.60762 0.18495,-1.07177 0.18494,-0.4726 0.49318,-0.78485 0.30824,-0.32068 0.70054,-0.48103 0.39791,-0.16034 0.81824,-0.16034 0.74537,0 1.33383,0.3882 l 0,1.4009 q -0.63329,-0.6245 -1.45713,-0.6245 -0.2578,0 -0.46516,0.0928 -0.20736,0.0844 -0.35868,0.24474 -0.14571,0.16035 -0.22978,0.3882 -0.0785,0.21942 -0.0785,0.48947 0,0.33757 0.0785,0.56543 0.0841,0.22786 0.24099,0.40508 0.15692,0.17722 0.3811,0.32069 0.22417,0.14347 0.50999,0.31225 0.3811,0.21942 0.68373,0.45572 0.30263,0.22785 0.5156,0.52322 0.21297,0.28694 0.32505,0.6667 0.11769,0.37976 0.11769,0.90299 0,0.64138 -0.19054,1.11397 -0.18495,0.4726 -0.49879,0.78485 -0.31384,0.31225 -0.72296,0.46415 -0.40912,0.15191 -0.85746,0.15191 -0.88549,0 -1.53559,-0.51479 z m -1.96152,-10.52366 q -0.24659,0 -0.42032,-0.25317 -0.17374,-0.25318 -0.17374,-0.64138 0,-0.3882 0.17374,-0.64138 0.17373,-0.26161 0.42032,-0.26161 0.25219,0 0.42592,0.26161 0.17935,0.25318 0.17935,0.64138 0,0.37132 -0.17935,0.63294 -0.17373,0.26161 -0.42592,0.26161 z m 0.44834,10.83591 -0.9191,0 0,-8.64172 0.9191,0 0,8.64172 z m -2.79095,0 -0.91912,0 0,-1.46842 -0.0224,0 q -0.63889,1.67096 -1.97272,1.67096 -1.08164,0 -1.73174,-1.15617 -0.6445,-1.16461 -0.6445,-3.16469 0,-2.14355 0.71735,-3.43475 0.71736,-1.29119 1.91109,-1.29119 1.18251,0 1.72052,1.4009 l 0.0224,0 0,-5.35044 0.91912,0 0,12.7938 z m -0.91912,-3.90734 0,-1.27432 q 0,-1.04646 -0.45955,-1.77223 -0.45956,-0.72577 -1.1657,-0.72577 -0.84065,0 -1.32262,0.92831 -0.48198,0.92831 -0.48198,2.56551 0,1.49374 0.45956,2.36297 0.46516,0.8608 1.24416,0.8608 0.76779,0 1.24416,-0.83548 0.48197,-0.83548 0.48197,-2.10979 z m -5.37455,-0.0675 -4.05193,0 q 0.0224,1.4431 0.51559,2.22795 0.49319,0.78484 1.35625,0.78484 0.96955,0 1.78218,-0.96207 l 0,1.29964 q -0.75659,0.82704 -2.00075,0.82704 -1.21614,0 -1.91107,-1.17305 -0.69495,-1.18148 -0.69495,-3.3166 0,-2.01696 0.75659,-3.28284 0.76219,-1.27431 1.88866,-1.27431 1.12648,0 1.74295,1.09709 0.61648,1.09709 0.61648,3.04654 l 0,0.72577 z m -0.94153,-1.17304 q -0.006,-1.19837 -0.3867,-1.86506 -0.37549,-0.6667 -1.04801,-0.6667 -0.6501,0 -1.10406,0.70046 -0.45395,0.70045 -0.56043,1.8313 l 3.0992,0 z m -4.73566,-3.49382 -1.72054,8.64172 -0.95273,0 -1.18251,-6.18592 q -0.0673,-0.35445 -0.0897,-0.80172 l -0.0224,0 q -0.0168,0.30381 -0.11769,0.78484 l -1.28339,6.2028 -0.91911,0 -1.73735,-8.64172 0.96395,0 1.18812,6.49816 q 0.056,0.29538 0.0785,0.77641 l 0.0448,0 q 0.0168,-0.37132 0.10088,-0.79328 l 1.32262,-6.48129 0.84065,0 1.18812,6.51504 q 0.056,0.31225 0.0841,0.77641 l 0.0449,0 q 0.0112,-0.32913 0.0953,-0.77641 l 1.1657,-6.51504 0.9079,0 z m -13.57931,8.15224 0,-1.67095 q 0.19054,0.25317 0.45395,0.45571 0.26901,0.20254 0.56043,0.34601 0.29703,0.13502 0.59407,0.21098 0.29703,0.076 0.54922,0.076 0.86867,0 1.2946,-0.48103 0.43153,-0.48948 0.43153,-1.40091 0,-0.48947 -0.14571,-0.85235 -0.14011,-0.36289 -0.3923,-0.65826 -0.2522,-0.30381 -0.59967,-0.57387 -0.34186,-0.27849 -0.73977,-0.5823 -0.42032,-0.32069 -0.78461,-0.64981 -0.36427,-0.32913 -0.63328,-0.72577 -0.26901,-0.39665 -0.42594,-0.89456 -0.15131,-0.50635 -0.15131,-1.18148 0,-0.82704 0.24098,-1.43466 0.24099,-0.61606 0.6333,-1.0127 0.3923,-0.39664 0.89108,-0.59075 0.50439,-0.1941 1.0256,-0.1941 1.18812,0 1.73174,0.4304 l 0,1.59501 q -0.71176,-0.74265 -1.82702,-0.74265 -0.30823,0 -0.61647,0.10126 -0.30824,0.0928 -0.54923,0.31225 -0.24098,0.21942 -0.3923,0.56543 -0.15132,0.346 -0.15132,0.84392 0,0.46415 0.11209,0.80172 0.11769,0.33756 0.34186,0.61606 0.22418,0.27849 0.54362,0.5401 0.32505,0.26162 0.74538,0.57387 0.43154,0.32069 0.81823,0.67513 0.3867,0.35445 0.67813,0.78485 0.29142,0.4304 0.45955,0.95362 0.17373,0.52323 0.17373,1.19837 0,0.89455 -0.23538,1.51905 -0.22977,0.61606 -0.62768,1.00426 -0.3923,0.3882 -0.9079,0.55699 -0.5156,0.17722 -1.08725,0.17722 -0.19054,0 -0.47076,-0.0506 -0.28022,-0.0422 -0.57164,-0.13503 -0.29143,-0.0844 -0.55483,-0.21097 -0.2578,-0.13503 -0.41472,-0.29538 z" />
    <path
       style="fill:#0095ae;fill-opacity:1"
       d="m 509.05396,772.53441 c -1.1343,-0.22539 -2.9568,-0.70408 -4.05,-1.06378 -1.0932,-0.35969 -2.79764,-1.05735 -3.78764,-1.55036 -0.99,-0.493 -2.6775,-1.4713 -3.75,-2.174 -1.0725,-0.7027 -2.389,-1.6642 -2.92555,-2.13667 l -0.97554,-0.85903 3.37554,-3.36588 3.37555,-3.36588 1.8,1.37466 c 0.99,0.75607 2.85819,1.89237 4.15154,2.52512 1.29335,0.63275 3.10928,1.30777 4.0354,1.50003 0.92612,0.19226 2.83793,0.29103 4.24846,0.21949 1.83681,-0.0932 2.91571,-0.31185 3.80186,-0.77065 0.6805,-0.35232 1.59179,-1.06191 2.02509,-1.57686 0.4333,-0.51495 0.87299,-1.2756 0.97708,-1.69033 0.10409,-0.41473 0.0335,-1.27392 -0.15686,-1.9093 -0.2147,-0.71659 -0.81864,-1.5597 -1.59054,-2.22042 -0.68443,-0.58585 -1.96912,-1.33633 -2.85487,-1.66772 -0.88574,-0.33141 -3.56277,-0.93857 -5.94894,-1.34926 -2.38618,-0.4107 -5.17704,-1.0292 -6.20191,-1.37446 -1.02488,-0.34525 -2.43459,-0.96247 -3.13269,-1.37158 -0.69811,-0.40912 -1.82988,-1.28789 -2.51504,-1.95282 -0.68517,-0.66493 -1.66874,-2.10788 -2.18572,-3.20655 -0.82991,-1.76371 -0.95324,-2.3709 -1.05334,-5.18597 -0.0846,-2.37926 0.0156,-3.63543 0.39505,-4.95 0.27963,-0.96889 0.86055,-2.41222 1.29092,-3.20741 0.43037,-0.79518 1.62848,-2.23717 2.66247,-3.20441 1.03398,-0.96724 2.72868,-2.16273 3.766,-2.65665 1.03732,-0.49392 3.03078,-1.12919 4.4299,-1.41172 1.89171,-0.38199 3.27606,-0.46579 5.4,-0.32688 1.57088,0.10274 3.72909,0.39649 4.79604,0.65278 1.06694,0.25629 3.176,1.05153 4.68678,1.7672 1.51079,0.71566 3.54577,1.84372 4.52219,2.50679 0.97642,0.66307 1.93368,1.39642 2.12725,1.62966 0.28543,0.34392 -0.11381,0.87571 -2.11208,2.81332 -1.35522,1.31409 -2.88597,2.76659 -3.40166,3.22779 l -0.93762,0.83854 -2.05614,-1.37899 c -1.17446,-0.78767 -3.06242,-1.69686 -4.40287,-2.12031 -1.66435,-0.52577 -3.01828,-0.73941 -4.65624,-0.73474 -1.5818,0.005 -2.68843,0.17873 -3.51208,0.5529 -0.66142,0.30048 -1.64017,1.04471 -2.175,1.65385 -0.8031,0.91468 -0.97223,1.35386 -0.97131,2.5221 6.9e-4,0.86865 0.22499,1.7817 0.5812,2.3659 0.31904,0.52323 1.16229,1.28947 1.87388,1.70275 0.71159,0.41328 2.1038,0.95668 3.0938,1.20756 0.99,0.25088 3.285,0.61242 5.1,0.80341 1.815,0.19099 4.27793,0.65614 5.47318,1.03366 1.19525,0.37752 2.83867,1.11344 3.65204,1.63538 0.81337,0.52194 2.0409,1.55873 2.72785,2.30398 0.68695,0.74525 1.57688,2.09641 1.97763,3.00256 0.40074,0.90616 0.87794,2.65146 1.06043,3.87846 0.24389,1.63976 0.24231,2.84698 -0.006,4.5559 -0.21856,1.50462 -0.70365,3.0724 -1.37477,4.44318 -0.70144,1.43271 -1.61896,2.67324 -2.83526,3.83338 -1.13046,1.07829 -2.61088,2.09607 -3.98669,2.74084 -1.20366,0.56409 -3.22904,1.23531 -4.50083,1.49161 -1.2718,0.25629 -3.4318,0.45331 -4.8,0.4378 -1.36821,-0.0155 -3.41571,-0.21259 -4.55001,-0.43797 z m 45.60566,0.008 c -1.29619,-0.24587 -3.3787,-0.85625 -4.62781,-1.35642 -1.24911,-0.50017 -3.18095,-1.51425 -4.29296,-2.25352 -1.11202,-0.73927 -3.05215,-2.43934 -4.3114,-3.77793 -1.81005,-1.92409 -2.59523,-3.06943 -3.74906,-5.46881 -0.80273,-1.66924 -1.67756,-3.91249 -1.94408,-4.98499 -0.26651,-1.0725 -0.56405,-3.2325 -0.66119,-4.8 -0.1233,-1.98972 -0.0309,-3.68379 0.30607,-5.61224 0.26547,-1.51923 0.82692,-3.67923 1.24767,-4.8 0.42074,-1.12077 1.32512,-2.98276 2.00972,-4.13776 0.6846,-1.155 2.26511,-3.12038 3.51223,-4.3675 1.24713,-1.24713 3.25334,-2.85298 4.45825,-3.56855 1.20491,-0.71557 3.29741,-1.6717 4.65,-2.12474 1.35259,-0.45305 3.73662,-0.98863 5.29783,-1.19019 1.75439,-0.22649 3.87333,-0.28552 5.54775,-0.15453 1.49005,0.11657 3.93572,0.52307 5.43482,0.90335 1.4991,0.38028 3.59261,1.12803 4.65225,1.66167 1.05963,0.53364 2.53411,1.38278 3.27661,1.88697 0.7425,0.50419 2.26125,1.79089 3.375,2.85933 1.11375,1.06845 2.025,2.03865 2.025,2.15602 0,0.11736 -6.00717,6.11846 -13.34926,13.33576 -13.32683,13.10033 -13.35049,13.12158 -14.07876,12.6444 -0.40122,-0.26289 -1.20925,-0.97197 -1.7956,-1.57572 -0.58636,-0.60375 -1.48563,-1.75151 -1.99839,-2.55057 -0.51275,-0.79906 -0.88632,-1.55698 -0.83013,-1.68427 0.0562,-0.12728 4.15214,-4.21393 9.10214,-9.08143 4.95,-4.8675 9.0391,-8.93356 9.0869,-9.0357 0.0478,-0.10213 -1.05465,-0.55704 -2.44988,-1.0109 -2.24048,-0.72882 -2.88529,-0.8112 -5.52055,-0.70536 -2.71633,0.1091 -3.18669,0.22013 -5.24754,1.23866 -1.57122,0.77654 -2.72434,1.62276 -3.76932,2.76613 -0.82805,0.90602 -1.86094,2.37371 -2.29531,3.26153 -0.43437,0.88782 -0.98268,2.33904 -1.21847,3.22493 -0.23579,0.88589 -0.42871,2.75821 -0.42871,4.16071 0,1.4025 0.19292,3.27482 0.42871,4.16071 0.23579,0.88589 0.7756,2.31975 1.19959,3.18634 0.42398,0.8666 1.32408,2.2041 2.00021,2.97223 0.67614,0.76812 1.8245,1.80608 2.55193,2.30656 0.72742,0.50048 2.09656,1.18663 3.04252,1.52478 1.2182,0.43546 2.50753,0.62181 4.41992,0.63882 1.77447,0.0158 3.31702,-0.1586 4.5,-0.50872 0.99,-0.293 2.475,-0.92044 3.3,-1.3943 0.825,-0.47387 2.21212,-1.45052 3.08248,-2.17035 l 1.58247,-1.30878 3.36753,3.42117 3.36752,3.42117 -1.5,1.33794 c -0.825,0.73587 -2.32746,1.93992 -3.33879,2.67568 -1.01134,0.73576 -2.63134,1.68873 -3.6,2.11772 -0.96867,0.429 -2.77371,1.04287 -4.01121,1.36417 -1.36922,0.3555 -3.65924,0.63494 -5.85,0.71386 -2.44097,0.0879 -4.35874,-0.0142 -5.9567,-0.31733 z m 94.7567,0.0345 c -1.155,-0.22672 -2.775,-0.64498 -3.6,-0.92947 -0.825,-0.28449 -2.175,-0.85704 -3,-1.27233 -0.825,-0.41528 -2.1075,-1.16923 -2.85,-1.67544 -0.7425,-0.50621 -2.07506,-1.6018 -2.96125,-2.43465 -0.88619,-0.83284 -2.20501,-2.34501 -2.93071,-3.36036 -0.7257,-1.01535 -1.72573,-2.7421 -2.22228,-3.83722 -0.49655,-1.09512 -1.19029,-3.16687 -1.54164,-4.6039 -0.48166,-1.97001 -0.63337,-3.49842 -0.61666,-6.21278 0.0161,-2.61237 0.19286,-4.25842 0.64438,-6 0.34222,-1.32 1.22218,-3.615 1.95547,-5.1 0.73328,-1.485 2.06759,-3.58701 2.96513,-4.67113 0.89754,-1.08412 2.49266,-2.62216 3.54472,-3.41786 1.05206,-0.79571 2.99284,-1.96608 4.31284,-2.60083 1.32,-0.63475 3.48,-1.44437 4.8,-1.79917 1.90866,-0.51301 3.25985,-0.64628 6.6,-0.65095 2.75801,-0.004 4.93934,0.15798 6.35343,0.47139 1.18439,0.2625 2.97703,0.80994 3.98364,1.21653 1.00661,0.40659 2.57641,1.1915 3.48843,1.74424 0.91202,0.55275 2.29189,1.56947 3.06636,2.25939 l 1.40814,1.2544 -3.54878,3.57534 -3.54878,3.57534 -2.37843,-1.59197 c -1.33212,-0.89164 -3.2492,-1.86093 -4.35782,-2.20335 -1.34895,-0.41665 -2.81073,-0.61137 -4.58954,-0.61137 -1.82279,0 -3.14807,0.18187 -4.3934,0.60291 -0.98079,0.3316 -2.45825,1.11017 -3.28325,1.73017 -0.825,0.62 -2.05701,1.95583 -2.73781,2.96852 -0.68079,1.01269 -1.53151,2.69786 -1.89048,3.74483 -0.3612,1.05345 -0.72605,3.04237 -0.81698,4.45357 -0.11287,1.75184 -0.0161,3.24542 0.3091,4.77178 0.26037,1.22198 0.87568,3.08145 1.36737,4.13215 0.53374,1.14058 1.54273,2.55913 2.50399,3.52039 0.88552,0.88552 2.18859,1.90519 2.89571,2.26594 0.70713,0.36075 2.24945,0.85711 3.42739,1.10302 1.41725,0.29588 2.75058,0.3775 3.94171,0.24128 0.99,-0.11322 2.61,-0.45497 3.6,-0.75944 0.99,-0.30448 2.475,-0.98063 3.3,-1.50256 0.825,-0.52193 2.11728,-1.46427 2.87173,-2.0941 l 1.37173,-1.14513 3.27535,3.28554 c 2.77178,2.7804 3.22558,3.36591 2.95169,3.80833 -0.17802,0.28754 -1.3242,1.36613 -2.54708,2.39687 -1.22288,1.03073 -3.30342,2.41634 -4.62342,3.07912 -1.32,0.66279 -3.48,1.47981 -4.8,1.8156 -1.48555,0.3779 -3.77168,0.65988 -6,0.74006 -2.34699,0.0844 -4.33092,-0.014 -5.7,-0.2827 z m -63.85,-0.0761 c -0.11,-0.11 -0.2,-11.045 -0.2,-24.3 l 0,-24.1 12.675,0.005 c 9.90506,0.004 13.12309,0.10015 14.72544,0.43965 1.12774,0.23895 2.81093,0.78262 3.74043,1.20815 0.9295,0.42554 2.38642,1.29951 3.23759,1.94215 0.85118,0.64265 2.10298,2.00014 2.78178,3.01666 0.67881,1.01652 1.51173,2.74596 1.85093,3.8432 0.43762,1.41557 0.61989,2.84098 0.62759,4.90789 0.007,1.86387 -0.16967,3.53387 -0.49042,4.63718 -0.27569,0.94836 -0.83158,2.37615 -1.23531,3.17287 -0.40373,0.79672 -1.21083,1.97631 -1.79355,2.62132 l -1.0595,1.17274 1.26473,1.59149 c 0.6956,0.87532 1.56287,2.26649 1.92724,3.09149 0.36438,0.825 0.81649,2.175 1.00468,3 0.18819,0.825 0.37423,2.3775 0.41343,3.45 0.0392,1.0725 0.0395,3.87694 6e-4,6.23208 l -0.0707,4.28209 -5.175,-0.0821 -5.175,-0.0821 -0.15,-5.7 c -0.12312,-4.67842 -0.24467,-5.87318 -0.6782,-6.6663 -0.29052,-0.53146 -0.83052,-1.25696 -1.2,-1.61221 -0.36949,-0.35526 -1.2793,-0.92977 -2.0218,-1.27671 -1.2171,-0.56868 -2.00713,-0.6417 -8.025,-0.74171 l -6.675,-0.11093 0,8.12893 0,8.12893 -5.05,0 c -2.7775,0 -5.14,-0.09 -5.25,-0.2 z m 25.45669,-26.51639 c 0.86696,-0.44659 1.84335,-1.27225 2.33981,-1.97863 0.62855,-0.89432 0.89585,-1.69594 1.01924,-3.05668 0.12142,-1.33909 0.0285,-2.20773 -0.33912,-3.17033 -0.27849,-0.72924 -0.87091,-1.69494 -1.31649,-2.146 -0.44557,-0.45107 -1.41763,-1.10089 -2.16013,-1.44405 -1.21091,-0.55964 -2.03772,-0.63535 -8.025,-0.73485 l -6.675,-0.11093 0,6.79461 0,6.79461 6.83444,-0.0907 c 6.65378,-0.0883 6.87376,-0.11094 8.32225,-0.85707 z"
       id="path4214"
       inkscape:connector-curvature="0"
       sodipodi:nodetypes="csssscccssscssscscscsssscssssssssssscsscsssssssssscscssssscccssssssssssssssssssssssscscssssssssccsssssscccsssscccsssssssssssssscsssscccsssssssscsssssssscscssscccscssssssccsscssssscccscscscccscccssccsscccscc" />
  </g>
</svg>
