<?xml version="1.0" encoding="UTF-8" standalone="no"?>
<!-- Created with Inkscape (http://www.inkscape.org/) by Marsupilami -->

<svg
   xmlns:dc="http://purl.org/dc/elements/1.1/"
   xmlns:cc="http://creativecommons.org/ns#"
   xmlns:rdf="http://www.w3.org/1999/02/22-rdf-syntax-ns#"
   xmlns:svg="http://www.w3.org/2000/svg"
   xmlns="http://www.w3.org/2000/svg"
   xmlns:sodipodi="http://sodipodi.sourceforge.net/DTD/sodipodi-0.dtd"
   xmlns:inkscape="http://www.inkscape.org/namespaces/inkscape"
   version="1.0"
   width="431.7597"
   height="172.40569"
   viewBox="0 0 119.51975 47.820482"
   id="svg3460"
   sodipodi:docname="university-ulm-logo.svg"
   inkscape:version="0.92.2 (5c3e80d, 2017-08-06)">
  <metadata
     id="metadata8">
    <rdf:RDF>
      <cc:Work
         rdf:about="">
        <dc:format>image/svg+xml</dc:format>
        <dc:type
           rdf:resource="http://purl.org/dc/dcmitype/StillImage" />
        <dc:title></dc:title>
      </cc:Work>
    </rdf:RDF>
  </metadata>
  <sodipodi:namedview
     pagecolor="#ffffff"
     bordercolor="#666666"
     borderopacity="1"
     objecttolerance="10"
     gridtolerance="10"
     guidetolerance="10"
     inkscape:pageopacity="0"
     inkscape:pageshadow="2"
     inkscape:window-width="1920"
     inkscape:window-height="1137"
     id="namedview6"
     showgrid="false"
     inkscape:zoom="2.21875"
     inkscape:cx="262.63596"
     inkscape:cy="53.07759"
     inkscape:window-x="-8"
     inkscape:window-y="-8"
     inkscape:window-maximized="1"
     inkscape:current-layer="svg3460"
     fit-margin-top="3"
     fit-margin-left="3"
     fit-margin-right="3"
     fit-margin-bottom="3" />
  <defs
     id="defs3462" />
  <path
     inkscape:connector-curvature="0"
     style="opacity:0.85000598;fill:#91acbc;fill-opacity:1;fill-rule:nonzero;stroke:none"
     id="path2608"
     d="M 16.299609,0.83211552 V 1.9883655 h 0.875 V 0.83211552 Z m 25.96875,0 V 1.9883655 h 0.84375 V 0.83211552 Z m 8.28125,0.71874998 v 1.15625 h 1.03125 v -1.15625 z m 2.34375,0 v 1.15625 h 1.03125 v -1.15625 z m -6.15625,0.3125 -0.875,0.3125 v 1.6875 h -1.375 v 0.75 h 1.375 v 4.09375 c 0,1.27875 0.0525,2.3437505 1.59375,2.3437505 0.425,0 0.85625,-0.105 1.0625,-0.1875 l -0.0625,-0.71875 c -0.2475,0.09625 -0.4525,0.15625 -0.78125,0.15625 -0.7025,0 -0.9375,-0.5237505 -0.9375,-1.1562505 v -4.53125 h 1.59375 v -0.75 h -1.59375 z m 11.4375,0 -0.84375,0.3125 v 1.6875 h -1.375 v 0.75 h 1.375 v 4.09375 c 0,1.27875 0.0538,2.3437505 1.59375,2.3437505 0.42625,0 0.85625,-0.105 1.0625,-0.1875 l -0.0625,-0.71875 c -0.24751,0.09625 -0.4825,0.15625 -0.8125,0.15625 -0.70126,0 -0.9375,-0.5237505 -0.9375,-1.1562505 v -4.53125 h 1.59375 v -0.75 h -1.59375 z m 9.78125,0.0625 V 46.300866 h 3.625 V 1.9258655 Z m -56.21875,1.78125 c -1.45751,0 -1.9599997,0.77375 -2.2499997,1.40625 h -0.0312 v -1.25 h -0.84375 c 0.055,0.5637501 0.0625,1.12 0.0625,1.65625 v 5.3750005 h 0.875 V 6.9883655 c 0,-1.1687497 0.4812497,-2.53125 2.0624997,-2.53125 1.19625,2e-7 1.65625,0.83625 1.65625,2.15625 v 4.2812505 h 0.875 V 6.3946155 c 10e-6,-1.5400001 -0.67375,-2.6875 -2.40625,-2.6875 z m 16.15625,0 c -1.7725,-10e-8 -2.9375,1.5125 -2.9375,3.65625 0,2.10375 0.865,3.6875005 3.1875,3.6875005 0.6475,0 1.4275,-0.15875 2.03125,-0.40625 V 9.7696155 c -0.4125,0.2612505 -1.3375,0.5312505 -1.96875,0.5312505 -1.51374,0 -2.3125,-1.2025005 -2.3125,-2.6875005 h 4.8125 v -0.4375 c 0,-1.8837498 -0.8325,-3.46875 -2.8125,-3.46875 z m 7.09375,0 c -0.89375,0 -1.4975,0.71625 -1.8125,1.5 h -0.0312 v -1.34375 h -0.8438 c 0.055,0.5087501 0.0312,0.7925 0.0312,1.5625 v 5.4687505 h 0.875 V 7.4258655 c -1e-5,-1.265 0.375,-2.8125 1.75,-2.8125 0.22125,-2e-7 0.445,0.03875 0.625,0.09375 v -0.90625 c -0.1512,-0.04125 -0.38745,-0.09375 -0.5937,-0.09375 z m 3.6875,0 c -1.155,2e-7 -2.28125,0.5175 -2.28125,1.90625 0,2.035 3.375,1.77375 3.375,3.4375 0,0.7975 -0.7375,1.2500005 -1.5625,1.2500005 -0.67376,0 -1.32125,-0.17625 -1.84375,-0.4375005 l -0.0625,0.8437505 c 0.61875,0.2475 1.295,0.34375 1.96875,0.34375 1.05875,0 2.4375,-0.515 2.4375,-2.0000005 1e-5,-2.2962504 -3.4375,-2.13125 -3.4375,-3.4375 1e-5,-0.8937504 0.60625,-1.15625 1.5,-1.15625 0.48124,-10e-8 1.10875,0.10625 1.5625,0.3125 l 0.0625,-0.75 c -0.61875,-0.2337501 -1.3475,-0.3125 -1.71875,-0.3125 z m 13.5625,0 c -0.61874,2e-7 -1.525,0.2075 -2.0625,0.46875 v 0.84375 c 0.64749,-0.4125 1.33375,-0.5625 2.0625,-0.5625 1.16751,-10e-8 1.59375,0.585 1.59375,1.78125 v 0.375 h -0.15625 c -1.81375,-2e-7 -4.34375,0.08625 -4.34375,2.4375 1e-5,0.6325 0.3175,2.0000005 2.3125,2.0000005 0.86501,0 1.86375,-0.4725 2.25,-1.3125005 v 1.1562505 h 0.875 c -0.07,-0.48125 -0.0625,-0.9362505 -0.0625,-1.5000005 v -3.09375 c 0,-1.8287495 -0.7375,-2.59375 -2.46875,-2.59375 z m -51.62499974,0.15625 v 4.5 c 0,1.54125 0.67250004,2.6875005 2.40625004,2.6875005 1.4575,0 1.96125,-0.77375 2.25,-1.4062505 h 0.0312 v 1.2500005 h 0.84375 c -0.055,-0.56375 -0.0625,-1.1200005 -0.0625,-1.6562505 v -5.375 h -0.875 v 3.875 c 10e-6,1.16875 -0.48125,2.5625005 -2.0625,2.5625005 -1.1975,0 -1.65625,-0.8362505 -1.65625,-2.1562505 v -4.28125 z m 15.68749974,0 v 7.0312505 h 0.875 V 3.8633655 Z m 2.09375,0 2.375,7.0312505 h 1.03125 l 2.46875,-7.0312505 h -0.90625 l -2.03125,6.0625 h -0.0312 l -1.9375,-6.0625 z m 23.875,0 v 7.0312505 h 0.84375 V 3.8633655 Z m -14.3125,0.59375 c 1.29376,1e-7 1.78125,1.1825 1.78125,2.40625 h -3.84375 c 10e-6,-1.1550001 0.78375,-2.40625 2.0625,-2.40625 z m 25.625,2.875 h 0.25 v 0.4375 c 1e-5,0.75625 -0.0575,2.5312505 -2.09375,2.5312505 -0.79624,0 -1.4375,-0.3287505 -1.4375,-1.2500005 -10e-6,-1.54 1.7825,-1.71875 3.28125,-1.71875 z m 38.40625,8.7812505 c -6.3,1e-6 -8.03125,3.695 -9.1875,5.71875 l -0.125,-0.03125 v -5 h -3.5 c 0.23124,2.371249 0.21875,4.7125 0.21875,6.96875 v 22.53125 h 3.65625 v -16.3125 c 0,-7.34625 3.9175,-10.75 7.90625,-10.75 4.68125,0 6.25,3.30375 6.25,7.46875 v 19.59375 h 3.625001 v -16.3125 c 0,-7.34625 3.94875,-10.75 7.9375,-10.75 4.68124,0 6.21875,3.30375 6.21875,7.46875 v 19.59375 h 3.65625 v -20.28125 c 1e-5,-5.72625 -3.36,-9.90625 -9.3125,-9.90625 -4.62624,1e-6 -8.0775,2.78 -9.406251,6.25 h -0.125 c -0.92499,-5.148751 -5.2125,-6.25 -7.8125,-6.25 z m -55.28125,0.625 v 18.90625 c -10e-6,6.49125 2.765,11.34375 10.0625,11.34375 6.13874,-10e-7 8.34625,-3.3025 9.5625,-5.96875 h 0.125 v 5.28125 h 3.53125 c -0.23251,-2.375 -0.25,-4.67625 -0.25,-6.9375 v -22.625 h -3.65625 v 16.34375 c 0,4.926249 -2.0575,10.78125 -8.71875,10.78125 -5.03876,0 -7.03125,-3.59375 -7.03125,-9.15625 v -17.96875 z m -36.15624974,0.03125 v 18.65625 c 0,6.651248 3.04000004,11.5625 10.03124974,11.5625 4.01,2e-6 7.33875,-1.82 9.6875,-4.6875 h 0.125 v 4 h 7.25 v -29.53125 h -7.65625 v 14.46875 c 0,3.78375 -1.2225,9.8125 -6.78125,9.8125 -4.9262597,-10e-7 -4.9687497,-4.88625 -4.9687497,-8.5 v -15.78125 z"
     sodipodi:nodetypes="ccccccccccccccccccccccccccssccsscccccccccccssccssccccccccccsccccsccssscccsssssccsccsssccccscccsccsssssccsccsccssccsscscscccssscssccccscccsscccccccccccccccccccccsccssccscssccccsccsssccssscccsccsccsccccsccssscccssccccccssscc" />
</svg>
