<?xml version="1.0" encoding="UTF-8" standalone="no"?>
<!-- Created with Inkscape (http://www.inkscape.org/) -->

<svg
   width="64"
   height="64"
   viewBox="0 0 16.933333 16.933334"
   version="1.1"
   id="svg8"
   xmlns:xlink="http://www.w3.org/1999/xlink"
   xmlns="http://www.w3.org/2000/svg"
   xmlns:svg="http://www.w3.org/2000/svg"
   xmlns:rdf="http://www.w3.org/1999/02/22-rdf-syntax-ns#"
   xmlns:cc="http://creativecommons.org/ns#"
   xmlns:dc="http://purl.org/dc/elements/1.1/">
  <defs
     id="defs2">
    <linearGradient
       id="linearGradient7406">
      <stop
         id="stop7408"
         offset="0"
         style="stop-color:#4f8df1;stop-opacity:0;" />
      <stop
         id="stop7410"
         offset="1"
         style="stop-color:#6b82ce;stop-opacity:1;" />
    </linearGradient>
    <radialGradient
       gradientTransform="matrix(0.44010233,-0.22595424,0.21594149,0.42060001,9.092071,18.05045)"
       gradientUnits="userSpaceOnUse"
       r="9.3214283"
       fy="20.245611"
       fx="23.209681"
       cy="20.245611"
       cx="23.209681"
       id="radialGradient7412-2"
       xlink:href="#linearGradient7406" />
    <linearGradient
       id="linearGradient2308">
      <stop
         id="stop2310"
         offset="0"
         style="stop-color:#ed0000;stop-opacity:1;" />
      <stop
         id="stop2312"
         offset="1"
         style="stop-color:#ed4d00;stop-opacity:0;" />
    </linearGradient>
    <linearGradient
       id="linearGradient2316">
      <stop
         id="stop2318"
         offset="0"
         style="stop-color:#c40000;stop-opacity:1;" />
      <stop
         id="stop2320"
         offset="1"
         style="stop-color:#c41500;stop-opacity:0;" />
    </linearGradient>
    <linearGradient
       id="linearGradient2187">
      <stop
         style="stop-color:#ffffff;stop-opacity:1;"
         offset="0"
         id="stop2189" />
      <stop
         style="stop-color:#ffffff;stop-opacity:0;"
         offset="1"
         id="stop2191" />
    </linearGradient>
    <radialGradient
       r="10.16466"
       fy="13.282721"
       fx="15.09403"
       cy="13.282721"
       cx="15.09403"
       gradientTransform="matrix(2.496031,0,0,2.300689,12.083564,-38.60474)"
       gradientUnits="userSpaceOnUse"
       id="radialGradient4526"
       xlink:href="#linearGradient2187" />
  </defs>
  <metadata
     id="metadata5">
    <rdf:RDF>
      <cc:Work
         rdf:about="">
        <dc:format>image/svg+xml</dc:format>
        <dc:type
           rdf:resource="http://purl.org/dc/dcmitype/StillImage" />
      </cc:Work>
    </rdf:RDF>
  </metadata>
  <path
     id="path19"
     style="color:#000000;font-style:normal;font-variant:normal;font-weight:normal;font-stretch:normal;font-size:medium;line-height:normal;font-family:sans-serif;font-variant-ligatures:normal;font-variant-position:normal;font-variant-caps:normal;font-variant-numeric:normal;font-variant-alternates:normal;font-feature-settings:normal;text-indent:0;text-align:start;text-decoration:none;text-decoration-line:none;text-decoration-style:solid;text-decoration-color:#000000;letter-spacing:normal;word-spacing:normal;text-transform:none;writing-mode:lr-tb;direction:ltr;text-orientation:mixed;dominant-baseline:auto;baseline-shift:baseline;text-anchor:start;white-space:normal;shape-padding:0;clip-rule:nonzero;display:inline;overflow:visible;visibility:visible;isolation:auto;mix-blend-mode:normal;color-interpolation:sRGB;color-interpolation-filters:linearRGB;solid-color:#000000;solid-opacity:1;vector-effect:none;fill:#268bd2;fill-opacity:1;fill-rule:nonzero;stroke:none;stroke-width:0.705644;stroke-linecap:round;stroke-linejoin:round;stroke-miterlimit:4;stroke-dasharray:none;stroke-dashoffset:0;stroke-opacity:1;marker:none;color-rendering:auto;image-rendering:auto;shape-rendering:auto;text-rendering:auto;enable-background:accumulate"
     d="m 8.4506472,3.0246215 v 5.292e-4 C 5.3660044,3.0555545 2.772449,5.5680895 0.63820394,8.1524742 c -0.0688187,0.083333 -0.0835385,0.2370531 -0.0997355,0.313159 1.57806896,0.00114 3.95944836,0.00103 3.95944836,0.00103 5e-7,-1.9893064 1.9531857,-3.9644059 3.9687501,-3.9687501 0.5731743,0.00124 1.1412784,0.1621975 1.6608801,0.4371824 L 11.314038,3.7486086 C 10.420569,3.3035757 9.4771824,3.0349447 8.4826863,3.0251385 v -5.292e-4 c -0.00534,2.3e-5 -0.010681,4.763e-4 -0.01602,5.292e-4 -0.00534,-3.78e-5 -0.010676,-5.027e-4 -0.01602,-5.292e-4 z M 4.4979168,8.4666669 c 0,0 -2.3813794,-1.043e-4 -3.95944838,0.00103 0.016197,0.076106 0.0309168,0.2298255 0.0997355,0.3131589 C 1.4838814,9.8048995 2.4022247,10.817008 3.3941082,11.668537 l 1.541508,-1.541506 C 4.6592676,9.6052949 4.4979168,9.0367942 4.4979168,8.4666669 Z M 13.539742,5.2647949 11.998234,6.806303 c 0.276277,0.5216758 0.437182,1.0903162 0.437183,1.6603639 0,0 2.381379,1.063e-4 3.959448,-0.00103 -0.0162,-0.076108 -0.03092,-0.2298274 -0.09973,-0.3131608 C 15.449536,7.1285343 14.531512,6.1162709 13.539742,5.2647949 Z m -1.104325,3.201872 C 12.435416,10.455973 10.482231,12.431073 8.4666669,12.435417 7.8936389,12.434181 7.325797,12.27309 6.806303,11.998234 l -1.1864909,1.186491 c 0.8933471,0.44491 1.836492,0.713665 2.8308351,0.72347 v 5.29e-4 c 0.00398,-1.7e-5 0.00791,-5.03e-4 0.011885,-5.29e-4 0.00672,5.2e-5 0.013433,4.76e-4 0.020153,5.29e-4 v -10e-4 C 11.567278,13.8772 14.160912,11.365211 16.29513,8.7808593 c 0.06882,-0.083333 0.08354,-0.2370531 0.09973,-0.313159 -1.578069,-0.00114 -3.959448,-0.00103 -3.959448,-0.00103 z M 8.4728679,6.0854168 A 2.3812413,2.3812499 0.15367288 0 0 6.0854168,8.4604656 2.3812413,2.3812499 0.15367288 0 0 6.1360597,8.9265871 L 8.9265871,6.1360597 A 2.3812413,2.3812499 0.15367288 0 0 8.4728679,6.0854168 Z M 10.797274,8.0072632 8.0072632,10.797274 a 2.3812413,2.3812499 0.15367288 0 0 0.4532024,0.05064 2.3812413,2.3812499 0.15367288 0 0 2.3874514,-2.3750491 2.3812413,2.3812499 0.15367288 0 0 -0.05064,-0.4656047 z" />
  <path
     d="M 1.648338,15.284992 15.284995,1.6483416"
     style="display:inline;vector-effect:none;fill:#268bd2;fill-opacity:1;stroke:#268bd2;stroke-width:1.5875;stroke-linecap:round;stroke-linejoin:round;stroke-miterlimit:4;stroke-dasharray:none;stroke-dashoffset:0;stroke-opacity:1;marker:none"
     id="path1-5" />
</svg>
