<?xml version="1.0" encoding="UTF-8" standalone="no"?>
<!-- Created with Inkscape (http://www.inkscape.org/) -->

<svg
   width="64"
   height="64"
   viewBox="0 0 16.933333 16.933334"
   version="1.1"
   id="svg8"
   xmlns:xlink="http://www.w3.org/1999/xlink"
   xmlns="http://www.w3.org/2000/svg"
   xmlns:svg="http://www.w3.org/2000/svg"
   xmlns:rdf="http://www.w3.org/1999/02/22-rdf-syntax-ns#"
   xmlns:cc="http://creativecommons.org/ns#"
   xmlns:dc="http://purl.org/dc/elements/1.1/">
  <defs
     id="defs2">
    <linearGradient
       id="linearGradient7406">
      <stop
         id="stop7408"
         offset="0"
         style="stop-color:#4f8df1;stop-opacity:0;" />
      <stop
         id="stop7410"
         offset="1"
         style="stop-color:#6b82ce;stop-opacity:1;" />
    </linearGradient>
    <radialGradient
       gradientTransform="matrix(0.44010233,-0.22595424,0.21594149,0.42060001,9.092071,18.05045)"
       gradientUnits="userSpaceOnUse"
       r="9.3214283"
       fy="20.245611"
       fx="23.209681"
       cy="20.245611"
       cx="23.209681"
       id="radialGradient7412-2"
       xlink:href="#linearGradient7406" />
    <linearGradient
       id="linearGradient2308">
      <stop
         id="stop2310"
         offset="0"
         style="stop-color:#ed0000;stop-opacity:1;" />
      <stop
         id="stop2312"
         offset="1"
         style="stop-color:#ed4d00;stop-opacity:0;" />
    </linearGradient>
    <linearGradient
       id="linearGradient2316">
      <stop
         id="stop2318"
         offset="0"
         style="stop-color:#c40000;stop-opacity:1;" />
      <stop
         id="stop2320"
         offset="1"
         style="stop-color:#c41500;stop-opacity:0;" />
    </linearGradient>
    <linearGradient
       id="linearGradient2187">
      <stop
         style="stop-color:#ffffff;stop-opacity:1;"
         offset="0"
         id="stop2189" />
      <stop
         style="stop-color:#ffffff;stop-opacity:0;"
         offset="1"
         id="stop2191" />
    </linearGradient>
    <radialGradient
       r="10.16466"
       fy="13.282721"
       fx="15.09403"
       cy="13.282721"
       cx="15.09403"
       gradientTransform="matrix(2.496031,0,0,2.300689,12.083564,-38.60474)"
       gradientUnits="userSpaceOnUse"
       id="radialGradient4526"
       xlink:href="#linearGradient2187" />
  </defs>
  <metadata
     id="metadata5">
    <rdf:RDF>
      <cc:Work
         rdf:about="">
        <dc:format>image/svg+xml</dc:format>
        <dc:type
           rdf:resource="http://purl.org/dc/dcmitype/StillImage" />
      </cc:Work>
    </rdf:RDF>
  </metadata>
  <g
     id="layer2"
     style="display:inline">
    <path
       id="path16"
       style="color:#000000;font-style:normal;font-variant:normal;font-weight:normal;font-stretch:normal;font-size:medium;line-height:normal;font-family:sans-serif;font-variant-ligatures:normal;font-variant-position:normal;font-variant-caps:normal;font-variant-numeric:normal;font-variant-alternates:normal;font-feature-settings:normal;text-indent:0;text-align:start;text-decoration:none;text-decoration-line:none;text-decoration-style:solid;text-decoration-color:#000000;letter-spacing:normal;word-spacing:normal;text-transform:none;writing-mode:lr-tb;direction:ltr;text-orientation:mixed;dominant-baseline:auto;baseline-shift:baseline;text-anchor:start;white-space:normal;shape-padding:0;clip-rule:nonzero;display:inline;overflow:visible;visibility:visible;isolation:auto;mix-blend-mode:normal;color-interpolation:sRGB;color-interpolation-filters:linearRGB;solid-color:#000000;solid-opacity:1;vector-effect:none;fill:#268bd2;fill-opacity:1;fill-rule:nonzero;stroke:none;stroke-width:0.705644;stroke-linecap:round;stroke-linejoin:round;stroke-miterlimit:4;stroke-dasharray:none;stroke-dashoffset:0;stroke-opacity:1;marker:none;color-rendering:auto;image-rendering:auto;shape-rendering:auto;text-rendering:auto;enable-background:accumulate"
       d="m 8.4506472,3.0246215 v 5.292e-4 c -3.0846457,0.030404 -5.6781961,2.5429364 -7.81244326,5.1273235 -0.0688188,0.083334 -0.0835385,0.2370529 -0.0997355,0.313159 1.57807056,0.00114 3.95944836,0.00103 3.95944836,0.00103 5e-7,-1.9893082 1.9531838,-3.9644059 3.9687501,-3.9687501 2.0155661,0.00434 3.9687491,1.9794419 3.9687501,3.9687501 0,0 2.381378,1.063e-4 3.959448,-0.00103 -0.0162,-0.076108 -0.03092,-0.2298271 -0.09973,-0.3131608 C 14.160883,5.5680871 11.567332,3.055555 8.4826863,3.0251385 v -5.292e-4 c -0.00534,2.3e-5 -0.010678,4.763e-4 -0.01602,5.292e-4 -0.00534,-3.78e-5 -0.010676,-5.027e-4 -0.01602,-5.292e-4 z m 3.9847698,5.4420454 c -10e-7,1.9893081 -1.953184,3.9644061 -3.9687501,3.9687501 -2.0155663,-0.0043 -3.9687496,-1.979442 -3.9687501,-3.9687501 0,0 -2.3813778,-1.043e-4 -3.95944838,0.00103 0.016197,0.076106 0.0309167,0.2298252 0.0997355,0.3131589 C 2.7724511,11.365245 5.3660012,13.877777 8.4506472,13.908193 v 5.3e-4 c 0.00398,-1.8e-5 0.00791,-5.03e-4 0.011885,-5.3e-4 0.00672,5.3e-5 0.013433,4.77e-4 0.020153,5.3e-4 v -10e-4 c 3.0845948,-0.03048 5.6782238,-2.542465 7.8124438,-5.1268192 0.06882,-0.083334 0.08354,-0.2370529 0.09973,-0.313159 -1.578069,-0.00115 -3.959447,-0.00105 -3.959447,-0.00105 z M 8.4728679,6.0854168 A 2.3812413,2.3812499 0.15367288 0 0 6.0854168,8.4604656 2.3812413,2.3812499 0.15367288 0 0 8.4604656,10.847917 2.3812413,2.3812499 0.15367288 0 0 10.847917,8.4728679 2.3812413,2.3812499 0.15367288 0 0 8.4728679,6.0854168 Z" />
  </g>
</svg>
