<?xml version="1.0" encoding="UTF-8" standalone="no"?>
<!-- Created with Inkscape (http://www.inkscape.org/) -->

<svg
   width="75.592491mm"
   height="68.363701mm"
   viewBox="0 0 75.592491 68.363701"
   version="1.1"
   id="svg977"
   inkscape:version="1.1.1 (3bf5ae0d25, 2021-09-20)"
   sodipodi:docname="dragndrop.svg"
   xmlns:inkscape="http://www.inkscape.org/namespaces/inkscape"
   xmlns:sodipodi="http://sodipodi.sourceforge.net/DTD/sodipodi-0.dtd"
   xmlns="http://www.w3.org/2000/svg"
   xmlns:svg="http://www.w3.org/2000/svg">
  <sodipodi:namedview
     id="namedview979"
     pagecolor="#ffffff"
     bordercolor="#666666"
     borderopacity="1.0"
     inkscape:pageshadow="2"
     inkscape:pageopacity="0.0"
     inkscape:pagecheckerboard="0"
     inkscape:document-units="mm"
     showgrid="false"
     fit-margin-top="0"
     fit-margin-left="0"
     fit-margin-right="0"
     fit-margin-bottom="0"
     inkscape:zoom="5.1241864"
     inkscape:cx="170.46609"
     inkscape:cy="132.02096"
     inkscape:window-width="3200"
     inkscape:window-height="1721"
     inkscape:window-x="3741"
     inkscape:window-y="-9"
     inkscape:window-maximized="1"
     inkscape:current-layer="layer1" />
  <defs
     id="defs974" />
  <g
     inkscape:label="Layer 1"
     inkscape:groupmode="layer"
     id="layer1"
     transform="translate(-34.49165,-49.907608)">
    <g
       aria-label="Drag &amp; drop
"
       id="text2385"
       style="font-size:7.05556px;line-height:1.25;-inkscape-font-specification:sans-serif;text-align:center;letter-spacing:0px;word-spacing:0px;text-anchor:middle;fill:#268bd2;stroke-width:0.264583">
      <path
         d="m 43.527544,103.47496 v -6.916375 h 2.450153 q 3.684875,0 3.684875,3.371371 0,1.615754 -1.008036,2.580374 -1.003212,0.96463 -2.676839,0.96463 z m 1.557873,-5.64789 v 4.38423 h 0.771701 q 1.012858,0 1.586812,-0.60772 0.578776,-0.60771 0.578776,-1.654331 0,-0.988743 -0.573953,-1.55305 -0.56913,-0.569129 -1.601281,-0.569129 z"
         style="font-weight:bold;font-size:9.87778px;font-family:'Segoe UI';-inkscape-font-specification:'Segoe UI Bold'"
         id="path965" />
      <path
         d="m 53.882814,99.910664 q -0.274918,-0.149517 -0.641477,-0.149517 -0.496783,0 -0.776524,0.366553 -0.279742,0.36174 -0.279742,0.98875 v 2.35851 H 50.66096 v -4.93889 h 1.524111 v 0.916396 h 0.01929 q 0.361735,-1.003212 1.302247,-1.003212 0.241156,0 0.376204,0.05788 z"
         style="font-weight:bold;font-size:9.87778px;font-family:'Segoe UI';-inkscape-font-specification:'Segoe UI Bold'"
         id="path967" />
      <path
         d="m 58.701126,103.47496 h -1.442118 v -0.709 h -0.01929 q -0.496783,0.82958 -1.471056,0.82958 -0.718647,0 -1.133437,-0.40514 -0.409966,-0.40997 -0.409966,-1.09003 0,-1.4373 1.702566,-1.65916 l 1.340832,-0.17846 q 0,-0.810284 -0.877811,-0.810284 -0.882633,0 -1.678451,0.525722 v -1.147906 q 0.318327,-0.163987 0.868165,-0.289389 0.55466,-0.125401 1.008035,-0.125401 2.112533,0 2.112533,2.107708 z m -1.432471,-2.00642 v -0.3328 l -0.897103,0.11576 q -0.742763,0.0965 -0.742763,0.67041 0,0.26045 0.178456,0.42926 0.183279,0.16399 0.49196,0.16399 0.429259,0 0.699354,-0.29421 0.270096,-0.29904 0.270096,-0.75241 z"
         style="font-weight:bold;font-size:9.87778px;font-family:'Segoe UI';-inkscape-font-specification:'Segoe UI Bold'"
         id="path969" />
      <path
         d="m 64.749337,102.91065 q 0,1.3746 -0.795817,2.12701 -0.795817,0.75723 -2.305458,0.75723 -0.998389,0 -1.581989,-0.28457 v -1.28295 q 0.762056,0.44373 1.53858,0.44373 0.771702,0 1.196138,-0.40997 0.424436,-0.40514 0.424436,-1.1045 v -0.39067 h -0.01929 q -0.520898,0.82958 -1.53858,0.82958 -0.945334,0 -1.499995,-0.66559 -0.55466,-0.6656 -0.55466,-1.78456 0,-1.254019 0.617361,-1.991958 0.617361,-0.73794 1.625396,-0.73794 0.901927,0 1.350478,0.694531 h 0.01929 V 98.53607 h 1.52411 z m -1.504818,-1.80867 v -0.39068 q 0,-0.46784 -0.279742,-0.795813 -0.274918,-0.332796 -0.718647,-0.332796 -0.506429,0 -0.795817,0.395497 -0.289388,0.395492 -0.289388,1.114142 0,0.61736 0.274919,0.9791 0.274918,0.35691 0.752409,0.35691 0.472667,0 0.762055,-0.36174 0.294211,-0.36655 0.294211,-0.96462 z"
         style="font-weight:bold;font-size:9.87778px;font-family:'Segoe UI';-inkscape-font-specification:'Segoe UI Bold'"
         id="path971" />
      <path
         d="m 75.239654,103.58589 q -0.255626,0 -0.487136,-0.0675 -0.226688,-0.0675 -0.434082,-0.18328 -0.202572,-0.11576 -0.385851,-0.2701 -0.183279,-0.15916 -0.347266,-0.33762 -0.178456,0.1447 -0.429259,0.29904 -0.250803,0.15434 -0.56913,0.27974 -0.313504,0.12058 -0.694531,0.19775 -0.381028,0.082 -0.81511,0.082 -0.564307,0 -1.04662,-0.13505 -0.477491,-0.13504 -0.824756,-0.40032 -0.347266,-0.27009 -0.545014,-0.66559 -0.192926,-0.3955 -0.192926,-0.91639 0,-0.40997 0.144694,-0.7283 0.149517,-0.32315 0.385851,-0.5643 0.236334,-0.241161 0.535368,-0.414793 0.299034,-0.173633 0.607715,-0.289389 -0.149517,-0.115755 -0.303858,-0.265272 -0.149517,-0.15434 -0.270095,-0.332796 -0.120578,-0.183279 -0.197749,-0.395497 -0.07235,-0.212218 -0.07235,-0.448552 0,-0.381027 0.154341,-0.675239 0.15434,-0.294211 0.429259,-0.496783 0.279741,-0.202571 0.665592,-0.30868 0.385851,-0.106109 0.848872,-0.106109 0.443728,0 0.810287,0.110932 0.371381,0.110932 0.636653,0.308681 0.265273,0.197748 0.409967,0.47749 0.144694,0.274919 0.144694,0.607715 0,0.535368 -0.32315,0.930865 -0.318327,0.390674 -0.901926,0.636654 0.23151,0.106109 0.443728,0.241156 0.212218,0.135048 0.41479,0.308677 0.202571,0.17364 0.395497,0.3955 0.192925,0.21704 0.381027,0.50161 0.395497,-0.49679 0.564307,-1.056269 0.173633,-0.564307 0.173633,-1.172022 0,-0.183279 -0.02412,-0.352089 -0.01929,-0.16881 -0.06752,-0.313504 h 1.297424 q 0.05305,0.154341 0.07717,0.299035 0.02412,0.144694 0.02412,0.342442 0,0.467844 -0.101285,0.911573 -0.09646,0.443724 -0.274919,0.848874 -0.178456,0.40514 -0.434082,0.76688 -0.250803,0.36173 -0.554661,0.67523 0.236334,0.24598 0.487137,0.38103 0.250803,0.13023 0.472667,0.13023 0.231511,0 0.472667,-0.0482 0.241157,-0.0531 0.419613,-0.1447 v 1.14791 q -0.265272,0.10611 -0.525722,0.15434 -0.255626,0.0531 -0.573953,0.0531 z m -4.085195,-1.15273 q 0.284565,0 0.535368,-0.053 0.250803,-0.0579 0.472667,-0.14952 0.221865,-0.0916 0.409967,-0.21222 0.192925,-0.12057 0.352089,-0.2508 -0.24598,-0.38585 -0.487137,-0.65112 -0.241157,-0.2701 -0.47749,-0.4582 -0.236334,-0.19293 -0.472667,-0.32315 -0.231511,-0.13023 -0.467845,-0.23633 -0.197748,0.0965 -0.381027,0.21704 -0.178456,0.11575 -0.318327,0.27492 -0.139871,0.15434 -0.226687,0.35691 -0.08199,0.19775 -0.08199,0.4582 0,0.23151 0.08199,0.41961 0.08199,0.1881 0.23151,0.32315 0.15434,0.13505 0.361735,0.21222 0.212218,0.0723 0.467844,0.0723 z m 0.89228,-4.379403 q 0,-0.139871 -0.05305,-0.250803 -0.05306,-0.110932 -0.144694,-0.183279 -0.09164,-0.07717 -0.207395,-0.115755 -0.115755,-0.04341 -0.24598,-0.04341 -0.159163,0 -0.294211,0.04823 -0.130225,0.04823 -0.231511,0.130224 -0.09646,0.08199 -0.149517,0.197749 -0.05305,0.110932 -0.05305,0.241157 0,0.270095 0.168809,0.496782 0.16881,0.226688 0.419613,0.366559 0.159163,-0.05788 0.299034,-0.135048 0.144694,-0.07717 0.250803,-0.183279 0.110933,-0.106109 0.173633,-0.24598 0.06752,-0.139871 0.06752,-0.32315 z"
         style="font-weight:bold;font-size:9.87778px;font-family:'Segoe UI';-inkscape-font-specification:'Segoe UI Bold'"
         id="path973" />
      <path
         d="m 84.697823,103.47496 h -1.524111 v -0.68006 h -0.01929 q -0.520899,0.80064 -1.528934,0.80064 -0.926042,0 -1.490349,-0.65112 -0.564307,-0.65595 -0.564307,-1.82797 0,-1.225079 0.622185,-1.963018 0.622184,-0.73794 1.630219,-0.73794 0.954981,0 1.331186,0.684885 h 0.01929 v -2.937289 h 1.524111 z m -1.495172,-2.40192 v -0.37138 q 0,-0.48232 -0.279742,-0.800643 -0.279742,-0.318326 -0.728293,-0.318326 -0.506429,0 -0.790994,0.40032 -0.284565,0.395499 -0.284565,1.090029 0,0.65112 0.274918,1.00321 0.274919,0.35209 0.762056,0.35209 0.463021,0 0.752409,-0.37138 0.294211,-0.37138 0.294211,-0.98392 z"
         style="font-weight:bold;font-size:9.87778px;font-family:'Segoe UI';-inkscape-font-specification:'Segoe UI Bold'"
         id="path975" />
      <path
         d="m 89.20263,99.910664 q -0.274919,-0.149517 -0.641477,-0.149517 -0.496783,0 -0.776525,0.366553 -0.279742,0.36174 -0.279742,0.98875 v 2.35851 h -1.52411 v -4.93889 h 1.52411 v 0.916396 h 0.01929 q 0.361735,-1.003212 1.302246,-1.003212 0.241157,0 0.376205,0.05788 z"
         style="font-weight:bold;font-size:9.87778px;font-family:'Segoe UI';-inkscape-font-specification:'Segoe UI Bold'"
         id="path977" />
      <path
         d="m 92.226735,103.59554 q -1.234723,0 -1.943724,-0.68971 -0.704177,-0.69453 -0.704177,-1.88102 0,-1.225078 0.733116,-1.914787 0.733117,-0.694531 1.982309,-0.694531 1.229899,0 1.929253,0.694531 0.699355,0.689709 0.699355,1.827967 0,1.2299 -0.72347,1.94372 -0.718647,0.71383 -1.972662,0.71383 z m 0.03858,-4.012849 q -0.540191,0 -0.839226,0.371381 -0.299034,0.371378 -0.299034,1.051448 0,1.42282 1.147906,1.42282 1.094852,0 1.094852,-1.46141 0,-1.384239 -1.104498,-1.384239 z"
         style="font-weight:bold;font-size:9.87778px;font-family:'Segoe UI';-inkscape-font-specification:'Segoe UI Bold'"
         id="path979" />
      <path
         d="m 97.455015,102.90101 h -0.01929 v 2.84565 h -1.52411 v -7.21059 h 1.52411 v 0.742763 h 0.01929 q 0.564306,-0.863341 1.586811,-0.863341 0.959804,0 1.480704,0.660769 0.52572,0.655947 0.52572,1.789379 0,1.23473 -0.61254,1.98231 -0.607713,0.74759 -1.620571,0.74759 -0.89228,0 -1.360124,-0.69453 z m -0.04341,-2.02572 v 0.3955 q 0,0.51125 0.270096,0.8344 0.270096,0.32315 0.709001,0.32315 0.520898,0 0.805463,-0.40032 0.289388,-0.40514 0.289388,-1.14308 0,-1.302249 -1.012858,-1.302249 -0.467844,0 -0.766878,0.356912 -0.294212,0.352087 -0.294212,0.935687 z"
         style="font-weight:bold;font-size:9.87778px;font-family:'Segoe UI';-inkscape-font-specification:'Segoe UI Bold'"
         id="path981" />
    </g>
    <path
       style="display:inline;vector-effect:none;fill:none;fill-opacity:1;stroke:#268bd2;stroke-width:1.56104;stroke-linecap:round;stroke-linejoin:round;stroke-miterlimit:4;stroke-dasharray:none;stroke-dashoffset:0;stroke-opacity:1;marker:none"
       d="m 66.202481,89.516165 v 3.5138 h 12.17083 v -3.5138"
       id="path4500"
       inkscape:connector-curvature="0"
       sodipodi:nodetypes="cccc" />
    <path
       style="display:inline;vector-effect:none;fill:#268bd2;fill-opacity:1;stroke:#268bd2;stroke-width:0.705556;stroke-linecap:round;stroke-linejoin:round;stroke-miterlimit:4;stroke-dasharray:none;stroke-dashoffset:0;stroke-opacity:1;marker:none"
       d="m 73.669941,89.384905 v -6.62214 h 2.58671 l -3.96875,-3.96875 -3.96876,3.96875 h 2.66093 v 6.62214 z"
       id="rect4502"
       inkscape:connector-curvature="0"
       sodipodi:nodetypes="cccccccc" />
    <g
       id="g1156"
       transform="rotate(-15.83109,98.420763,358.73151)"
       style="display:inline">
      <path
         style="vector-effect:none;fill:none;fill-opacity:1;stroke:#268bd2;stroke-width:1.56104;stroke-linecap:round;stroke-linejoin:round;stroke-miterlimit:4;stroke-dasharray:none;stroke-dashoffset:0;stroke-opacity:1;marker:none"
         d="m 128.42152,70.423659 h 6.29039 l 3.71219,3.60237 v 9.6268 h -10.00258 z"
         id="rect4515"
         inkscape:connector-curvature="0"
         sodipodi:nodetypes="cccccc" />
      <path
         style="vector-effect:none;fill:none;fill-opacity:1;stroke:#268bd2;stroke-width:1.03188;stroke-linecap:butt;stroke-linejoin:round;stroke-miterlimit:4;stroke-dasharray:none;stroke-dashoffset:0;stroke-opacity:1;marker:none"
         d="m 138.4241,74.392419 h -3.96875 v -3.43958"
         id="path5158"
         inkscape:connector-curvature="0" />
    </g>
    <g
       id="g1136"
       transform="rotate(28.215483,216.79714,62.063948)"
       style="display:inline">
      <rect
         style="vector-effect:none;fill:none;fill-opacity:1;stroke:#268bd2;stroke-width:1.03188;stroke-linecap:round;stroke-linejoin:round;stroke-miterlimit:4;stroke-dasharray:none;stroke-dashoffset:0;stroke-opacity:1;marker:none"
         id="rect838-3"
         width="13.758334"
         height="13.137756"
         x="106.50957"
         y="129.12584"
         ry="0.52916676"
         rx="0.52916676" />
      <rect
         y="129.12584"
         x="106.50957"
         height="2.9104168"
         width="13.758334"
         id="rect854-1"
         style="vector-effect:none;fill:#268bd2;fill-opacity:1;stroke:none;stroke-width:1.03188;stroke-linecap:round;stroke-linejoin:round;stroke-miterlimit:4;stroke-dasharray:none;stroke-dashoffset:0;stroke-opacity:1;marker:none" />
      <path
         id="path3271"
         style="font-variation-settings:normal;fill:none;fill-opacity:1;stroke:#268bd2;stroke-width:0.767292;stroke-linecap:round;stroke-linejoin:round;stroke-miterlimit:4;stroke-dasharray:none;stroke-dashoffset:0;stroke-opacity:1;marker:none;stop-color:#000000"
         d="m 115.5054,131.94484 v 10.05417 m -4.49791,-10.05417 v 10.05417 m -4.23334,-2.38125 h 13.22917 m -13.22917,-2.64584 h 13.22917 m -13.22917,-2.64583 h 13.22917" />
    </g>
    <g
       id="g1281"
       transform="translate(-14.147782,2.2719054)">
      <rect
         style="display:inline;vector-effect:none;fill:none;fill-opacity:1;stroke:#268bd2;stroke-width:1.03188;stroke-linecap:round;stroke-linejoin:round;stroke-miterlimit:4;stroke-dasharray:none;stroke-dashoffset:0.206375;stroke-opacity:1;marker:none"
         id="rect9902"
         width="13.758333"
         height="13.758333"
         x="79.556511"
         y="56.321114"
         rx="0.52917993"
         ry="0.52917993" />
      <rect
         style="display:inline;vector-effect:none;fill:none;fill-opacity:1;stroke:#268bd2;stroke-width:1.03188;stroke-linecap:round;stroke-linejoin:round;stroke-miterlimit:4;stroke-dasharray:none;stroke-dashoffset:0;stroke-opacity:1;marker:none"
         id="rect845"
         width="4.6613588"
         height="2.5867939"
         x="86.131737"
         y="58.457458"
         rx="0.52917993"
         ry="0.52917993" />
      <rect
         ry="0.52917993"
         rx="0.52917993"
         y="63.128117"
         x="81.041237"
         height="2.5867939"
         width="4.6613588"
         id="rect847"
         style="display:inline;vector-effect:none;fill:none;fill-opacity:1;stroke:#268bd2;stroke-width:1.03188;stroke-linecap:round;stroke-linejoin:round;stroke-miterlimit:4;stroke-dasharray:none;stroke-dashoffset:0;stroke-opacity:1;marker:none" />
      <rect
         style="display:inline;vector-effect:none;fill:none;fill-opacity:1;stroke:#268bd2;stroke-width:1.03188;stroke-linecap:round;stroke-linejoin:round;stroke-miterlimit:4;stroke-dasharray:none;stroke-dashoffset:0;stroke-opacity:1;marker:none"
         id="rect849"
         width="4.6613588"
         height="2.5867939"
         x="87.093857"
         y="65.944511"
         rx="0.52917993"
         ry="0.52917993" />
    </g>
    <g
       aria-label="data and workspaces here to load"
       id="text17712"
       style="font-size:4.23333px;line-height:1.25;-inkscape-font-specification:sans-serif;text-align:center;letter-spacing:0px;word-spacing:0px;text-anchor:middle;fill:#268bd2;stroke-width:0.264583">
      <path
         d="m 43.030794,111.11682 h -0.338998 v -0.35967 h -0.0083 q -0.235644,0.40928 -0.727603,0.40928 -0.398942,0 -0.638721,-0.28319 -0.237711,-0.28525 -0.237711,-0.77514 0,-0.52503 0.264583,-0.84129 0.264583,-0.31626 0.704866,-0.31626 0.436149,0 0.634586,0.34313 h 0.0083 v -1.31051 h 0.338998 z m -0.338998,-0.95705 v -0.31212 q 0,-0.25632 -0.169498,-0.43408 -0.169499,-0.17777 -0.429948,-0.17777 -0.310058,0 -0.487825,0.22738 -0.177767,0.22737 -0.177767,0.62838 0,0.36587 0.169499,0.57878 0.171566,0.21084 0.458886,0.21084 0.283187,0 0.458887,-0.20464 0.177766,-0.20464 0.177766,-0.51677 z"
         style="font-family:'Segoe UI';-inkscape-font-specification:'Segoe UI'"
         id="path984" />
      <path
         d="M 45.232208,111.11682 H 44.89321 v -0.33073 h -0.0083 q -0.221175,0.38034 -0.651122,0.38034 -0.31626,0 -0.496094,-0.16743 -0.177766,-0.16743 -0.177766,-0.44442 0,-0.59324 0.698664,-0.69039 l 0.634586,-0.0889 q 0,-0.5395 -0.436148,-0.5395 -0.382406,0 -0.690397,0.26045 v -0.34727 q 0.312126,-0.19843 0.719336,-0.19843 0.746207,0 0.746207,0.78961 z m -0.338998,-1.07073 -0.510562,0.0703 q -0.235645,0.0331 -0.355534,0.11782 -0.119889,0.0827 -0.119889,0.29559 0,0.15503 0.109554,0.25425 0.111621,0.0971 0.295589,0.0971 0.252181,0 0.415478,-0.1757 0.165364,-0.17777 0.165364,-0.44855 z"
         style="font-family:'Segoe UI';-inkscape-font-specification:'Segoe UI'"
         id="path986" />
      <path
         d="m 46.852779,111.09615 q -0.119889,0.0662 -0.316259,0.0662 -0.556038,0 -0.556038,-0.62012 v -1.25264 H 45.61668 v -0.28938 h 0.363802 v -0.51677 l 0.338997,-0.10955 v 0.62632 h 0.5333 v 0.28938 h -0.5333 v 1.1927 q 0,0.2129 0.07235,0.30385 0.07235,0.0909 0.239778,0.0909 0.128158,0 0.221175,-0.0703 z"
         style="font-family:'Segoe UI';-inkscape-font-specification:'Segoe UI'"
         id="path988" />
      <path
         d="m 48.820616,111.11682 h -0.338997 v -0.33073 h -0.0083 q -0.221175,0.38034 -0.651123,0.38034 -0.316259,0 -0.496093,-0.16743 -0.177767,-0.16743 -0.177767,-0.44442 0,-0.59324 0.698665,-0.69039 l 0.634586,-0.0889 q 0,-0.5395 -0.436149,-0.5395 -0.382405,0 -0.690396,0.26045 v -0.34727 q 0.312125,-0.19843 0.719335,-0.19843 0.746207,0 0.746207,0.78961 z m -0.338997,-1.07073 -0.510563,0.0703 q -0.235644,0.0331 -0.355533,0.11782 -0.11989,0.0827 -0.11989,0.29559 0,0.15503 0.109554,0.25425 0.111621,0.0971 0.295589,0.0971 0.252181,0 0.415478,-0.1757 0.165365,-0.17777 0.165365,-0.44855 z"
         style="font-family:'Segoe UI';-inkscape-font-specification:'Segoe UI'"
         id="path990" />
      <path
         d="m 52.134105,111.11682 h -0.338997 v -0.33073 h -0.0083 q -0.221175,0.38034 -0.651122,0.38034 -0.31626,0 -0.496094,-0.16743 -0.177766,-0.16743 -0.177766,-0.44442 0,-0.59324 0.698664,-0.69039 l 0.634586,-0.0889 q 0,-0.5395 -0.436148,-0.5395 -0.382406,0 -0.690397,0.26045 v -0.34727 q 0.312125,-0.19843 0.719335,-0.19843 0.746207,0 0.746207,0.78961 z m -0.338997,-1.07073 -0.510562,0.0703 q -0.235645,0.0331 -0.355534,0.11782 -0.119889,0.0827 -0.119889,0.29559 0,0.15503 0.109554,0.25425 0.111621,0.0971 0.295589,0.0971 0.252181,0 0.415478,-0.1757 0.165364,-0.17777 0.165364,-0.44855 z"
         style="font-family:'Segoe UI';-inkscape-font-specification:'Segoe UI'"
         id="path992" />
      <path
         d="m 54.529823,111.11682 h -0.338997 v -1.20716 q 0,-0.67386 -0.491959,-0.67386 -0.254248,0 -0.421679,0.19224 -0.165365,0.19017 -0.165365,0.48162 v 1.20716 h -0.338997 v -2.11666 h 0.338997 v 0.3514 h 0.0083 q 0.239778,-0.40101 0.69453,-0.40101 0.347266,0 0.531234,0.22531 0.183967,0.22324 0.183967,0.64698 z"
         style="font-family:'Segoe UI';-inkscape-font-specification:'Segoe UI'"
         id="path994" />
      <path
         d="m 56.975149,111.11682 h -0.338997 v -0.35967 h -0.0083 q -0.235644,0.40928 -0.727603,0.40928 -0.398942,0 -0.638721,-0.28319 -0.237711,-0.28525 -0.237711,-0.77514 0,-0.52503 0.264583,-0.84129 0.264583,-0.31626 0.704866,-0.31626 0.436149,0 0.634586,0.34313 h 0.0083 v -1.31051 h 0.338997 z m -0.338997,-0.95705 v -0.31212 q 0,-0.25632 -0.169498,-0.43408 -0.169499,-0.17777 -0.429948,-0.17777 -0.310058,0 -0.487825,0.22738 -0.177767,0.22737 -0.177767,0.62838 0,0.36587 0.169499,0.57878 0.171566,0.21084 0.458886,0.21084 0.283187,0 0.458887,-0.20464 0.177766,-0.20464 0.177766,-0.51677 z"
         style="font-family:'Segoe UI';-inkscape-font-specification:'Segoe UI'"
         id="path996" />
      <path
         d="m 61.487532,109.00016 -0.634586,2.11666 h -0.351399 l -0.436149,-1.51515 q -0.02481,-0.0868 -0.03307,-0.19637 h -0.0083 q -0.0062,0.0744 -0.04341,0.19224 l -0.473356,1.51928 h -0.338997 l -0.640787,-2.11666 h 0.355533 l 0.438216,1.59163 q 0.02067,0.0724 0.02894,0.19017 h 0.01654 q 0.0062,-0.0909 0.03721,-0.1943 l 0.487825,-1.5875 h 0.310059 l 0.438216,1.59576 q 0.02067,0.0765 0.03101,0.19017 h 0.01654 q 0.0041,-0.0806 0.03514,-0.19017 l 0.429947,-1.59576 z"
         style="font-family:'Segoe UI';-inkscape-font-specification:'Segoe UI'"
         id="path998" />
      <path
         d="m 62.764973,111.16643 q -0.469222,0 -0.750341,-0.29559 -0.279053,-0.29765 -0.279053,-0.78755 0,-0.5333 0.291455,-0.83302 0.291455,-0.29972 0.787548,-0.29972 0.473356,0 0.737939,0.29145 0.26665,0.29146 0.26665,0.80822 0,0.50643 -0.287321,0.81235 -0.285253,0.30386 -0.766877,0.30386 z m 0.0248,-1.93063 q -0.326594,0 -0.516764,0.22324 -0.190169,0.22118 -0.190169,0.61185 0,0.37621 0.192237,0.59325 0.192236,0.21704 0.514696,0.21704 0.328662,0 0.504362,-0.21291 0.177767,-0.21291 0.177767,-0.60565 0,-0.39687 -0.177767,-0.61185 -0.1757,-0.21497 -0.504362,-0.21497 z"
         style="font-family:'Segoe UI';-inkscape-font-specification:'Segoe UI'"
         id="path1000" />
      <path
         d="m 65.464547,109.34329 q -0.08888,-0.0682 -0.256314,-0.0682 -0.217041,0 -0.363802,0.20464 -0.144694,0.20464 -0.144694,0.55811 v 1.079 H 64.36074 v -2.11666 h 0.338997 v 0.43615 h 0.0083 q 0.07235,-0.22325 0.221175,-0.34727 0.148828,-0.12609 0.332796,-0.12609 0.132292,0 0.202571,0.0289 z"
         style="font-family:'Segoe UI';-inkscape-font-specification:'Segoe UI'"
         id="path1002" />
      <path
         d="m 67.58948,111.11682 h -0.475423 l -0.934309,-1.01699 h -0.0083 v 1.01699 h -0.338998 v -3.13365 h 0.338998 v 1.98644 h 0.0083 l 0.888834,-0.96945 h 0.444417 l -0.981852,1.02112 z"
         style="font-family:'Segoe UI';-inkscape-font-specification:'Segoe UI'"
         id="path1004" />
      <path
         d="m 67.808588,111.04034 v -0.3638 q 0.276986,0.20464 0.609782,0.20464 0.446484,0 0.446484,-0.29766 0,-0.0847 -0.03927,-0.14263 -0.03721,-0.0599 -0.103353,-0.10542 -0.06408,-0.0455 -0.152962,-0.0806 -0.08682,-0.0372 -0.188102,-0.0765 -0.14056,-0.0558 -0.248047,-0.11162 -0.10542,-0.0579 -0.177767,-0.12816 -0.07028,-0.0724 -0.107487,-0.1633 -0.03514,-0.091 -0.03514,-0.2129 0,-0.14883 0.06821,-0.26252 0.06821,-0.11576 0.181901,-0.19224 0.113688,-0.0785 0.258382,-0.11782 0.146761,-0.0393 0.30179,-0.0393 0.274919,0 0.491959,0.0951 v 0.34313 q -0.233577,-0.15296 -0.537434,-0.15296 -0.09508,0 -0.171566,0.0227 -0.07648,0.0207 -0.132291,0.0599 -0.05374,0.0393 -0.08475,0.0951 -0.02894,0.0537 -0.02894,0.11989 0,0.0827 0.02894,0.13849 0.03101,0.0558 0.08888,0.0992 0.05788,0.0434 0.14056,0.0786 0.08268,0.0351 0.188102,0.0765 0.140559,0.0537 0.25218,0.11162 0.111621,0.0558 0.19017,0.12816 0.07855,0.0703 0.119889,0.16329 0.04341,0.093 0.04341,0.22118 0,0.15709 -0.07028,0.27285 -0.06821,0.11575 -0.183968,0.19224 -0.115755,0.0765 -0.26665,0.11368 -0.150895,0.0372 -0.31626,0.0372 -0.326594,0 -0.566373,-0.12609 z"
         style="font-family:'Segoe UI';-inkscape-font-specification:'Segoe UI'"
         id="path1006" />
      <path
         d="m 70.080281,110.8109 h -0.0083 v 1.2795 h -0.338997 v -3.09024 h 0.338997 v 0.37207 h 0.0083 q 0.250114,-0.42168 0.731738,-0.42168 0.409277,0 0.63872,0.28525 0.229443,0.28319 0.229443,0.76068 0,0.53123 -0.258382,0.85162 -0.258381,0.31833 -0.706933,0.31833 -0.411344,0 -0.634586,-0.35553 z m -0.0083,-0.8537 v 0.29559 q 0,0.26252 0.169499,0.44649 0.171565,0.1819 0.434081,0.1819 0.307992,0 0.481624,-0.23565 0.1757,-0.23564 0.1757,-0.65525 0,-0.35347 -0.163297,-0.55397 -0.163298,-0.20051 -0.44235,-0.20051 -0.295589,0 -0.475423,0.20671 -0.179834,0.20463 -0.179834,0.51469 z"
         style="font-family:'Segoe UI';-inkscape-font-specification:'Segoe UI'"
         id="path1008" />
      <path
         d="m 73.736903,111.11682 h -0.338997 v -0.33073 h -0.0083 q -0.221175,0.38034 -0.651123,0.38034 -0.316259,0 -0.496093,-0.16743 -0.177767,-0.16743 -0.177767,-0.44442 0,-0.59324 0.698665,-0.69039 l 0.634586,-0.0889 q 0,-0.5395 -0.436149,-0.5395 -0.382405,0 -0.690396,0.26045 v -0.34727 q 0.312125,-0.19843 0.719335,-0.19843 0.746207,0 0.746207,0.78961 z m -0.338997,-1.07073 -0.510563,0.0703 q -0.235644,0.0331 -0.355533,0.11782 -0.11989,0.0827 -0.11989,0.29559 0,0.15503 0.109554,0.25425 0.111621,0.0971 0.295589,0.0971 0.252181,0 0.415478,-0.1757 0.165365,-0.17777 0.165365,-0.44855 z"
         style="font-family:'Segoe UI';-inkscape-font-specification:'Segoe UI'"
         id="path1010" />
      <path
         d="m 75.818428,111.01967 q -0.243913,0.14676 -0.578776,0.14676 -0.452685,0 -0.731738,-0.29352 -0.276985,-0.29559 -0.276985,-0.76481 0,-0.52297 0.299723,-0.83923 0.299723,-0.31832 0.79995,-0.31832 0.279053,0 0.49196,0.10335 v 0.34727 q -0.235645,-0.16537 -0.504362,-0.16537 -0.324528,0 -0.5333,0.23358 -0.206706,0.23151 -0.206706,0.60978 0,0.37207 0.194303,0.58704 0.196371,0.21498 0.525033,0.21498 0.276985,0 0.520898,-0.18397 z"
         style="font-family:'Segoe UI';-inkscape-font-specification:'Segoe UI'"
         id="path1012" />
      <path
         d="m 78.032246,110.14324 h -1.494481 q 0.0083,0.35346 0.190169,0.5457 0.181901,0.19224 0.500228,0.19224 0.3576,0 0.657323,-0.23565 v 0.31833 q -0.279052,0.20257 -0.737939,0.20257 -0.448551,0 -0.704865,-0.28732 -0.256315,-0.28939 -0.256315,-0.81235 0,-0.49403 0.279052,-0.80409 0.28112,-0.31212 0.696598,-0.31212 0.415478,0 0.642854,0.26871 0.227376,0.26872 0.227376,0.74621 z m -0.347265,-0.28732 q -0.0021,-0.29352 -0.142627,-0.45682 -0.138493,-0.1633 -0.386539,-0.1633 -0.239779,0 -0.40721,0.17157 -0.167432,0.17156 -0.206706,0.44855 z"
         style="font-family:'Segoe UI';-inkscape-font-specification:'Segoe UI'"
         id="path1014" />
      <path
         d="m 78.416716,111.04034 v -0.3638 q 0.276985,0.20464 0.609781,0.20464 0.446484,0 0.446484,-0.29766 0,-0.0847 -0.03927,-0.14263 -0.03721,-0.0599 -0.103353,-0.10542 -0.06408,-0.0455 -0.152962,-0.0806 -0.08682,-0.0372 -0.188102,-0.0765 -0.14056,-0.0558 -0.248046,-0.11162 -0.10542,-0.0579 -0.177767,-0.12816 -0.07028,-0.0724 -0.107487,-0.1633 -0.03514,-0.091 -0.03514,-0.2129 0,-0.14883 0.06821,-0.26252 0.06821,-0.11576 0.181901,-0.19224 0.113688,-0.0785 0.258382,-0.11782 0.146761,-0.0393 0.30179,-0.0393 0.274918,0 0.491959,0.0951 v 0.34313 q -0.233577,-0.15296 -0.537434,-0.15296 -0.09508,0 -0.171566,0.0227 -0.07648,0.0207 -0.132292,0.0599 -0.05374,0.0393 -0.08475,0.0951 -0.02894,0.0537 -0.02894,0.11989 0,0.0827 0.02894,0.13849 0.03101,0.0558 0.08888,0.0992 0.05788,0.0434 0.14056,0.0786 0.08268,0.0351 0.188102,0.0765 0.14056,0.0537 0.252181,0.11162 0.111621,0.0558 0.190169,0.12816 0.07855,0.0703 0.119889,0.16329 0.04341,0.093 0.04341,0.22118 0,0.15709 -0.07028,0.27285 -0.06821,0.11575 -0.183968,0.19224 -0.115755,0.0765 -0.26665,0.11368 -0.150895,0.0372 -0.31626,0.0372 -0.326595,0 -0.566373,-0.12609 z"
         style="font-family:'Segoe UI';-inkscape-font-specification:'Segoe UI'"
         id="path1016" />
      <path
         d="m 83.257761,111.11682 h -0.338997 v -1.21956 q 0,-0.66146 -0.491959,-0.66146 -0.248047,0 -0.417545,0.19224 -0.169499,0.19017 -0.169499,0.48989 v 1.19889 h -0.338997 v -3.13365 h 0.338997 v 1.36839 h 0.0083 q 0.243913,-0.40101 0.694531,-0.40101 0.715201,0 0.715201,0.86196 z"
         style="font-family:'Segoe UI';-inkscape-font-specification:'Segoe UI'"
         id="path1018" />
      <path
         d="m 85.597668,110.14324 h -1.494481 q 0.0083,0.35346 0.190169,0.5457 0.181901,0.19224 0.500228,0.19224 0.3576,0 0.657323,-0.23565 v 0.31833 q -0.279052,0.20257 -0.737938,0.20257 -0.448552,0 -0.704866,-0.28732 -0.256315,-0.28939 -0.256315,-0.81235 0,-0.49403 0.279052,-0.80409 0.28112,-0.31212 0.696598,-0.31212 0.415478,0 0.642854,0.26871 0.227376,0.26872 0.227376,0.74621 z m -0.347265,-0.28732 q -0.0021,-0.29352 -0.142627,-0.45682 -0.138493,-0.1633 -0.386539,-0.1633 -0.239779,0 -0.40721,0.17157 -0.167432,0.17156 -0.206706,0.44855 z"
         style="font-family:'Segoe UI';-inkscape-font-specification:'Segoe UI'"
         id="path1020" />
      <path
         d="m 87.214107,109.34329 q -0.08888,-0.0682 -0.256315,-0.0682 -0.217041,0 -0.363802,0.20464 -0.144694,0.20464 -0.144694,0.55811 v 1.079 h -0.338997 v -2.11666 h 0.338997 v 0.43615 h 0.0083 q 0.07235,-0.22325 0.221175,-0.34727 0.148828,-0.12609 0.332796,-0.12609 0.132292,0 0.202572,0.0289 z"
         style="font-family:'Segoe UI';-inkscape-font-specification:'Segoe UI'"
         id="path1022" />
      <path
         d="m 89.283227,110.14324 h -1.494482 q 0.0083,0.35346 0.19017,0.5457 0.1819,0.19224 0.500227,0.19224 0.357601,0 0.657324,-0.23565 v 0.31833 q -0.279053,0.20257 -0.737939,0.20257 -0.448551,0 -0.704866,-0.28732 -0.256315,-0.28939 -0.256315,-0.81235 0,-0.49403 0.279052,-0.80409 0.28112,-0.31212 0.696598,-0.31212 0.415478,0 0.642854,0.26871 0.227377,0.26872 0.227377,0.74621 z m -0.347266,-0.28732 q -0.0021,-0.29352 -0.142627,-0.45682 -0.138492,-0.1633 -0.386539,-0.1633 -0.239778,0 -0.40721,0.17157 -0.167431,0.17156 -0.206705,0.44855 z"
         style="font-family:'Segoe UI';-inkscape-font-specification:'Segoe UI'"
         id="path1024" />
      <path
         d="m 91.937327,111.09615 q -0.119889,0.0662 -0.316259,0.0662 -0.556038,0 -0.556038,-0.62012 v -1.25264 h -0.363802 v -0.28938 h 0.363802 v -0.51677 l 0.338997,-0.10955 v 0.62632 h 0.5333 v 0.28938 h -0.5333 v 1.1927 q 0,0.2129 0.07235,0.30385 0.07235,0.0909 0.239778,0.0909 0.128158,0 0.221175,-0.0703 z"
         style="font-family:'Segoe UI';-inkscape-font-specification:'Segoe UI'"
         id="path1026" />
      <path
         d="m 93.274712,111.16643 q -0.469222,0 -0.750342,-0.29559 -0.279052,-0.29765 -0.279052,-0.78755 0,-0.5333 0.291455,-0.83302 0.291455,-0.29972 0.787548,-0.29972 0.473356,0 0.737939,0.29145 0.26665,0.29146 0.26665,0.80822 0,0.50643 -0.287321,0.81235 -0.285253,0.30386 -0.766877,0.30386 z m 0.0248,-1.93063 q -0.326594,0 -0.516764,0.22324 -0.190169,0.22118 -0.190169,0.61185 0,0.37621 0.192236,0.59325 0.192237,0.21704 0.514697,0.21704 0.328662,0 0.504362,-0.21291 0.177767,-0.21291 0.177767,-0.60565 0,-0.39687 -0.177767,-0.61185 -0.1757,-0.21497 -0.504362,-0.21497 z"
         style="font-family:'Segoe UI';-inkscape-font-specification:'Segoe UI'"
         id="path1028" />
      <path
         d="m 96.369092,111.11682 h -0.338997 v -3.13365 h 0.338997 z"
         style="font-family:'Segoe UI';-inkscape-font-specification:'Segoe UI'"
         id="path1030" />
      <path
         d="m 97.940056,111.16643 q -0.469222,0 -0.750341,-0.29559 -0.279053,-0.29765 -0.279053,-0.78755 0,-0.5333 0.291455,-0.83302 0.291455,-0.29972 0.787548,-0.29972 0.473356,0 0.737939,0.29145 0.26665,0.29146 0.26665,0.80822 0,0.50643 -0.287321,0.81235 -0.285253,0.30386 -0.766877,0.30386 z m 0.02481,-1.93063 q -0.326595,0 -0.516764,0.22324 -0.190169,0.22118 -0.190169,0.61185 0,0.37621 0.192236,0.59325 0.192236,0.21704 0.514697,0.21704 0.328661,0 0.504361,-0.21291 0.177767,-0.21291 0.177767,-0.60565 0,-0.39687 -0.177767,-0.61185 -0.1757,-0.21497 -0.504361,-0.21497 z"
         style="font-family:'Segoe UI';-inkscape-font-specification:'Segoe UI'"
         id="path1032" />
      <path
         d="m 101.05098,111.11682 h -0.339 v -0.33073 h -0.008 q -0.22117,0.38034 -0.65112,0.38034 -0.316261,0 -0.496095,-0.16743 -0.177766,-0.16743 -0.177766,-0.44442 0,-0.59324 0.698661,-0.69039 l 0.63459,-0.0889 q 0,-0.5395 -0.43615,-0.5395 -0.382405,0 -0.690396,0.26045 v -0.34727 q 0.312126,-0.19843 0.719336,-0.19843 0.74621,0 0.74621,0.78961 z m -0.339,-1.07073 -0.51056,0.0703 q -0.235648,0.0331 -0.355537,0.11782 -0.119889,0.0827 -0.119889,0.29559 0,0.15503 0.109554,0.25425 0.111621,0.0971 0.295592,0.0971 0.25218,0 0.41547,-0.1757 0.16537,-0.17777 0.16537,-0.44855 z"
         style="font-family:'Segoe UI';-inkscape-font-specification:'Segoe UI'"
         id="path1034" />
      <path
         d="m 103.4963,111.11682 h -0.339 v -0.35967 h -0.008 q -0.23565,0.40928 -0.72761,0.40928 -0.39894,0 -0.63872,-0.28319 -0.23771,-0.28525 -0.23771,-0.77514 0,-0.52503 0.26458,-0.84129 0.26459,-0.31626 0.70487,-0.31626 0.43615,0 0.63459,0.34313 h 0.008 v -1.31051 h 0.339 z m -0.339,-0.95705 v -0.31212 q 0,-0.25632 -0.16949,-0.43408 -0.1695,-0.17777 -0.42995,-0.17777 -0.31006,0 -0.48783,0.22738 -0.17776,0.22737 -0.17776,0.62838 0,0.36587 0.16949,0.57878 0.17157,0.21084 0.45889,0.21084 0.28319,0 0.45889,-0.20464 0.17776,-0.20464 0.17776,-0.51677 z"
         style="font-family:'Segoe UI';-inkscape-font-specification:'Segoe UI'"
         id="path1036" />
    </g>
  </g>
</svg>
