<?xml version="1.0" ?><!DOCTYPE svg  PUBLIC '-//W3C//DTD SVG 1.1//EN'  'http://www.w3.org/Graphics/SVG/1.1/DTD/svg11.dtd'><svg enable-background="new 0 0 512 512" id="Layer_1" version="1.1" viewBox="0 0 512 512" xml:space="preserve" xmlns="http://www.w3.org/2000/svg" xmlns:xlink="http://www.w3.org/1999/xlink"><g><g><path d="M81.8,511.2c-3.9-1.7-6.4-5.5-6.4-9.7V10.5c0-4.2,2.5-8.1,6.4-9.7C85.7-0.8,90.2,0,93.2,3l254,245.5    c2.1,2,3.2,4.7,3.2,7.6c0,2.9-1.2,5.6-3.2,7.6L93.2,509c-2,1.9-4.6,3-7.3,3C84.5,512,83.1,511.7,81.8,511.2z M96.4,35.4v441.2    L324.7,256L96.4,35.4z" fill="#6A6E7C"/></g><path d="M426.1,512c5.8,0,10.5-4.7,10.5-10.5V10.5c0-5.8-4.7-10.5-10.5-10.5c-5.8,0-10.5,4.7-10.5,10.5v490.9   C415.6,507.3,420.3,512,426.1,512z" fill="#6A6E7C"/></g></svg>