<?xml version="1.0" ?><!DOCTYPE svg  PUBLIC '-//W3C//DTD SVG 1.1//EN'  'http://www.w3.org/Graphics/SVG/1.1/DTD/svg11.dtd'><svg enable-background="new 0 0 512 512" id="Layer_1" version="1.1" viewBox="0 0 512 512" xml:space="preserve" xmlns="http://www.w3.org/2000/svg" xmlns:xlink="http://www.w3.org/1999/xlink"><g><path d="M256,512c-68.4,0-132.7-26.6-181-75S0,324.4,0,256S26.6,123.3,75,75S187.6,0,256,0   c48.5,0,95.7,13.6,136.6,39.4c28.7,18.1,53.3,41.6,72.7,69.1V24.4c0-5.8,4.7-10.5,10.5-10.5c5.8,0,10.5,4.7,10.5,10.5v122.3   c0,4.9-3.4,9.1-8.1,10.3c-4.8,1.1-9.7-1.2-11.9-5.6C426.3,71,345.7,21.1,256,21.1C126.5,21.1,21.1,126.5,21.1,256   c0,129.5,105.4,234.9,234.9,234.9c129.5,0,234.9-105.4,234.9-234.9c0-5.8,4.7-10.5,10.5-10.5c5.8,0,10.5,4.7,10.5,10.5   c0,68.4-26.6,132.7-75,181S324.4,512,256,512z" fill="#6A6E7C"/><path d="M474.8,158.2H357.5c-5.8,0-10.5-4.7-10.5-10.5s4.7-10.5,10.5-10.5h117.3c5.8,0,10.5,4.7,10.5,10.5   S480.6,158.2,474.8,158.2z" fill="#6A6E7C"/></g></svg>