<?xml version="1.0" ?><!DOCTYPE svg  PUBLIC '-//W3C//DTD SVG 1.1//EN'  'http://www.w3.org/Graphics/SVG/1.1/DTD/svg11.dtd'><svg enable-background="new 0 0 512 512" id="Layer_1" version="1.1" viewBox="0 0 512 512" xml:space="preserve" xmlns="http://www.w3.org/2000/svg" xmlns:xlink="http://www.w3.org/1999/xlink"><g><path d="M10.5,266.5c-2.8,0-5.5-1.1-7.6-3.2c-4-4.2-3.9-10.9,0.3-14.9l191.5-185c4.2-4,10.9-3.9,14.9,0.3   c4,4.2,3.9,10.9-0.3,14.9l-191.5,185C15.8,265.6,13.2,266.5,10.5,266.5z" fill="#6A6E7C"/><path d="M202,451.6c-2.6,0-5.3-1-7.3-3L3.2,263.6c-3.1-3-4.1-7.6-2.4-11.5c1.6-4,5.5-6.6,9.8-6.6h318.8   c100.7,0,182.7,81.9,182.7,182.7V441c0,5.8-4.7,10.5-10.5,10.5c-5.8,0-10.5-4.7-10.5-10.5v-12.9c0-89.1-72.5-161.6-161.6-161.6   H36.6l172.7,166.9c4.2,4,4.3,10.7,0.3,14.9C207.5,450.5,204.8,451.6,202,451.6z" fill="#6A6E7C"/></g></svg>